<svg width="18" height="16" viewBox="0 0 18 16" fill="none" xmlns="http://www.w3.org/2000/svg">
<path fill-rule="evenodd" clip-rule="evenodd" d="M13.5327 3.197C13.566 3.25527 13.6244 3.29689 13.6994 3.29689C15.6994 3.29689 17.3327 4.92841 17.3327 6.92619V11.8707C17.3327 13.8685 15.6994 15.5 13.6994 15.5H4.29935C2.29102 15.5 0.666016 13.8685 0.666016 11.8707V6.92619C0.666016 4.92841 2.29102 3.29689 4.29935 3.29689C4.36602 3.29689 4.43268 3.2636 4.45768 3.197L4.50768 3.09711C4.53641 3.03665 4.56589 2.97455 4.59583 2.9115C4.80901 2.46246 5.04487 1.96567 5.19102 1.6737C5.57435 0.924528 6.22435 0.508324 7.03268 0.5H10.9577C11.766 0.508324 12.4244 0.924528 12.8077 1.6737C12.9389 1.93593 13.1389 2.35835 13.3317 2.76547C13.3714 2.84943 13.4109 2.93275 13.4494 3.01387L13.5327 3.197ZM12.9243 6.39345C12.9243 6.80966 13.2577 7.14262 13.6743 7.14262C14.091 7.14262 14.4327 6.80966 14.4327 6.39345C14.4327 5.97725 14.091 5.63596 13.6743 5.63596C13.2577 5.63596 12.9243 5.97725 12.9243 6.39345ZM7.55768 7.68368C7.94935 7.29245 8.45768 7.08435 8.99935 7.08435C9.54102 7.08435 10.0493 7.29245 10.4327 7.67536C10.816 8.05827 11.0243 8.56604 11.0243 9.1071C11.016 10.2225 10.116 11.1299 8.99935 11.1299C8.45768 11.1299 7.94935 10.9218 7.56602 10.5388C7.18268 10.1559 6.97435 9.64817 6.97435 9.1071V9.09878C6.96602 8.57436 7.17435 8.06659 7.55768 7.68368ZM11.3077 11.4212C10.716 12.0122 9.89935 12.3785 8.99935 12.3785C8.12435 12.3785 7.30768 12.0372 6.68268 11.4212C6.06602 10.7969 5.72435 9.98113 5.72435 9.1071C5.71602 8.2414 6.05768 7.42564 6.67435 6.80133C7.29935 6.17703 8.12435 5.83574 8.99935 5.83574C9.87435 5.83574 10.6993 6.17703 11.316 6.79301C11.9327 7.41731 12.2744 8.2414 12.2744 9.1071C12.266 10.0144 11.8994 10.8302 11.3077 11.4212Z" fill="#2D2A26"/>
</svg>
