<svg width="18" height="18" viewBox="0 0 18 18" fill="none" xmlns="http://www.w3.org/2000/svg">
<path fill-rule="evenodd" clip-rule="evenodd" d="M10.2077 3.06683H12.766C15.841 3.06683 17.341 4.7085 17.3327 8.07516V12.1335C17.3327 15.3502 15.3493 17.3335 12.1243 17.3335H5.86602C2.65768 17.3335 0.666016 15.3502 0.666016 12.1252V5.86683C0.666016 2.41683 2.19935 0.666829 5.22435 0.666829H6.54102C7.31685 0.658496 8.04102 1.01683 8.51602 1.62516L9.24935 2.60016C9.48268 2.89183 9.83268 3.06683 10.2077 3.06683ZM5.14102 11.7418H12.8577C13.1994 11.7418 13.4743 11.4585 13.4743 11.1168C13.4743 10.7668 13.1994 10.4918 12.8577 10.4918H5.14102C4.79102 10.4918 4.51602 10.7668 4.51602 11.1168C4.51602 11.4585 4.79102 11.7418 5.14102 11.7418Z" fill="#2D2A26"/>
</svg>
