<svg width="50" height="50" viewBox="0 0 50 50" fill="none" xmlns="http://www.w3.org/2000/svg">
<g clip-path="url(#clip0_1485_11304)">
<g clip-path="url(#clip1_1485_11304)">
<path d="M50 0H0V50H50V0Z" fill="white"/>
<path d="M3.5244 1.25H1.25V3.5244H3.5244V1.25Z" fill="black"/>
<path d="M5.78612 1.25H3.51172V3.5244H5.78612V1.25Z" fill="black"/>
<path d="M8.04784 1.25H5.77344V3.5244H8.04784V1.25Z" fill="black"/>
<path d="M10.3105 1.25H8.03613V3.5244H10.3105V1.25Z" fill="black"/>
<path d="M12.5723 1.25H10.2979V3.5244H12.5723V1.25Z" fill="black"/>
<path d="M14.834 1.25H12.5596V3.5244H14.834V1.25Z" fill="black"/>
<path d="M17.0957 1.25H14.8213V3.5244H17.0957V1.25Z" fill="black"/>
<path d="M21.6201 1.25H19.3457V3.5244H21.6201V1.25Z" fill="black"/>
<path d="M23.8818 1.25H21.6074V3.5244H23.8818V1.25Z" fill="black"/>
<path d="M30.667 1.25H28.3926V3.5244H30.667V1.25Z" fill="black"/>
<path d="M35.1914 1.25H32.917V3.5244H35.1914V1.25Z" fill="black"/>
<path d="M37.4531 1.25H35.1787V3.5244H37.4531V1.25Z" fill="black"/>
<path d="M39.7148 1.25H37.4404V3.5244H39.7148V1.25Z" fill="black"/>
<path d="M41.9766 1.25H39.7021V3.5244H41.9766V1.25Z" fill="black"/>
<path d="M44.2383 1.25H41.9639V3.5244H44.2383V1.25Z" fill="black"/>
<path d="M46.501 1.25H44.2266V3.5244H46.501V1.25Z" fill="black"/>
<path d="M48.7627 1.25H46.4883V3.5244H48.7627V1.25Z" fill="black"/>
<path d="M3.5244 3.5119H1.25V5.78631H3.5244V3.5119Z" fill="black"/>
<path d="M17.0957 3.5119H14.8213V5.78631H17.0957V3.5119Z" fill="black"/>
<path d="M23.8818 3.5119H21.6074V5.78631H23.8818V3.5119Z" fill="black"/>
<path d="M30.667 3.5119H28.3926V5.78631H30.667V3.5119Z" fill="black"/>
<path d="M35.1914 3.5119H32.917V5.78631H35.1914V3.5119Z" fill="black"/>
<path d="M48.7627 3.5119H46.4883V5.78631H48.7627V3.5119Z" fill="black"/>
<path d="M3.5244 5.7738H1.25V8.04821H3.5244V5.7738Z" fill="black"/>
<path d="M8.04784 5.7738H5.77344V8.04821H8.04784V5.7738Z" fill="black"/>
<path d="M10.3105 5.7738H8.03613V8.04821H10.3105V5.7738Z" fill="black"/>
<path d="M12.5723 5.7738H10.2979V8.04821H12.5723V5.7738Z" fill="black"/>
<path d="M17.0957 5.7738H14.8213V8.04821H17.0957V5.7738Z" fill="black"/>
<path d="M21.6201 5.7738H19.3457V8.04821H21.6201V5.7738Z" fill="black"/>
<path d="M26.1435 5.7738H23.8691V8.04821H26.1435V5.7738Z" fill="black"/>
<path d="M30.667 5.7738H28.3926V8.04821H30.667V5.7738Z" fill="black"/>
<path d="M35.1914 5.7738H32.917V8.04821H35.1914V5.7738Z" fill="black"/>
<path d="M39.7148 5.7738H37.4404V8.04821H39.7148V5.7738Z" fill="black"/>
<path d="M41.9766 5.7738H39.7021V8.04821H41.9766V5.7738Z" fill="black"/>
<path d="M44.2383 5.7738H41.9639V8.04821H44.2383V5.7738Z" fill="black"/>
<path d="M48.7627 5.7738H46.4883V8.04821H48.7627V5.7738Z" fill="black"/>
<path d="M3.5244 8.03571H1.25V10.3101H3.5244V8.03571Z" fill="black"/>
<path d="M8.04784 8.03571H5.77344V10.3101H8.04784V8.03571Z" fill="black"/>
<path d="M10.3105 8.03571H8.03613V10.3101H10.3105V8.03571Z" fill="black"/>
<path d="M12.5723 8.03571H10.2979V10.3101H12.5723V8.03571Z" fill="black"/>
<path d="M17.0957 8.03571H14.8213V10.3101H17.0957V8.03571Z" fill="black"/>
<path d="M21.6201 8.03571H19.3457V10.3101H21.6201V8.03571Z" fill="black"/>
<path d="M28.4053 8.03571H26.1309V10.3101H28.4053V8.03571Z" fill="black"/>
<path d="M35.1914 8.03571H32.917V10.3101H35.1914V8.03571Z" fill="black"/>
<path d="M39.7148 8.03571H37.4404V10.3101H39.7148V8.03571Z" fill="black"/>
<path d="M41.9766 8.03571H39.7021V10.3101H41.9766V8.03571Z" fill="black"/>
<path d="M44.2383 8.03571H41.9639V10.3101H44.2383V8.03571Z" fill="black"/>
<path d="M48.7627 8.03571H46.4883V10.3101H48.7627V8.03571Z" fill="black"/>
<path d="M3.5244 10.2976H1.25V12.572H3.5244V10.2976Z" fill="black"/>
<path d="M8.04784 10.2976H5.77344V12.572H8.04784V10.2976Z" fill="black"/>
<path d="M10.3105 10.2976H8.03613V12.572H10.3105V10.2976Z" fill="black"/>
<path d="M12.5723 10.2976H10.2979V12.572H12.5723V10.2976Z" fill="black"/>
<path d="M17.0957 10.2976H14.8213V12.572H17.0957V10.2976Z" fill="black"/>
<path d="M21.6201 10.2976H19.3457V12.572H21.6201V10.2976Z" fill="black"/>
<path d="M23.8818 10.2976H21.6074V12.572H23.8818V10.2976Z" fill="black"/>
<path d="M26.1435 10.2976H23.8691V12.572H26.1435V10.2976Z" fill="black"/>
<path d="M28.4053 10.2976H26.1309V12.572H28.4053V10.2976Z" fill="black"/>
<path d="M35.1914 10.2976H32.917V12.572H35.1914V10.2976Z" fill="black"/>
<path d="M39.7148 10.2976H37.4404V12.572H39.7148V10.2976Z" fill="black"/>
<path d="M41.9766 10.2976H39.7021V12.572H41.9766V10.2976Z" fill="black"/>
<path d="M44.2383 10.2976H41.9639V12.572H44.2383V10.2976Z" fill="black"/>
<path d="M48.7627 10.2976H46.4883V12.572H48.7627V10.2976Z" fill="black"/>
<path d="M3.5244 12.5595H1.25V14.8339H3.5244V12.5595Z" fill="black"/>
<path d="M17.0957 12.5595H14.8213V14.8339H17.0957V12.5595Z" fill="black"/>
<path d="M35.1914 12.5595H32.917V14.8339H35.1914V12.5595Z" fill="black"/>
<path d="M48.7627 12.5595H46.4883V14.8339H48.7627V12.5595Z" fill="black"/>
<path d="M3.5244 14.8214H1.25V17.0958H3.5244V14.8214Z" fill="black"/>
<path d="M5.78612 14.8214H3.51172V17.0958H5.78612V14.8214Z" fill="black"/>
<path d="M8.04784 14.8214H5.77344V17.0958H8.04784V14.8214Z" fill="black"/>
<path d="M10.3105 14.8214H8.03613V17.0958H10.3105V14.8214Z" fill="black"/>
<path d="M12.5723 14.8214H10.2979V17.0958H12.5723V14.8214Z" fill="black"/>
<path d="M14.834 14.8214H12.5596V17.0958H14.834V14.8214Z" fill="black"/>
<path d="M17.0957 14.8214H14.8213V17.0958H17.0957V14.8214Z" fill="black"/>
<path d="M21.6201 14.8214H19.3457V17.0958H21.6201V14.8214Z" fill="black"/>
<path d="M26.1435 14.8214H23.8691V17.0958H26.1435V14.8214Z" fill="black"/>
<path d="M30.667 14.8214H28.3926V17.0958H30.667V14.8214Z" fill="black"/>
<path d="M35.1914 14.8214H32.917V17.0958H35.1914V14.8214Z" fill="black"/>
<path d="M37.4531 14.8214H35.1787V17.0958H37.4531V14.8214Z" fill="black"/>
<path d="M39.7148 14.8214H37.4404V17.0958H39.7148V14.8214Z" fill="black"/>
<path d="M41.9766 14.8214H39.7021V17.0958H41.9766V14.8214Z" fill="black"/>
<path d="M44.2383 14.8214H41.9639V17.0958H44.2383V14.8214Z" fill="black"/>
<path d="M46.501 14.8214H44.2266V17.0958H46.501V14.8214Z" fill="black"/>
<path d="M48.7627 14.8214H46.4883V17.0958H48.7627V14.8214Z" fill="black"/>
<path d="M23.8818 17.0833H21.6074V19.3577H23.8818V17.0833Z" fill="black"/>
<path d="M26.1435 17.0833H23.8691V19.3577H26.1435V17.0833Z" fill="black"/>
<path d="M28.4053 17.0833H26.1309V19.3577H28.4053V17.0833Z" fill="black"/>
<path d="M3.5244 19.3452H1.25V21.6196H3.5244V19.3452Z" fill="black"/>
<path d="M5.78612 19.3452H3.51172V21.6196H5.78612V19.3452Z" fill="black"/>
<path d="M8.04784 19.3452H5.77344V21.6196H8.04784V19.3452Z" fill="black"/>
<path d="M10.3105 19.3452H8.03613V21.6196H10.3105V19.3452Z" fill="black"/>
<path d="M17.0957 19.3452H14.8213V21.6196H17.0957V19.3452Z" fill="black"/>
<path d="M21.6201 19.3452H19.3457V21.6196H21.6201V19.3452Z" fill="black"/>
<path d="M26.1435 19.3452H23.8691V21.6196H26.1435V19.3452Z" fill="black"/>
<path d="M32.9287 19.3452H30.6543V21.6196H32.9287V19.3452Z" fill="black"/>
<path d="M39.7148 19.3452H37.4404V21.6196H39.7148V19.3452Z" fill="black"/>
<path d="M41.9766 19.3452H39.7021V21.6196H41.9766V19.3452Z" fill="black"/>
<path d="M44.2383 19.3452H41.9639V21.6196H44.2383V19.3452Z" fill="black"/>
<path d="M48.7627 19.3452H46.4883V21.6196H48.7627V19.3452Z" fill="black"/>
<path d="M3.5244 21.6071H1.25V23.8815H3.5244V21.6071Z" fill="black"/>
<path d="M14.834 21.6071H12.5596V23.8815H14.834V21.6071Z" fill="black"/>
<path d="M26.1435 21.6071H23.8691V23.8815H26.1435V21.6071Z" fill="black"/>
<path d="M28.4053 21.6071H26.1309V23.8815H28.4053V21.6071Z" fill="black"/>
<path d="M39.7148 21.6071H37.4404V23.8815H39.7148V21.6071Z" fill="black"/>
<path d="M44.2383 21.6071H41.9639V23.8815H44.2383V21.6071Z" fill="black"/>
<path d="M46.501 21.6071H44.2266V23.8815H46.501V21.6071Z" fill="black"/>
<path d="M48.7627 21.6071H46.4883V23.8815H48.7627V21.6071Z" fill="black"/>
<path d="M3.5244 23.869H1.25V26.1434H3.5244V23.869Z" fill="black"/>
<path d="M8.04784 23.869H5.77344V26.1434H8.04784V23.869Z" fill="black"/>
<path d="M10.3105 23.869H8.03613V26.1434H10.3105V23.869Z" fill="black"/>
<path d="M14.834 23.869H12.5596V26.1434H14.834V23.869Z" fill="black"/>
<path d="M17.0957 23.869H14.8213V26.1434H17.0957V23.869Z" fill="black"/>
<path d="M21.6201 23.869H19.3457V26.1434H21.6201V23.869Z" fill="black"/>
<path d="M28.4053 23.869H26.1309V26.1434H28.4053V23.869Z" fill="black"/>
<path d="M35.1914 23.869H32.917V26.1434H35.1914V23.869Z" fill="black"/>
<path d="M41.9766 23.869H39.7021V26.1434H41.9766V23.869Z" fill="black"/>
<path d="M48.7627 23.869H46.4883V26.1434H48.7627V23.869Z" fill="black"/>
<path d="M5.78612 26.131H3.51172V28.4054H5.78612V26.131Z" fill="black"/>
<path d="M12.5723 26.131H10.2979V28.4054H12.5723V26.131Z" fill="black"/>
<path d="M14.834 26.131H12.5596V28.4054H14.834V26.131Z" fill="black"/>
<path d="M19.3574 26.131H17.083V28.4054H19.3574V26.131Z" fill="black"/>
<path d="M23.8818 26.131H21.6074V28.4054H23.8818V26.131Z" fill="black"/>
<path d="M32.9287 26.131H30.6543V28.4054H32.9287V26.131Z" fill="black"/>
<path d="M39.7148 26.131H37.4404V28.4054H39.7148V26.131Z" fill="black"/>
<path d="M3.5244 28.3929H1.25V30.6673H3.5244V28.3929Z" fill="black"/>
<path d="M5.78612 28.3929H3.51172V30.6673H5.78612V28.3929Z" fill="black"/>
<path d="M10.3105 28.3929H8.03613V30.6673H10.3105V28.3929Z" fill="black"/>
<path d="M14.834 28.3929H12.5596V30.6673H14.834V28.3929Z" fill="black"/>
<path d="M17.0957 28.3929H14.8213V30.6673H17.0957V28.3929Z" fill="black"/>
<path d="M21.6201 28.3929H19.3457V30.6673H21.6201V28.3929Z" fill="black"/>
<path d="M23.8818 28.3929H21.6074V30.6673H23.8818V28.3929Z" fill="black"/>
<path d="M30.667 28.3929H28.3926V30.6673H30.667V28.3929Z" fill="black"/>
<path d="M32.9287 28.3929H30.6543V30.6673H32.9287V28.3929Z" fill="black"/>
<path d="M35.1914 28.3929H32.917V30.6673H35.1914V28.3929Z" fill="black"/>
<path d="M37.4531 28.3929H35.1787V30.6673H37.4531V28.3929Z" fill="black"/>
<path d="M41.9766 28.3929H39.7021V30.6673H41.9766V28.3929Z" fill="black"/>
<path d="M21.6201 30.6548H19.3457V32.9292H21.6201V30.6548Z" fill="black"/>
<path d="M23.8818 30.6548H21.6074V32.9292H23.8818V30.6548Z" fill="black"/>
<path d="M26.1435 30.6548H23.8691V32.9292H26.1435V30.6548Z" fill="black"/>
<path d="M30.667 30.6548H28.3926V32.9292H30.667V30.6548Z" fill="black"/>
<path d="M35.1914 30.6548H32.917V32.9292H35.1914V30.6548Z" fill="black"/>
<path d="M37.4531 30.6548H35.1787V32.9292H37.4531V30.6548Z" fill="black"/>
<path d="M39.7148 30.6548H37.4404V32.9292H39.7148V30.6548Z" fill="black"/>
<path d="M41.9766 30.6548H39.7021V32.9292H41.9766V30.6548Z" fill="black"/>
<path d="M48.7627 30.6548H46.4883V32.9292H48.7627V30.6548Z" fill="black"/>
<path d="M3.5244 32.9167H1.25V35.1911H3.5244V32.9167Z" fill="black"/>
<path d="M5.78612 32.9167H3.51172V35.1911H5.78612V32.9167Z" fill="black"/>
<path d="M8.04784 32.9167H5.77344V35.1911H8.04784V32.9167Z" fill="black"/>
<path d="M10.3105 32.9167H8.03613V35.1911H10.3105V32.9167Z" fill="black"/>
<path d="M12.5723 32.9167H10.2979V35.1911H12.5723V32.9167Z" fill="black"/>
<path d="M14.834 32.9167H12.5596V35.1911H14.834V32.9167Z" fill="black"/>
<path d="M17.0957 32.9167H14.8213V35.1911H17.0957V32.9167Z" fill="black"/>
<path d="M26.1435 32.9167H23.8691V35.1911H26.1435V32.9167Z" fill="black"/>
<path d="M32.9287 32.9167H30.6543V35.1911H32.9287V32.9167Z" fill="black"/>
<path d="M39.7148 32.9167H37.4404V35.1911H39.7148V32.9167Z" fill="black"/>
<path d="M3.5244 35.1786H1.25V37.453H3.5244V35.1786Z" fill="black"/>
<path d="M17.0957 35.1786H14.8213V37.453H17.0957V35.1786Z" fill="black"/>
<path d="M30.667 35.1786H28.3926V37.453H30.667V35.1786Z" fill="black"/>
<path d="M37.4531 35.1786H35.1787V37.453H37.4531V35.1786Z" fill="black"/>
<path d="M39.7148 35.1786H37.4404V37.453H39.7148V35.1786Z" fill="black"/>
<path d="M44.2383 35.1786H41.9639V37.453H44.2383V35.1786Z" fill="black"/>
<path d="M48.7627 35.1786H46.4883V37.453H48.7627V35.1786Z" fill="black"/>
<path d="M3.5244 37.4405H1.25V39.7149H3.5244V37.4405Z" fill="black"/>
<path d="M8.04784 37.4405H5.77344V39.7149H8.04784V37.4405Z" fill="black"/>
<path d="M10.3105 37.4405H8.03613V39.7149H10.3105V37.4405Z" fill="black"/>
<path d="M12.5723 37.4405H10.2979V39.7149H12.5723V37.4405Z" fill="black"/>
<path d="M17.0957 37.4405H14.8213V39.7149H17.0957V37.4405Z" fill="black"/>
<path d="M23.8818 37.4405H21.6074V39.7149H23.8818V37.4405Z" fill="black"/>
<path d="M28.4053 37.4405H26.1309V39.7149H28.4053V37.4405Z" fill="black"/>
<path d="M44.2383 37.4405H41.9639V39.7149H44.2383V37.4405Z" fill="black"/>
<path d="M46.501 37.4405H44.2266V39.7149H46.501V37.4405Z" fill="black"/>
<path d="M3.5244 39.7024H1.25V41.9768H3.5244V39.7024Z" fill="black"/>
<path d="M8.04784 39.7024H5.77344V41.9768H8.04784V39.7024Z" fill="black"/>
<path d="M10.3105 39.7024H8.03613V41.9768H10.3105V39.7024Z" fill="black"/>
<path d="M12.5723 39.7024H10.2979V41.9768H12.5723V39.7024Z" fill="black"/>
<path d="M17.0957 39.7024H14.8213V41.9768H17.0957V39.7024Z" fill="black"/>
<path d="M21.6201 39.7024H19.3457V41.9768H21.6201V39.7024Z" fill="black"/>
<path d="M28.4053 39.7024H26.1309V41.9768H28.4053V39.7024Z" fill="black"/>
<path d="M30.667 39.7024H28.3926V41.9768H30.667V39.7024Z" fill="black"/>
<path d="M35.1914 39.7024H32.917V41.9768H35.1914V39.7024Z" fill="black"/>
<path d="M39.7148 39.7024H37.4404V41.9768H39.7148V39.7024Z" fill="black"/>
<path d="M46.501 39.7024H44.2266V41.9768H46.501V39.7024Z" fill="black"/>
<path d="M3.5244 41.9643H1.25V44.2387H3.5244V41.9643Z" fill="black"/>
<path d="M8.04784 41.9643H5.77344V44.2387H8.04784V41.9643Z" fill="black"/>
<path d="M10.3105 41.9643H8.03613V44.2387H10.3105V41.9643Z" fill="black"/>
<path d="M12.5723 41.9643H10.2979V44.2387H12.5723V41.9643Z" fill="black"/>
<path d="M17.0957 41.9643H14.8213V44.2387H17.0957V41.9643Z" fill="black"/>
<path d="M21.6201 41.9643H19.3457V44.2387H21.6201V41.9643Z" fill="black"/>
<path d="M23.8818 41.9643H21.6074V44.2387H23.8818V41.9643Z" fill="black"/>
<path d="M26.1435 41.9643H23.8691V44.2387H26.1435V41.9643Z" fill="black"/>
<path d="M30.667 41.9643H28.3926V44.2387H30.667V41.9643Z" fill="black"/>
<path d="M32.9287 41.9643H30.6543V44.2387H32.9287V41.9643Z" fill="black"/>
<path d="M44.2383 41.9643H41.9639V44.2387H44.2383V41.9643Z" fill="black"/>
<path d="M3.5244 44.2262H1.25V46.5006H3.5244V44.2262Z" fill="black"/>
<path d="M17.0957 44.2262H14.8213V46.5006H17.0957V44.2262Z" fill="black"/>
<path d="M21.6201 44.2262H19.3457V46.5006H21.6201V44.2262Z" fill="black"/>
<path d="M23.8818 44.2262H21.6074V46.5006H23.8818V44.2262Z" fill="black"/>
<path d="M26.1435 44.2262H23.8691V46.5006H26.1435V44.2262Z" fill="black"/>
<path d="M30.667 44.2262H28.3926V46.5006H30.667V44.2262Z" fill="black"/>
<path d="M32.9287 44.2262H30.6543V46.5006H32.9287V44.2262Z" fill="black"/>
<path d="M35.1914 44.2262H32.917V46.5006H35.1914V44.2262Z" fill="black"/>
<path d="M37.4531 44.2262H35.1787V46.5006H37.4531V44.2262Z" fill="black"/>
<path d="M41.9766 44.2262H39.7021V46.5006H41.9766V44.2262Z" fill="black"/>
<path d="M48.7627 44.2262H46.4883V46.5006H48.7627V44.2262Z" fill="black"/>
<path d="M3.5244 46.4881H1.25V48.7625H3.5244V46.4881Z" fill="black"/>
<path d="M5.78612 46.4881H3.51172V48.7625H5.78612V46.4881Z" fill="black"/>
<path d="M8.04784 46.4881H5.77344V48.7625H8.04784V46.4881Z" fill="black"/>
<path d="M10.3105 46.4881H8.03613V48.7625H10.3105V46.4881Z" fill="black"/>
<path d="M12.5723 46.4881H10.2979V48.7625H12.5723V46.4881Z" fill="black"/>
<path d="M14.834 46.4881H12.5596V48.7625H14.834V46.4881Z" fill="black"/>
<path d="M17.0957 46.4881H14.8213V48.7625H17.0957V46.4881Z" fill="black"/>
<path d="M21.6201 46.4881H19.3457V48.7625H21.6201V46.4881Z" fill="black"/>
<path d="M23.8818 46.4881H21.6074V48.7625H23.8818V46.4881Z" fill="black"/>
<path d="M26.1435 46.4881H23.8691V48.7625H26.1435V46.4881Z" fill="black"/>
<path d="M32.9287 46.4881H30.6543V48.7625H32.9287V46.4881Z" fill="black"/>
<path d="M37.4531 46.4881H35.1787V48.7625H37.4531V46.4881Z" fill="black"/>
<path d="M44.2383 46.4881H41.9639V48.7625H44.2383V46.4881Z" fill="black"/>
</g>
</g>
<defs>
<clipPath id="clip0_1485_11304">
<rect width="50" height="50" fill="white"/>
</clipPath>
<clipPath id="clip1_1485_11304">
<rect width="50" height="50" fill="white"/>
</clipPath>
</defs>
</svg>
