<svg width="25" height="15" viewBox="0 0 25 15" fill="none" xmlns="http://www.w3.org/2000/svg">
<path d="M19.333 0.5H2.667C1.4702 0.5 0.5 1.4702 0.5 2.667V11.666C0.5 12.8628 1.4702 13.833 2.667 13.833H19.333C20.5298 13.833 21.5 12.8628 21.5 11.666V2.667C21.5 1.4702 20.5298 0.5 19.333 0.5Z" stroke="white" stroke-miterlimit="10"/>
<path d="M23 5V9C23.3936 8.8343 23.7295 8.55614 23.9658 8.20038C24.202 7.84461 24.328 7.42705 24.328 7C24.328 6.57295 24.202 6.15539 23.9658 5.79962C23.7295 5.44386 23.3936 5.1657 23 5" fill="white"/>
<path d="M10.667 2H3.333C2.5968 2 2 2.5968 2 3.333V11C2 11.7362 2.5968 12.333 3.333 12.333H10.667C11.4032 12.333 12 11.7362 12 11V3.333C12 2.5968 11.4032 2 10.667 2Z" fill="white"/>
</svg>
