<svg width="39" height="39" viewBox="0 0 39 39" fill="none" xmlns="http://www.w3.org/2000/svg">
<circle cx="19.5" cy="19.5" r="19.5" fill="#F65454" fill-opacity="0.8"/>
<path d="M25.7275 15.5145C25.2059 14.8292 24.4691 14.3391 23.6354 14.1229C22.8017 13.9068 21.9196 13.9771 21.1307 14.3227C20.4246 14.6274 19.7949 15.1411 19.2841 15.8228C18.7734 15.1394 18.1437 14.6257 17.4376 14.3227C16.6487 13.9771 15.7666 13.9068 14.9329 14.1229C14.0992 14.3391 13.3624 14.8292 12.8408 15.5145C12.2907 16.2352 12 17.136 12 18.1191C12 19.5339 12.8438 21.0861 14.5076 22.7343C15.8634 24.0768 17.4656 25.1762 18.2997 25.7119C18.5936 25.9 18.9352 26 19.2841 26C19.6331 26 19.9747 25.9 20.2686 25.7119C21.102 25.1762 22.7048 24.0768 24.0607 22.7343C25.7245 21.0868 26.5683 19.5339 26.5683 18.1191C26.5683 17.136 26.2776 16.2352 25.7275 15.5145Z" fill="white"/>
</svg>
