<svg width="22" height="22" viewBox="0 0 22 22" fill="none" xmlns="http://www.w3.org/2000/svg">
<path fill-rule="evenodd" clip-rule="evenodd" d="M0.666016 4.68527C0.666016 1.67113 0.698289 0.666748 4.68453 0.666748C8.67078 0.666748 8.70305 1.67113 8.70305 4.68527C8.70305 7.6994 8.71577 8.70379 4.68453 8.70379C0.653302 8.70379 0.666016 7.6994 0.666016 4.68527Z" stroke="#2D2A26" stroke-linecap="round" stroke-linejoin="round"/>
<path fill-rule="evenodd" clip-rule="evenodd" d="M13.2949 4.68527C13.2949 1.67113 13.3272 0.666748 17.3134 0.666748C21.2997 0.666748 21.332 1.67113 21.332 4.68527C21.332 7.6994 21.3447 8.70379 17.3134 8.70379C13.2822 8.70379 13.2949 7.6994 13.2949 4.68527Z" stroke="#2D2A26" stroke-linecap="round" stroke-linejoin="round"/>
<path fill-rule="evenodd" clip-rule="evenodd" d="M0.666016 17.3144C0.666016 14.3003 0.698289 13.2959 4.68453 13.2959C8.67078 13.2959 8.70305 14.3003 8.70305 17.3144C8.70305 20.3286 8.71577 21.3329 4.68453 21.3329C0.653302 21.3329 0.666016 20.3286 0.666016 17.3144Z" stroke="#2D2A26" stroke-linecap="round" stroke-linejoin="round"/>
<path fill-rule="evenodd" clip-rule="evenodd" d="M13.2949 17.3144C13.2949 14.3003 13.3272 13.2959 17.3134 13.2959C21.2997 13.2959 21.332 14.3003 21.332 17.3144C21.332 20.3286 21.3447 21.3329 17.3134 21.3329C13.2822 21.3329 13.2949 20.3286 13.2949 17.3144Z" fill="#2D2A26" stroke="#2D2A26" stroke-linecap="round" stroke-linejoin="round"/>
<rect x="14.082" y="14.0835" width="6.75" height="6.75" rx="1.5" fill="#2D2A26" stroke="#2D2A26"/>
</svg>
