<svg width="28" height="28" viewBox="0 0 28 28" fill="none" xmlns="http://www.w3.org/2000/svg">
<path d="M26.9644 13.0456L23.263 8.65876C24.3552 6.23859 24.1768 3.35413 22.7721 1.04638C22.62 0.796427 22.294 0.717225 22.0441 0.869273C21.9001 0.956899 21.8132 1.10227 21.7941 1.25755C20.6029 6.13555 16.8358 9.88823 11.9487 11.0585C9.36364 11.6776 7.00381 12.9982 5.12424 14.8779C3.30046 16.7016 2.00301 18.9776 1.36202 21.4727C1.00755 21.6664 0.660377 21.8751 0.321527 22.0993C0.0775075 22.2607 0.0105427 22.5894 0.171968 22.8334C0.273899 22.9874 0.442424 23.0709 0.614339 23.0709C0.71468 23.0709 0.816187 23.0425 0.906145 22.983C2.2065 22.1228 3.63597 21.5022 5.15481 21.1385C6.90602 20.7192 8.54252 19.9859 10.0189 18.959C10.2591 18.7919 10.3184 18.4617 10.1514 18.2215C9.98433 17.9813 9.65417 17.9221 9.41397 18.0891C8.04643 19.0403 6.53045 19.7196 4.90809 20.1081C4.13137 20.294 3.37664 20.5431 2.64771 20.8516C4.09095 16.4835 7.66123 13.1748 12.1956 12.0889C12.9713 11.9031 13.7265 11.6537 14.4548 11.3454C14.0383 12.6026 13.4397 13.785 12.6665 14.8715C12.4968 15.1098 12.5526 15.4406 12.7909 15.6103C12.8841 15.6766 12.9914 15.7085 13.0977 15.7085C13.2633 15.7085 13.4264 15.6311 13.5298 15.4858C14.5578 14.0413 15.3005 12.4402 15.7409 10.724C16.9395 10.0696 18.0445 9.24507 19.02 8.26958C20.5685 6.72107 21.7372 4.84637 22.4472 2.78853C23.1461 4.64103 23.0605 6.73304 22.165 8.49914C22.0688 8.6889 22.0954 8.91777 22.2326 9.08036L26.139 13.7102L24.6244 14.7066C24.3869 14.8629 24.3151 15.1789 24.4617 15.4225L25.0448 16.3907C25.1848 16.6232 25.2167 16.9045 25.1322 17.1625C25.0477 17.4204 24.8557 17.6284 24.6052 17.7331C24.4372 17.8033 24.3171 17.955 24.2871 18.1346C24.257 18.3143 24.3214 18.4967 24.4575 18.6177C24.6745 18.8108 24.7784 19.0868 24.7425 19.3751C24.7065 19.6633 24.5381 19.9055 24.2798 20.0395L24.2472 20.0565C24.0719 20.1476 23.9619 20.3288 23.9619 20.5264V22.3012C23.9619 23.236 23.2014 23.9965 22.2666 23.9965H19.1571C17.7969 23.9965 16.4732 24.3854 15.3293 25.1213L12.4991 26.9415C12.253 27.0998 12.1818 27.4276 12.3401 27.6737C12.4413 27.8311 12.6119 27.9169 12.7862 27.9169C12.8843 27.9169 12.9836 27.8897 13.0722 27.8326L15.9025 26.0124C16.8751 25.3867 18.0006 25.056 19.1571 25.056H22.2666C23.7857 25.056 25.0215 23.8202 25.0215 22.3012V20.8223C25.4454 20.511 25.7277 20.0366 25.7939 19.5061C25.8441 19.1033 25.7656 18.7013 25.5785 18.3534C25.8347 18.1228 26.0295 17.8272 26.1391 17.492C26.3195 16.9412 26.2514 16.3404 25.9524 15.844L25.632 15.3119L26.7417 14.5818C26.9893 14.4188 27.1558 14.1571 27.1984 13.8637C27.2408 13.5705 27.1556 13.2722 26.9644 13.0456Z" fill="#2D2A26"/>
<path d="M0.353957 10.9167C0.436127 10.9629 0.525343 10.9849 0.613393 10.9849C0.7985 10.9849 0.978256 10.8877 1.07552 10.7149C1.51583 9.9329 1.84525 9.09303 2.05467 8.21857C2.81513 5.04282 5.26035 2.59755 8.4361 1.83709C8.72064 1.76896 8.89611 1.48304 8.82793 1.19849C8.7598 0.913942 8.47366 0.738583 8.18932 0.806661C6.44914 1.22334 4.86052 2.11237 3.59529 3.37766C2.33 4.64299 1.44092 6.23155 1.02424 7.97174C0.837704 8.75063 0.544309 9.49869 0.152268 10.195C0.00864313 10.45 0.0989715 10.7731 0.353957 10.9167Z" fill="#2D2A26"/>
<path d="M11.5552 16.4658C11.4158 16.4658 11.2792 16.522 11.1806 16.6205C11.0821 16.7196 11.0254 16.8557 11.0254 16.9951C11.0254 17.1349 11.0821 17.2711 11.1806 17.3702C11.2792 17.4687 11.4158 17.5254 11.5552 17.5254C11.6945 17.5254 11.8312 17.4687 11.9297 17.3702C12.0283 17.2711 12.085 17.1349 12.085 16.9951C12.085 16.8557 12.0283 16.7196 11.9297 16.6205C11.8312 16.522 11.695 16.4658 11.5552 16.4658Z" fill="#2D2A26"/>
</svg>
