<svg width="28" height="28" viewBox="0 0 28 28" fill="none" xmlns="http://www.w3.org/2000/svg">
<path d="M15.3411 27.3031H11.9505C11.1594 27.3031 10.2552 26.6249 10.2552 25.2687V22.8952C10.2552 21.765 9.6901 20.7479 8.78594 19.9567C6.75156 18.3744 5.73438 16.114 5.73438 13.6275C5.8474 9.33275 9.35104 5.94212 13.5328 5.8291C15.6802 5.8291 17.7146 6.62025 19.1839 8.08952C20.6531 9.55879 21.5573 11.5932 21.5573 13.7406C21.5573 16.114 20.5401 18.3744 18.6187 19.8437C17.6016 20.6348 17.0365 21.8781 17.0365 23.0083V25.6077C17.0365 26.5119 16.2453 27.3031 15.3411 27.3031ZM13.6458 6.95931C10.0292 6.95931 6.9776 10.0109 6.86458 13.6275C6.86458 15.7749 7.76875 17.8093 9.46406 19.0525C10.7073 20.0697 11.3854 21.426 11.3854 22.8952V25.2687C11.3854 25.4947 11.3854 26.1728 11.9505 26.1728H15.3411C15.6802 26.1728 15.9062 25.9468 15.9062 25.6077V23.0083C15.9062 21.539 16.6974 19.9567 17.9406 18.9395C19.5229 17.6963 20.4271 15.7749 20.4271 13.7406C20.4271 11.9322 19.749 10.2369 18.3927 8.88066C17.1495 7.63743 15.4542 6.95931 13.6458 6.95931Z" fill="black"/>
<path d="M16.472 23.9124H10.821C10.4819 23.9124 10.2559 23.6864 10.2559 23.3473C10.2559 23.0083 10.4819 22.7822 10.821 22.7822H16.472C16.8111 22.7822 17.0371 23.0083 17.0371 23.3473C17.0371 23.6864 16.8111 23.9124 16.472 23.9124Z" fill="black"/>
<path d="M13.6471 3.56836C13.3081 3.56836 13.082 3.34232 13.082 3.00326V0.742839C13.082 0.403776 13.3081 0.177734 13.6471 0.177734C13.9862 0.177734 14.2122 0.403776 14.2122 0.742839V3.00326C14.2122 3.34232 13.9862 3.56836 13.6471 3.56836Z" fill="black"/>
<path d="M21.2193 6.73119C21.1063 6.73119 20.8802 6.73118 20.7672 6.61816C20.5411 6.39212 20.5411 6.05306 20.7672 5.82702L22.3495 4.24473C22.5755 4.01868 22.9146 4.01868 23.1406 4.24473C23.3667 4.47077 23.3667 4.80983 23.1406 5.03587L21.5583 6.61816C21.5583 6.61816 21.3323 6.73119 21.2193 6.73119Z" fill="black"/>
<path d="M26.6439 14.305H24.3835C24.0444 14.305 23.8184 14.079 23.8184 13.7399C23.8184 13.4008 24.0444 13.1748 24.3835 13.1748H26.6439C26.9829 13.1748 27.209 13.4008 27.209 13.7399C27.209 14.079 26.9829 14.305 26.6439 14.305Z" fill="black"/>
<path d="M22.8016 23.4597C22.6885 23.4597 22.4625 23.4597 22.3495 23.3467L20.7672 21.7644C20.5411 21.5383 20.5411 21.1993 20.7672 20.9732C20.9932 20.7472 21.3323 20.7472 21.5583 20.9732L23.1406 22.5555C23.3667 22.7816 23.3667 23.1206 23.1406 23.3467C23.1406 23.4597 23.0276 23.4597 22.8016 23.4597Z" fill="black"/>
<path d="M4.49271 23.4597C4.37969 23.4597 4.15365 23.4597 4.04063 23.3467C3.81458 23.1206 3.81458 22.7816 4.04063 22.5555L5.62292 20.9732C5.84896 20.7472 6.18802 20.7472 6.41406 20.9732C6.6401 21.1993 6.6401 21.5383 6.41406 21.7644L4.83177 23.3467C4.71875 23.4597 4.60573 23.4597 4.49271 23.4597Z" fill="black"/>
<path d="M2.90951 14.305H0.649089C0.310026 14.305 0.0839844 14.079 0.0839844 13.7399C0.0839844 13.4008 0.310026 13.1748 0.649089 13.1748H2.90951C3.24857 13.1748 3.47461 13.4008 3.47461 13.7399C3.47461 14.079 3.24857 14.305 2.90951 14.305Z" fill="black"/>
<path d="M6.075 6.73385C5.96198 6.73385 5.73594 6.73385 5.62292 6.62083L4.04063 4.92552C3.81458 4.69948 3.81458 4.36042 4.04063 4.13437C4.26667 3.90833 4.60573 3.90833 4.83177 4.13437L6.41406 5.71667C6.6401 5.94271 6.6401 6.28177 6.41406 6.50781C6.30104 6.62083 6.18802 6.73385 6.075 6.73385Z" fill="black"/>
<path d="M18.168 14.3053C17.8289 14.3053 17.6029 14.0793 17.6029 13.7402C17.6029 11.5928 15.7945 9.78451 13.6471 9.78451C13.3081 9.78451 13.082 9.55846 13.082 9.2194C13.082 8.88034 13.3081 8.6543 13.6471 8.6543C16.4727 8.6543 18.7331 10.9147 18.7331 13.7402C18.7331 14.0793 18.507 14.3053 18.168 14.3053Z" fill="black"/>
</svg>
