<svg width="56" height="56" viewBox="0 0 56 56" fill="none" xmlns="http://www.w3.org/2000/svg">
<g opacity="0.7">
<path d="M56 28C56 49.624 49.064 56 28 56C6.37603 56 0 49.624 0 28C0 6.37603 6.37603 0 28 0C49.064 0 56 6.37603 56 28Z" fill="white"/>
<path fill-rule="evenodd" clip-rule="evenodd" d="M32.577 38.3681H23.753C20.312 38.3681 18 35.9531 18 32.3591V24.0451C18 20.4511 20.312 18.0361 23.753 18.0361H27.492C27.906 18.0361 28.242 18.3721 28.242 18.7861C28.242 19.2001 27.906 19.5361 27.492 19.5361H23.753C21.169 19.5361 19.5 21.3061 19.5 24.0451V32.3591C19.5 35.0981 21.169 36.8681 23.753 36.8681H32.577C35.161 36.8681 36.831 35.0981 36.831 32.3591V28.3311C36.831 27.9171 37.167 27.5811 37.581 27.5811C37.995 27.5811 38.331 27.9171 38.331 28.3311V32.3591C38.331 35.9531 36.018 38.3681 32.577 38.3681Z" fill="#2D2A26"/>
<path fill-rule="evenodd" clip-rule="evenodd" d="M24.8669 31.428H27.8439C28.2239 31.428 28.5799 31.281 28.8489 31.012L36.3579 23.503C36.6659 23.195 36.8359 22.785 36.8359 22.349C36.8359 21.912 36.6659 21.501 36.3579 21.193L35.1409 19.976C34.5039 19.341 33.4679 19.341 32.8299 19.976L25.3569 27.449C25.0979 27.708 24.9509 28.052 24.9419 28.417L24.8669 31.428ZM27.8439 32.928H24.0979C23.8959 32.928 23.7019 32.846 23.5609 32.701C23.4199 32.557 23.3429 32.362 23.3479 32.159L23.4419 28.38C23.4609 27.628 23.7639 26.921 24.2959 26.388H24.2969L31.7699 18.915C32.9919 17.695 34.9789 17.695 36.2009 18.915L37.4179 20.132C38.0109 20.724 38.3369 21.511 38.3359 22.349C38.3359 23.187 38.0099 23.973 37.4179 24.564L29.9089 32.073C29.3579 32.624 28.6239 32.928 27.8439 32.928Z" fill="#2D2A26"/>
<path fill-rule="evenodd" clip-rule="evenodd" d="M35.7318 25.9164C35.5398 25.9164 35.3478 25.8434 35.2018 25.6964L30.6358 21.1304C30.3428 20.8374 30.3428 20.3624 30.6358 20.0694C30.9288 19.7764 31.4028 19.7764 31.6958 20.0694L36.2618 24.6364C36.5548 24.9294 36.5548 25.4034 36.2618 25.6964C36.1158 25.8434 35.9238 25.9164 35.7318 25.9164Z" fill="#2D2A26"/>
</g>
</svg>
