<svg width="21" height="21" viewBox="0 0 21 21" fill="none" xmlns="http://www.w3.org/2000/svg">
<path fill-rule="evenodd" clip-rule="evenodd" d="M14.577 20.3681H5.753C2.312 20.3681 0 17.9531 0 14.3591V6.04513C0 2.45113 2.312 0.0361328 5.753 0.0361328H9.492C9.906 0.0361328 10.242 0.372133 10.242 0.786133C10.242 1.20013 9.906 1.53613 9.492 1.53613H5.753C3.169 1.53613 1.5 3.30613 1.5 6.04513V14.3591C1.5 17.0981 3.169 18.8681 5.753 18.8681H14.577C17.161 18.8681 18.831 17.0981 18.831 14.3591V10.3311C18.831 9.91713 19.167 9.58113 19.581 9.58113C19.995 9.58113 20.331 9.91713 20.331 10.3311V14.3591C20.331 17.9531 18.018 20.3681 14.577 20.3681Z" fill="#2D2A26"/>
<path fill-rule="evenodd" clip-rule="evenodd" d="M6.86689 13.428H9.84389C10.2239 13.428 10.5799 13.281 10.8489 13.012L18.3579 5.503C18.6659 5.195 18.8359 4.785 18.8359 4.349C18.8359 3.912 18.6659 3.501 18.3579 3.193L17.1409 1.976C16.5039 1.341 15.4679 1.341 14.8299 1.976L7.35689 9.449C7.09789 9.708 6.95089 10.052 6.94189 10.417L6.86689 13.428ZM9.84389 14.928H6.09789C5.89589 14.928 5.70189 14.846 5.56089 14.701C5.41989 14.557 5.34289 14.362 5.34789 14.159L5.44189 10.38C5.46089 9.628 5.76389 8.921 6.29589 8.388H6.29689L13.7699 0.915C14.9919 -0.305 16.9789 -0.305 18.2009 0.915L19.4179 2.132C20.0109 2.724 20.3369 3.511 20.3359 4.349C20.3359 5.187 20.0099 5.973 19.4179 6.564L11.9089 14.073C11.3579 14.624 10.6239 14.928 9.84389 14.928Z" fill="#2D2A26"/>
<path fill-rule="evenodd" clip-rule="evenodd" d="M17.7318 7.91636C17.5398 7.91636 17.3478 7.84336 17.2018 7.69636L12.6358 3.13036C12.3428 2.83736 12.3428 2.36236 12.6358 2.06936C12.9288 1.77636 13.4028 1.77636 13.6958 2.06936L18.2618 6.63636C18.5548 6.92936 18.5548 7.40336 18.2618 7.69636C18.1158 7.84336 17.9238 7.91636 17.7318 7.91636Z" fill="#2D2A26"/>
</svg>
