<svg width="25" height="24" viewBox="0 0 25 24" fill="none" xmlns="http://www.w3.org/2000/svg">
<path d="M18.6548 19.5H14.6865" stroke="white" stroke-width="1.5" stroke-linecap="round" stroke-linejoin="round"/>
<path d="M16.6709 21.5V17.5" stroke="white" stroke-width="1.5" stroke-linecap="round" stroke-linejoin="round"/>
<path d="M12.3653 10.87C12.2661 10.86 12.147 10.86 12.0379 10.87C9.6768 10.79 7.8018 8.84 7.8018 6.44C7.79187 3.99 9.76608 2 12.1966 2C14.6272 2 16.6014 3.99 16.6014 6.44C16.6014 8.84 14.7165 10.79 12.3653 10.87Z" stroke="white" stroke-width="1.5" stroke-linecap="round" stroke-linejoin="round"/>
<path d="M12.1966 21.8097C10.3911 21.8097 8.59542 21.3497 7.22638 20.4297C4.82558 18.8097 4.82558 16.1697 7.22638 14.5597C9.95455 12.7197 14.4288 12.7197 17.1569 14.5597" stroke="white" stroke-width="1.5" stroke-linecap="round" stroke-linejoin="round"/>
</svg>
