<svg width="25" height="23" viewBox="0 0 25 23" fill="none" xmlns="http://www.w3.org/2000/svg">
<path fill-rule="evenodd" clip-rule="evenodd" d="M9.70922 15.2314C14.2028 15.2314 18.0434 15.9124 18.0434 18.6324C18.0434 21.3524 14.2284 22.0528 9.70922 22.0528C5.21444 22.0528 1.375 21.378 1.375 18.6567C1.375 15.9355 5.18886 15.2314 9.70922 15.2314Z" stroke="#2D2A26" stroke-linecap="round" stroke-linejoin="round"/>
<path fill-rule="evenodd" clip-rule="evenodd" d="M9.70976 11.3497C6.75953 11.3497 4.36719 8.95858 4.36719 6.00835C4.36719 3.05812 6.75953 0.666992 9.70976 0.666992C12.6588 0.666992 15.0511 3.05812 15.0511 6.00835C15.0621 8.94761 12.6868 11.3387 9.74752 11.3497H9.70976Z" stroke="#2D2A26" stroke-linecap="round" stroke-linejoin="round"/>
<path d="M18.1055 9.96397C20.0556 9.6899 21.5576 8.01623 21.5612 5.99054C21.5612 3.99408 20.1056 2.33746 18.1968 2.02441" stroke="#2D2A26" stroke-linecap="round" stroke-linejoin="round"/>
<path d="M20.6797 14.6533C22.569 14.9347 23.8882 15.5973 23.8882 16.9616C23.8882 17.9008 23.2669 18.5098 22.2632 18.8911" stroke="#2D2A26" stroke-linecap="round" stroke-linejoin="round"/>
</svg>
