<svg width="144" height="100" viewBox="0 0 144 100" fill="none" xmlns="http://www.w3.org/2000/svg">
<g opacity="0.3">
<path fill-rule="evenodd" clip-rule="evenodd" d="M0 43.6848C0 20.9835 17.8023 0.526367 42.3703 0.526367C66.3886 0.526367 84.5714 20.5951 84.5714 43.5554C84.5714 70.1841 63.2594 86.7138 42.2857 86.7138C35.3509 86.7138 27.6549 84.8148 21.4811 81.1032C19.3246 79.7653 17.5063 78.7727 15.1806 79.5495L6.63886 82.139C4.48229 82.8296 2.53714 81.1032 3.17143 78.7727L6.00457 69.1052C6.46971 67.7673 6.38514 66.343 5.70857 65.2209C2.072 58.4019 0 50.9354 0 43.6848ZM56.2653 43.7197C56.2653 46.7408 58.6756 49.244 61.6779 49.244C64.6802 49.244 67.0904 46.7408 67.0904 43.7197C67.0904 40.6554 64.6802 38.1954 61.6779 38.1954C58.6756 38.1954 56.2653 40.6554 56.2653 43.7197ZM36.7757 43.6771C36.7757 46.7413 39.186 49.2014 42.1883 49.2445C45.1906 49.2445 47.6009 46.7413 47.6009 43.7202C47.6009 40.656 45.1906 38.196 42.1883 38.196C39.2283 38.1528 36.7757 40.656 36.7757 43.6771ZM22.7042 49.2468C19.7442 49.2468 17.2917 46.7436 17.2917 43.7225C17.2917 40.6583 19.702 38.1982 22.7042 38.1982C25.7065 38.1982 28.1168 40.6583 28.1168 43.7225C28.1168 46.7436 25.7065 49.2036 22.7042 49.2468Z" fill="#D6D1CA"/>
<path d="M126.519 112.815L127.573 114.515L127.561 114.522L127.549 114.529L126.519 112.815ZM132.819 111.261L132.239 113.175L132.212 113.167L132.186 113.158L132.819 111.261ZM141.361 113.851L141.941 111.937L141.956 111.941L141.971 111.946L141.361 113.851ZM144.829 110.485L146.748 109.922L146.753 109.941L146.758 109.959L144.829 110.485ZM141.995 100.817L143.885 100.16L143.901 100.207L143.915 100.255L141.995 100.817ZM142.291 96.9328L144.056 97.8739L144.031 97.9204L144.004 97.9655L142.291 96.9328ZM105.812 80.9572L105.84 82.957L105.826 82.9572H105.812V80.9572ZM105.812 69.9086L105.841 71.9084L105.826 71.9086H105.812V69.9086ZM125.296 80.9575V82.9575H125.281L125.267 82.9573L125.296 80.9575ZM105.63 30.2383C131.406 30.2383 150 51.6971 150 75.3967H146C146 53.6937 128.99 34.2383 105.63 34.2383V30.2383ZM61.4286 75.2673C61.4286 51.2862 80.4249 30.2383 105.63 30.2383V34.2383C82.7979 34.2383 65.4286 53.3278 65.4286 75.2673H61.4286ZM105.714 120.426C83.7574 120.426 61.4286 103.118 61.4286 75.2673H65.4286C65.4286 100.674 85.7237 116.426 105.714 116.426V120.426ZM127.549 114.529C121.034 118.446 112.975 120.426 105.714 120.426V116.426C112.323 116.426 119.656 114.607 125.488 111.101L127.549 114.529ZM132.186 113.158C130.841 112.709 129.784 113.143 127.573 114.515L125.465 111.116C127.566 109.812 130.147 108.26 133.453 109.364L132.186 113.158ZM140.781 115.765L132.239 113.175L133.4 109.347L141.941 111.937L140.781 115.765ZM146.758 109.959C147.256 111.789 146.763 113.58 145.512 114.757C144.277 115.919 142.483 116.31 140.751 115.756L141.971 111.946C142.396 112.082 142.653 111.955 142.771 111.844C142.873 111.748 143.035 111.511 142.899 111.01L146.758 109.959ZM143.915 100.255L146.748 109.922L142.909 111.047L140.076 101.38L143.915 100.255ZM144.004 97.9655C143.682 98.4997 143.582 99.2905 143.885 100.16L140.106 101.474C139.478 99.6679 139.548 97.6102 140.579 95.9001L144.004 97.9655ZM150 75.3967C150 83.0211 147.824 90.8082 144.056 97.8739L140.527 95.9917C144.032 89.4193 146 82.2736 146 75.3967H150ZM105.783 78.9574C107.671 78.9303 109.224 77.3821 109.224 75.3898H113.224C113.224 79.5259 109.957 82.8978 105.84 82.957L105.783 78.9574ZM102.399 75.4329C102.399 77.3984 103.962 78.9572 105.812 78.9572V82.9572C101.656 82.9572 98.3991 79.5096 98.3991 75.4329H102.399ZM105.812 71.9086C103.952 71.9086 102.399 73.4345 102.399 75.4329H98.3991C98.3991 71.3028 101.667 67.9086 105.812 67.9086V71.9086ZM109.224 75.3898C109.224 73.428 107.629 71.8823 105.841 71.9084L105.783 67.9088C109.914 67.8486 113.224 71.3094 113.224 75.3898H109.224ZM86.3221 78.9566C88.1715 78.9566 89.7347 77.3979 89.7347 75.4324H93.7347C93.7347 79.509 90.4773 82.9566 86.3221 82.9566V78.9566ZM82.9096 75.4324C82.9096 77.3979 84.4728 78.9566 86.3221 78.9566V82.9566C82.1669 82.9566 78.9096 79.509 78.9096 75.4324H82.9096ZM86.3221 71.9081C84.4627 71.9081 82.9096 73.434 82.9096 75.4324H78.9096C78.9096 71.3023 82.1769 67.9081 86.3221 67.9081V71.9081ZM89.7347 75.4324C89.7347 73.434 88.1815 71.9081 86.3221 71.9081V67.9081C90.4673 67.9081 93.7347 71.3023 93.7347 75.4324H89.7347ZM132.708 75.4332C132.708 79.5202 129.399 82.9575 125.296 82.9575V78.9575C127.113 78.9575 128.708 77.3885 128.708 75.4332H132.708ZM125.296 67.909C129.441 67.909 132.708 71.3031 132.708 75.4332H128.708C128.708 73.4348 127.155 71.909 125.296 71.909V67.909ZM117.883 75.4332C117.883 71.3031 121.151 67.909 125.296 67.909V71.909C123.436 71.909 121.883 73.4348 121.883 75.4332H117.883ZM125.267 82.9573C121.16 82.8983 117.883 79.5363 117.883 75.4332H121.883C121.883 77.3723 123.427 78.9304 125.325 78.9577L125.267 82.9573Z" fill="#D6D1CA"/>
</g>
</svg>
