<svg width="31" height="34" viewBox="0 0 31 34" fill="none" xmlns="http://www.w3.org/2000/svg">
<path d="M15.4799 22.7358C21.5043 22.7358 26.881 26.1662 29.1775 31.4754C29.5706 32.3841 29.1524 33.4392 28.2437 33.8323C27.335 34.226 26.2812 33.8072 25.8881 32.8985C24.1592 28.903 20.0746 26.3197 15.4805 26.3197C10.78 26.3197 6.67042 28.9006 5.01199 32.8943C4.72583 33.5831 4.05852 33.9995 3.35655 34.0007C3.12715 34.0007 2.89475 33.9565 2.66952 33.8633C1.75548 33.4828 1.32235 32.4337 1.70171 31.5203C3.91753 26.1829 9.32534 22.7358 15.4799 22.7358ZM1.11564 5.26396C0.457292 5.22035 -0.0409534 4.65101 0.00265797 3.99266C0.0462694 3.3349 0.606048 2.83487 1.27217 2.87967C1.32414 2.88326 6.45714 3.17719 8.38739 0.5151C8.77452 -0.0201847 9.52248 -0.137278 10.056 0.24925C10.5901 0.636376 10.709 1.38374 10.3218 1.91783C8.10123 4.97959 3.51069 5.28248 1.78356 5.28248C1.4042 5.28248 1.16344 5.26755 1.11564 5.26396ZM10.4335 11.563C10.4335 12.3486 10.1874 13.0762 9.77041 13.676C9.09712 12.7506 8.00863 12.146 6.77676 12.146C5.51741 12.146 4.40502 12.7775 3.73591 13.7388C3.29143 13.1276 3.02558 12.3772 3.02558 11.5624C3.02558 9.51682 4.68461 7.85779 6.72957 7.85779C8.77452 7.85779 10.4335 9.51742 10.4335 11.563ZM19.9426 1.89573C19.5555 1.36164 19.6744 0.614271 20.2085 0.227146C20.7426 -0.158785 21.4899 -0.0416917 21.8771 0.492996C23.8067 3.15508 28.9397 2.86115 28.9923 2.85757C29.6584 2.81336 30.2182 3.3134 30.2618 3.97056C30.3048 4.62891 29.8066 5.19825 29.1488 5.24186C29.101 5.24544 28.8603 5.25978 28.4803 5.25978C26.7538 5.26038 22.1632 4.95749 19.9426 1.89573ZM23.5349 7.83569C25.5798 7.83569 27.2389 9.49471 27.2389 11.5403C27.2389 12.3545 26.973 13.1049 26.5291 13.7167C25.86 12.7554 24.7482 12.1239 23.4877 12.1239C22.2558 12.1239 21.1673 12.7285 20.494 13.6539C20.077 13.0541 19.8309 12.3265 19.8309 11.5409C19.8303 9.49531 21.4899 7.83569 23.5349 7.83569ZM2.9981 22.988C0.847404 22.988 0.847405 20.6019 0.847405 20.6019C0.848002 18.5492 3.56864 16.1003 3.56864 16.1003C3.8303 17.7414 4.47671 18.6955 4.47671 18.6955C5.20436 19.781 5.20436 20.7913 5.20436 20.7913C5.20436 23.0077 2.9981 22.988 2.9981 22.988Z" fill="#2D2A26" fill-opacity="0.7"/>
</svg>
