<svg width="22" height="22" viewBox="0 0 22 22" fill="none" xmlns="http://www.w3.org/2000/svg">
<path fill-rule="evenodd" clip-rule="evenodd" d="M0.664063 4.68551C0.664063 1.67138 0.696336 0.666992 4.68258 0.666992C8.66883 0.666992 8.7011 1.67138 8.7011 4.68551C8.7011 7.69964 8.71381 8.70403 4.68258 8.70403C0.651349 8.70403 0.664063 7.69964 0.664063 4.68551Z" stroke="white" stroke-linecap="round" stroke-linejoin="round"/>
<path fill-rule="evenodd" clip-rule="evenodd" d="M13.293 4.68551C13.293 1.67138 13.3252 0.666992 17.3115 0.666992C21.2977 0.666992 21.33 1.67138 21.33 4.68551C21.33 7.69964 21.3427 8.70403 17.3115 8.70403C13.2803 8.70403 13.293 7.69964 13.293 4.68551Z" stroke="white" stroke-linecap="round" stroke-linejoin="round"/>
<path fill-rule="evenodd" clip-rule="evenodd" d="M0.664063 17.3144C0.664063 14.3003 0.696336 13.2959 4.68258 13.2959C8.66883 13.2959 8.7011 14.3003 8.7011 17.3144C8.7011 20.3286 8.71381 21.3329 4.68258 21.3329C0.651349 21.3329 0.664063 20.3286 0.664063 17.3144Z" stroke="white" stroke-linecap="round" stroke-linejoin="round"/>
<path fill-rule="evenodd" clip-rule="evenodd" d="M13.293 17.3144C13.293 14.3003 13.3252 13.2959 17.3115 13.2959C21.2977 13.2959 21.33 14.3003 21.33 17.3144C21.33 20.3286 21.3427 21.3329 17.3115 21.3329C13.2803 21.3329 13.293 20.3286 13.293 17.3144Z" fill="#C68590" stroke="#C68590" stroke-linecap="round" stroke-linejoin="round"/>
<rect x="14.0781" y="14.084" width="6.75" height="6.75" rx="1.5" fill="#C68590" stroke="#C68590"/>
</svg>
