<svg width="28" height="28" viewBox="0 0 28 28" fill="none" xmlns="http://www.w3.org/2000/svg">
<path d="M15.3411 27.3028H11.9505C11.1594 27.3028 10.2552 26.6247 10.2552 25.2684V22.895C10.2552 21.7648 9.6901 20.7476 8.78594 19.9565C6.75156 18.3742 5.73438 16.1138 5.73438 13.6273C5.8474 9.3325 9.35104 5.94188 13.5328 5.82886C15.6802 5.82886 17.7146 6.62 19.1839 8.08927C20.6531 9.55854 21.5573 11.5929 21.5573 13.7403C21.5573 16.1138 20.5401 18.3742 18.6187 19.8434C17.6016 20.6346 17.0365 21.8778 17.0365 23.008V25.6075C17.0365 26.5117 16.2453 27.3028 15.3411 27.3028ZM13.6458 6.95907C10.0292 6.95907 6.9776 10.0106 6.86458 13.6273C6.86458 15.7747 7.76875 17.8091 9.46406 19.0523C10.7073 20.0695 11.3854 21.4257 11.3854 22.895V25.2684C11.3854 25.4945 11.3854 26.1726 11.9505 26.1726H15.3411C15.6802 26.1726 15.9062 25.9466 15.9062 25.6075V23.008C15.9062 21.5388 16.6974 19.9565 17.9406 18.9393C19.5229 17.696 20.4271 15.7747 20.4271 13.7403C20.4271 11.932 19.749 10.2367 18.3927 8.88042C17.1495 7.63719 15.4542 6.95907 13.6458 6.95907Z" fill="white"/>
<path d="M16.472 23.9122H10.821C10.4819 23.9122 10.2559 23.6861 10.2559 23.3471C10.2559 23.008 10.4819 22.782 10.821 22.782H16.472C16.8111 22.782 17.0371 23.008 17.0371 23.3471C17.0371 23.6861 16.8111 23.9122 16.472 23.9122Z" fill="white"/>
<path d="M13.6471 3.56836C13.3081 3.56836 13.082 3.34232 13.082 3.00326V0.742839C13.082 0.403776 13.3081 0.177734 13.6471 0.177734C13.9862 0.177734 14.2122 0.403776 14.2122 0.742839V3.00326C14.2122 3.34232 13.9862 3.56836 13.6471 3.56836Z" fill="#C68590"/>
<path d="M21.2193 6.73143C21.1063 6.73143 20.8802 6.73143 20.7672 6.61841C20.5411 6.39237 20.5411 6.0533 20.7672 5.82726L22.3495 4.24497C22.5755 4.01893 22.9146 4.01893 23.1406 4.24497C23.3667 4.47101 23.3667 4.81008 23.1406 5.03612L21.5583 6.61841C21.5583 6.61841 21.3323 6.73143 21.2193 6.73143Z" fill="#C68590"/>
<path d="M26.6439 14.3055H24.3835C24.0444 14.3055 23.8184 14.0795 23.8184 13.7404C23.8184 13.4013 24.0444 13.1753 24.3835 13.1753H26.6439C26.9829 13.1753 27.209 13.4013 27.209 13.7404C27.209 14.0795 26.9829 14.3055 26.6439 14.3055Z" fill="#C68590"/>
<path d="M22.8016 23.4602C22.6885 23.4602 22.4625 23.4602 22.3495 23.3472L20.7672 21.7649C20.5411 21.5388 20.5411 21.1998 20.7672 20.9737C20.9932 20.7477 21.3323 20.7477 21.5583 20.9737L23.1406 22.556C23.3667 22.7821 23.3667 23.1211 23.1406 23.3472C23.1406 23.4602 23.0276 23.4602 22.8016 23.4602Z" fill="#C68590"/>
<path d="M4.49271 23.4602C4.37969 23.4602 4.15365 23.4602 4.04063 23.3472C3.81458 23.1211 3.81458 22.7821 4.04063 22.556L5.62292 20.9737C5.84896 20.7477 6.18802 20.7477 6.41406 20.9737C6.6401 21.1998 6.6401 21.5388 6.41406 21.7649L4.83177 23.3472C4.71875 23.4602 4.60573 23.4602 4.49271 23.4602Z" fill="#C68590"/>
<path d="M2.90951 14.3055H0.649089C0.310026 14.3055 0.0839844 14.0795 0.0839844 13.7404C0.0839844 13.4013 0.310026 13.1753 0.649089 13.1753H2.90951C3.24857 13.1753 3.47461 13.4013 3.47461 13.7404C3.47461 14.0795 3.24857 14.3055 2.90951 14.3055Z" fill="#C68590"/>
<path d="M6.075 6.73337C5.96198 6.73337 5.73594 6.73337 5.62292 6.62034L4.04063 4.92503C3.81458 4.69899 3.81458 4.35993 4.04063 4.13389C4.26667 3.90785 4.60573 3.90785 4.83177 4.13389L6.41406 5.71618C6.6401 5.94222 6.6401 6.28128 6.41406 6.50732C6.30104 6.62034 6.18802 6.73337 6.075 6.73337Z" fill="#C68590"/>
<path d="M18.168 14.3053C17.8289 14.3053 17.6029 14.0793 17.6029 13.7402C17.6029 11.5928 15.7945 9.78451 13.6471 9.78451C13.3081 9.78451 13.082 9.55846 13.082 9.2194C13.082 8.88034 13.3081 8.6543 13.6471 8.6543C16.4727 8.6543 18.7331 10.9147 18.7331 13.7402C18.7331 14.0793 18.507 14.3053 18.168 14.3053Z" fill="white"/>
</svg>
