<svg width="28" height="28" viewBox="0 0 28 28" fill="none" xmlns="http://www.w3.org/2000/svg">
<path d="M26.9644 13.0454L23.263 8.65852C24.3552 6.23835 24.1768 3.35388 22.7721 1.04614C22.62 0.796183 22.294 0.71698 22.0441 0.869029C21.9001 0.956655 21.8132 1.10203 21.7941 1.25731C20.6029 6.13531 16.8358 9.88799 11.9487 11.0583C9.36364 11.6773 7.00381 12.998 5.12424 14.8776C3.30046 16.7013 2.00301 18.9774 1.36202 21.4724C1.00755 21.6662 0.660377 21.8749 0.321527 22.099C0.0775075 22.2605 0.0105427 22.5892 0.171968 22.8332C0.273899 22.9872 0.442424 23.0707 0.614339 23.0707C0.71468 23.0707 0.816187 23.0422 0.906145 22.9827C2.2065 22.1225 3.63597 21.502 5.15481 21.1382C6.90602 20.7189 8.54252 19.9856 10.0189 18.9588C10.2591 18.7917 10.3184 18.4615 10.1514 18.2213C9.98433 17.9811 9.65417 17.9219 9.41397 18.0889C8.04643 19.0401 6.53045 19.7193 4.90809 20.1078C4.13137 20.2938 3.37664 20.5428 2.64771 20.8513C4.09095 16.4833 7.66123 13.1745 12.1956 12.0886C12.9713 11.9029 13.7265 11.6534 14.4548 11.3452C14.0383 12.6024 13.4397 13.7848 12.6665 14.8713C12.4968 15.1096 12.5526 15.4404 12.7909 15.61C12.8841 15.6764 12.9914 15.7083 13.0977 15.7083C13.2633 15.7083 13.4264 15.6308 13.5298 15.4856C14.5578 14.0411 15.3005 12.44 15.7409 10.7238C16.9395 10.0693 18.0445 9.24483 19.02 8.26934C20.5685 6.72083 21.7372 4.84613 22.4472 2.78828C23.1461 4.64078 23.0605 6.7328 22.165 8.49889C22.0688 8.68866 22.0954 8.91753 22.2326 9.08012L26.139 13.7099L24.6244 14.7063C24.3869 14.8626 24.3151 15.1786 24.4617 15.4222L25.0448 16.3905C25.1848 16.623 25.2167 16.9043 25.1322 17.1622C25.0477 17.4202 24.8557 17.6282 24.6052 17.7328C24.4372 17.8031 24.3171 17.9547 24.2871 18.1344C24.257 18.314 24.3214 18.4964 24.4575 18.6175C24.6745 18.8106 24.7784 19.0865 24.7425 19.3749C24.7065 19.6631 24.5381 19.9052 24.2798 20.0393L24.2472 20.0562C24.0719 20.1474 23.9619 20.3286 23.9619 20.5262V22.301C23.9619 23.2358 23.2014 23.9963 22.2666 23.9963H19.1571C17.7969 23.9963 16.4732 24.3852 15.3293 25.121L12.4991 26.9413C12.253 27.0995 12.1818 27.4274 12.3401 27.6734C12.4413 27.8309 12.6119 27.9167 12.7862 27.9167C12.8843 27.9167 12.9836 27.8895 13.0722 27.8324L15.9025 26.0121C16.8751 25.3865 18.0006 25.0558 19.1571 25.0558H22.2666C23.7857 25.0558 25.0215 23.82 25.0215 22.3009V20.8221C25.4454 20.5108 25.7277 20.0364 25.7939 19.5059C25.8441 19.103 25.7656 18.701 25.5785 18.3531C25.8347 18.1225 26.0295 17.8269 26.1391 17.4917C26.3195 16.9409 26.2514 16.3402 25.9524 15.8437L25.632 15.3116L26.7417 14.5816C26.9893 14.4186 27.1558 14.1569 27.1984 13.8635C27.2408 13.5703 27.1556 13.272 26.9644 13.0454Z" fill="white"/>
<path d="M23.2631 8.65852L26.9645 13.0454C27.1557 13.272 27.2409 13.5703 27.1984 13.8635C27.1558 14.1569 26.9894 14.4186 26.7417 14.5816L25.6321 15.3116L25.9525 15.8437C26.2514 16.3402 26.3195 16.9409 26.1392 17.4917C26.0295 17.8269 25.8347 18.1225 25.5785 18.3531C25.7656 18.701 25.8441 19.103 25.7939 19.5059C25.7277 20.0364 25.4455 20.5108 25.0215 20.8221V22.3009C25.0215 23.82 23.7857 25.0558 22.2667 25.0558H19.1572C18.0006 25.0558 16.8751 25.3865 15.9025 26.0121L13.0723 27.8324C12.9836 27.8895 12.8844 27.9167 12.7862 27.9167C12.6119 27.9167 12.4414 27.8309 12.3401 27.6734C12.1819 27.4274 12.253 27.0995 12.4991 26.9413L15.3293 25.121C16.4732 24.3852 17.7969 23.9963 19.1572 23.9963H22.2667C23.2015 23.9963 23.962 23.2358 23.962 22.301V20.5262C23.962 20.3286 24.0719 20.1474 24.2473 20.0562L24.2799 20.0393C24.5381 19.9052 24.7066 19.6631 24.7425 19.3749C24.7785 19.0865 24.6746 18.8106 24.4575 18.6175C24.3214 18.4964 24.2571 18.314 24.2871 18.1344C24.3171 17.9547 24.4373 17.8031 24.6053 17.7328C24.8557 17.6282 25.0478 17.4202 25.1322 17.1622C25.2167 16.9043 25.1848 16.623 25.0448 16.3905L24.4618 15.4222C24.3151 15.1786 24.3869 14.8626 24.6245 14.7063L26.139 13.7099L22.2326 9.08012C22.0955 8.91753 22.0688 8.68866 22.165 8.49889C23.0605 6.7328 23.1461 4.64078 22.4473 2.78828L21.7941 1.25731C21.8132 1.10203 21.9001 0.956655 22.0441 0.869029C22.294 0.71698 22.62 0.796183 22.7721 1.04614C24.1768 3.35388 24.3552 6.23835 23.2631 8.65852Z" fill="#C68590"/>
<path d="M0.353957 10.9164C0.436127 10.9627 0.525343 10.9846 0.613393 10.9846C0.7985 10.9846 0.978256 10.8875 1.07552 10.7147C1.51583 9.93266 1.84525 9.09279 2.05467 8.21832C2.81513 5.04258 5.26035 2.5973 8.4361 1.83685C8.72064 1.76872 8.89611 1.48279 8.82793 1.19825C8.7598 0.913698 8.47366 0.738339 8.18932 0.806417C6.44914 1.22309 4.86052 2.11213 3.59529 3.37741C2.33 4.64275 1.44092 6.23131 1.02424 7.9715C0.837704 8.75039 0.544309 9.49844 0.152268 10.1948C0.00864313 10.4498 0.0989715 10.7728 0.353957 10.9164Z" fill="white"/>
<path d="M11.5552 16.4658C11.4158 16.4658 11.2792 16.522 11.1806 16.6205C11.0821 16.7196 11.0254 16.8557 11.0254 16.9951C11.0254 17.1349 11.0821 17.2711 11.1806 17.3702C11.2792 17.4687 11.4158 17.5254 11.5552 17.5254C11.6945 17.5254 11.8312 17.4687 11.9297 17.3702C12.0283 17.2711 12.085 17.1349 12.085 16.9951C12.085 16.8557 12.0283 16.7196 11.9297 16.6205C11.8312 16.522 11.695 16.4658 11.5552 16.4658Z" fill="white"/>
</svg>
