<svg width="25" height="23" viewBox="0 0 25 23" fill="none" xmlns="http://www.w3.org/2000/svg">
<path fill-rule="evenodd" clip-rule="evenodd" d="M9.70922 15.231C14.2028 15.231 18.0434 15.9119 18.0434 18.6319C18.0434 21.3519 14.2284 22.0523 9.70922 22.0523C5.21444 22.0523 1.375 21.3775 1.375 18.6562C1.375 15.935 5.18886 15.231 9.70922 15.231Z" stroke="white" stroke-linecap="round" stroke-linejoin="round"/>
<path fill-rule="evenodd" clip-rule="evenodd" d="M9.70781 11.3495C6.75758 11.3495 4.36523 8.95833 4.36523 6.0081C4.36523 3.05787 6.75758 0.666748 9.70781 0.666748C12.6568 0.666748 15.0492 3.05787 15.0492 6.0081C15.0601 8.94737 12.6848 11.3385 9.74557 11.3495H9.70781Z" fill="#C68590" stroke="#C68590" stroke-linecap="round" stroke-linejoin="round"/>
<path d="M18.1035 9.96348C20.0537 9.68941 21.5556 8.01574 21.5593 5.99005C21.5593 3.99359 20.1036 2.33698 18.1949 2.02393" stroke="white" stroke-linecap="round" stroke-linejoin="round"/>
<path d="M20.6777 14.6531C22.567 14.9345 23.8862 15.5971 23.8862 16.9614C23.8862 17.9005 23.265 18.5096 22.2613 18.8908" stroke="white" stroke-linecap="round" stroke-linejoin="round"/>
</svg>
