<svg width="30" height="30" viewBox="0 0 30 30" fill="none" xmlns="http://www.w3.org/2000/svg">
<path d="M14.9993 0.791748C7.14641 0.791748 0.791016 7.14643 0.791016 15.0001C0.791016 22.8529 7.14569 29.2084 14.9993 29.2084C22.8523 29.2084 29.2077 22.8537 29.2077 15.0001C29.2077 7.14715 22.853 0.791748 14.9993 0.791748ZM14.9993 27.2259C8.25805 27.2259 2.77358 21.7414 2.77358 15.0001C2.77358 8.25873 8.25805 2.77431 14.9993 2.77431C21.7407 2.77431 27.2251 8.25873 27.2251 15.0001C27.2251 21.7414 21.7407 27.2259 14.9993 27.2259Z" fill="white" stroke="#2D2A26"/>
<path d="M14.5776 18.769C13.7921 18.769 13.1562 19.4236 13.1562 20.2091C13.1562 20.9759 13.7734 21.6492 14.5776 21.6492C15.3819 21.6492 16.0177 20.9759 16.0177 20.2091C16.0177 19.4236 15.3631 18.769 14.5776 18.769Z" fill="#C68590" stroke="#2D2A26" stroke-width="0.6"/>
<path d="M14.8192 7.86328C12.2943 7.86328 11.1348 9.35954 11.1348 10.3694C11.1348 11.0988 11.7519 11.4355 12.2569 11.4355C13.2668 11.4355 12.8554 9.99536 14.7631 9.99536C15.6981 9.99536 16.4463 10.4069 16.4463 11.2672C16.4463 12.2771 15.3989 12.8568 14.7818 13.3805C14.2393 13.848 13.5287 14.6148 13.5287 16.2233C13.5287 17.1958 13.7906 17.4763 14.5573 17.4763C15.4737 17.4763 15.6607 17.0649 15.6607 16.7095C15.6607 15.737 15.6794 15.1759 16.7081 14.3717C17.213 13.979 18.8027 12.7072 18.8027 10.9492C18.8027 9.19115 17.213 7.86328 14.8192 7.86328Z" fill="#C68590" stroke="#2D2A26" stroke-width="0.6"/>
</svg>
