<svg width="12" height="12" viewBox="0 0 12 12" fill="none" xmlns="http://www.w3.org/2000/svg">
<path opacity="0.8" d="M10.6589 2.82441C10.259 2.31432 9.6956 1.95105 9.06005 1.79102C8.42476 1.63105 7.75255 1.68295 7.1508 1.93875C6.72084 2.11909 6.33238 2.39655 6.00025 2.75188C5.66801 2.39577 5.27931 2.11821 4.84892 1.93864C4.24725 1.68293 3.57515 1.63108 2.93995 1.79102C2.30439 1.95106 1.74094 2.31433 1.34112 2.82444C0.918959 3.36175 0.7 4.02874 0.7 4.74607C0.7 5.81169 1.35036 6.92022 2.51329 8.03905L2.51333 8.03909C3.46616 8.95539 4.58634 9.70123 5.16548 10.0625L5.16588 10.0628C5.41557 10.218 5.70501 10.3 6 10.3C6.29499 10.3 6.58443 10.218 6.83412 10.0628L6.83462 10.0624C7.41315 9.70126 8.53382 8.95541 9.48667 8.03909L9.27872 7.82285L9.48667 8.03909C10.6497 6.92064 11.3 5.81166 11.3 4.74607C11.3 4.02872 11.081 3.36172 10.6589 2.82441ZM10.6589 2.82441C10.6588 2.82437 10.6588 2.82433 10.6588 2.8243L10.4229 3.00965L10.659 2.82461C10.659 2.82454 10.6589 2.82447 10.6589 2.82441Z" fill="#D6D1CA" stroke="white" stroke-width="0.6"/>
</svg>
