<svg width="72" height="72" viewBox="0 0 72 72" fill="none" xmlns="http://www.w3.org/2000/svg">
<g opacity="0.15">
<path d="M7.24664 36C6.55613 35.9984 5.88712 35.7597 5.35164 35.3237C4.81616 34.8877 4.44671 34.281 4.30518 33.6052C4.16364 32.9293 4.25859 32.2253 4.57414 31.6111C4.8897 30.9969 5.40668 30.5098 6.03854 30.2313C15.4926 26.1211 25.6912 24 36.0001 24C46.309 24 56.5077 26.1211 65.9617 30.2313C66.5936 30.5098 67.1106 30.9969 67.4261 31.6111C67.7417 32.2253 67.8366 32.9293 67.6951 33.6052C67.5536 34.281 67.1841 34.8877 66.6486 35.3237C66.1132 35.7597 65.4441 35.9984 64.7536 36H7.24664Z" fill="#2D2A26" fill-opacity="0.7"/>
<path d="M24 53.25C25.2426 53.25 26.25 52.2426 26.25 51C26.25 49.7574 25.2426 48.75 24 48.75C22.7574 48.75 21.75 49.7574 21.75 51C21.75 52.2426 22.7574 53.25 24 53.25Z" fill="#2D2A26" fill-opacity="0.7"/>
<path d="M48.0003 42.0004C46.6214 42.0037 45.2618 42.3254 44.0277 42.9405C42.7936 43.5557 41.7182 44.4476 40.8855 45.5467L40.7757 45.4852C39.3099 44.6893 37.6683 44.2725 36.0003 44.2725C34.3323 44.2725 32.6908 44.6893 31.2249 45.4852L31.1151 45.5467C29.664 43.6291 27.5273 42.3471 25.1523 41.9692C22.7774 41.5914 20.3483 42.1468 18.3736 43.5194C16.399 44.8919 15.0318 46.9751 14.5583 49.3329C14.0848 51.6906 14.5417 54.1401 15.8334 56.1686C17.1251 58.1971 19.1514 59.6473 21.4881 60.2156C23.8248 60.7839 26.2908 60.4262 28.3698 59.2175C30.4488 58.0088 31.9796 56.0427 32.6418 53.7309C33.304 51.419 33.0462 48.9406 31.9224 46.8145L31.9572 46.7947C33.1989 46.1228 34.5885 45.771 36.0003 45.771C37.4121 45.771 38.8017 46.1228 40.0434 46.7947L40.0782 46.8145C39.3804 48.1 39.0102 49.5377 39.0003 51.0004C39.0003 52.7804 39.5282 54.5205 40.5171 56.0005C41.506 57.4806 42.9116 58.6341 44.5562 59.3153C46.2007 59.9965 48.0103 60.1747 49.7561 59.8275C51.502 59.4802 53.1056 58.623 54.3643 57.3644C55.623 56.1057 56.4801 54.5021 56.8274 52.7562C57.1747 51.0104 56.9964 49.2008 56.3152 47.5563C55.6341 45.9117 54.4805 44.5061 53.0005 43.5172C51.5204 42.5283 49.7804 42.0004 48.0003 42.0004ZM24.0003 54.7504C23.2586 54.7504 22.5336 54.5305 21.9169 54.1184C21.3002 53.7064 20.8196 53.1207 20.5358 52.4355C20.2519 51.7502 20.1777 50.9963 20.3224 50.2688C20.4671 49.5414 20.8242 48.8732 21.3487 48.3488C21.8731 47.8243 22.5413 47.4672 23.2687 47.3225C23.9962 47.1778 24.7502 47.252 25.4354 47.5359C26.1206 47.8197 26.7063 48.3003 27.1183 48.917C27.5304 49.5337 27.7503 50.2587 27.7503 51.0004C27.7494 51.9947 27.3541 52.948 26.651 53.6511C25.9479 54.3542 24.9946 54.7495 24.0003 54.7504ZM48.0003 54.7504C47.2586 54.7504 46.5336 54.5305 45.9169 54.1184C45.3003 53.7064 44.8196 53.1207 44.5358 52.4355C44.2519 51.7502 44.1777 50.9963 44.3224 50.2688C44.4671 49.5414 44.8242 48.8732 45.3487 48.3488C45.8731 47.8243 46.5413 47.4672 47.2687 47.3225C47.9962 47.1778 48.7502 47.252 49.4354 47.5359C50.1206 47.8197 50.7063 48.3003 51.1183 48.917C51.5304 49.5337 51.7503 50.2587 51.7503 51.0004C51.7495 51.9947 51.3541 52.948 50.651 53.6511C49.9479 54.3542 48.9946 54.7495 48.0003 54.7504Z" fill="#2D2A26" fill-opacity="0.7"/>
<path d="M48 53.25C49.2426 53.25 50.25 52.2426 50.25 51C50.25 49.7574 49.2426 48.75 48 48.75C46.7574 48.75 45.75 49.7574 45.75 51C45.75 52.2426 46.7574 53.25 48 53.25Z" fill="#2D2A26" fill-opacity="0.7"/>
<path d="M55.5818 25.0299L52.2299 13.35C51.8753 12.0961 51.1206 10.9925 50.0808 10.2072C49.0409 9.42192 47.7729 8.998 46.4699 9.00001H46.4099C45.4828 8.99813 44.5683 9.21392 43.7399 9.63001L40.2599 11.37C39.4314 11.7861 38.5169 12.0019 37.5899 12H34.4099C33.4828 12.0019 32.5683 11.7861 31.7399 11.37L28.2599 9.63001C27.4314 9.21392 26.5169 8.99813 25.5899 9.00001H25.5299C24.2268 8.998 22.9588 9.42192 21.919 10.2072C20.8791 10.9925 20.1245 12.0961 19.7699 13.35L16.418 25.0299C29.2547 21.6567 42.7451 21.6567 55.5818 25.0299Z" fill="#2D2A26" fill-opacity="0.7"/>
</g>
</svg>
