<svg width="30" height="30" viewBox="0 0 30 30" fill="none" xmlns="http://www.w3.org/2000/svg">
<path d="M14.9974 0.791992C7.14446 0.791992 0.789062 7.14667 0.789062 15.0003C0.789062 22.8531 7.14374 29.2087 14.9974 29.2087C22.8503 29.2087 29.2057 22.854 29.2057 15.0003C29.2057 7.14739 22.8511 0.791992 14.9974 0.791992ZM14.9974 27.2261C8.2561 27.2261 2.77162 21.7417 2.77162 15.0003C2.77162 8.25897 8.2561 2.77455 14.9974 2.77455C21.7388 2.77455 27.2232 8.25897 27.2232 15.0003C27.2232 21.7417 21.7388 27.2261 14.9974 27.2261Z" fill="black" stroke="white"/>
<path d="M14.5757 18.7695C13.7902 18.7695 13.1543 19.4241 13.1543 20.2096C13.1543 20.9764 13.7715 21.6497 14.5757 21.6497C15.3799 21.6497 16.0157 20.9764 16.0157 20.2096C16.0157 19.4241 15.3611 18.7695 14.5757 18.7695Z" fill="black" stroke="white" stroke-width="0.6"/>
<path d="M14.8172 7.86328C12.2923 7.86328 11.1328 9.35954 11.1328 10.3694C11.1328 11.0988 11.75 11.4355 12.2549 11.4355C13.2649 11.4355 12.8535 9.99536 14.7611 9.99536C15.6962 9.99536 16.4443 10.4069 16.4443 11.2672C16.4443 12.2771 15.397 12.8568 14.7798 13.3805C14.2374 13.848 13.5267 14.6148 13.5267 16.2233C13.5267 17.1958 13.7886 17.4763 14.5554 17.4763C15.4717 17.4763 15.6588 17.0649 15.6588 16.7095C15.6588 15.737 15.6775 15.1759 16.7061 14.3717C17.2111 13.979 18.8008 12.7072 18.8008 10.9492C18.8008 9.19115 17.2111 7.86328 14.8172 7.86328Z" fill="black" stroke="white" stroke-width="0.6"/>
</svg>
