<svg width="390" height="531" viewBox="0 0 390 531" fill="none" xmlns="http://www.w3.org/2000/svg">
<g opacity="0.6">
<path d="M236.66 206.872C229.242 209.768 225.504 220.042 224.562 224.816C223.828 227.577 227.127 226.564 228.868 225.712L238.873 221.552L249.542 217.182C255.052 213.334 279.112 209.578 290.453 208.18C299.896 208.064 319.828 213.425 328.614 216.119C314.392 205.254 297.321 199.494 290.563 197.972C275.294 194.518 248.266 202.467 236.66 206.872Z" stroke="white" stroke-width="2"/>
<path d="M153.789 206.872C161.208 209.768 164.946 220.042 165.888 224.816C166.622 227.577 163.323 226.564 161.582 225.712L151.576 221.552L140.908 217.182C135.398 213.334 111.338 209.578 99.9969 208.18C90.554 208.064 70.6217 213.425 61.8359 216.119C76.0581 205.254 93.1292 199.494 99.887 197.972C115.155 194.518 142.184 202.467 153.789 206.872Z" stroke="white" stroke-width="2"/>
<path d="M195.095 506.002C157.967 506.002 135.905 480.29 120.3 467.434C104.448 454.599 84.6349 423.227 77.4291 400.423M195.095 24.002C109.399 27.6603 52.4801 88.5873 35.2828 171.006C32.0595 185.976 29.886 229.886 46.9787 285.763" stroke="white" stroke-width="2"/>
<path d="M195.093 506.002C232.221 506.002 254.282 480.29 269.887 467.434C285.739 454.599 305.553 423.227 312.758 400.423M195.093 24.002C280.789 27.6603 337.707 88.5873 354.905 171.006C358.128 185.976 360.301 229.886 343.209 285.763" stroke="white" stroke-width="2"/>
<path d="M335.891 353.489C336.042 359.331 339.216 369.154 350.697 361.714C351.444 361.129 353.04 358.537 353.449 352.841C354.089 350.451 355.858 345.026 357.808 342.448C358.948 340.874 361.538 336.714 362.777 332.658C365.393 324.905 370.847 308.178 371.734 303.3C373.353 293.843 374.379 275.637 370.616 270.138C366.86 264.359 357.402 256.425 349.609 270.913L348.111 274.101M358.922 273.911C358.856 272.521 359.219 269.974 361.198 270.903C362.88 272.372 366.373 276.309 366.889 280.299C367.9 285.274 368.823 298.688 364.43 312.55M343.137 295.376C343.71 295.425 344.937 295.978 345.262 297.804C344.908 299.278 344.381 302.472 345.106 303.448C346.026 304.18 347.63 306.195 346.692 308.401C346.506 309.452 345.772 312.194 344.323 314.753C344.399 319.554 344.069 329.59 342.142 331.332C341.685 332.741 341.473 335.115 344.279 333.341L346.032 332.232C346.011 329.24 347.403 323.452 353.144 324.243C354.942 323.411 358.935 320.98 360.523 317.915C361.423 315.584 362.954 309.305 361.88 302.829C361.348 299.437 358.619 292.8 351.962 293.38C350.182 293.585 346.404 292.75 345.54 287.77" stroke="white" stroke-width="2" stroke-linecap="round"/>
<path d="M54.3024 353.489C54.1508 359.331 50.9773 369.154 39.4956 361.714C38.7486 361.129 37.1525 358.537 36.7443 352.841C36.1039 350.451 34.3355 345.026 32.3848 342.448C31.245 340.874 28.6554 336.714 27.4156 332.658C24.7997 324.905 19.3461 308.178 18.4594 303.3C16.8404 293.843 15.8144 275.637 19.5774 270.138C23.3327 264.359 32.7915 256.425 40.5844 270.913L42.0821 274.101M31.2711 273.911C31.337 272.521 30.9741 269.974 28.9953 270.903C27.3133 272.372 23.8202 276.309 23.3042 280.299C22.2934 285.274 21.3701 298.688 25.7629 312.55M47.056 295.376C46.4831 295.425 45.2559 295.978 44.9306 297.804C45.2847 299.279 45.8116 302.472 45.0869 303.448C44.1675 304.18 42.5632 306.195 43.5013 308.401C43.687 309.452 44.4206 312.194 45.8696 314.754C45.7937 319.554 46.1236 329.59 48.0511 331.332C48.5078 332.741 48.7197 335.115 45.9142 333.341L44.1609 332.232C44.1824 329.24 42.7902 323.452 37.0489 324.243C35.251 323.411 31.258 320.98 29.6697 317.915C28.77 315.584 27.2389 309.305 28.3125 302.829C28.8451 299.438 31.5743 292.8 38.2305 293.38C40.0112 293.585 43.7885 292.75 44.6529 287.77" stroke="white" stroke-width="2" stroke-linecap="round"/>
</g>
</svg>
