<svg width="390" height="530" viewBox="0 0 390 530" fill="none" xmlns="http://www.w3.org/2000/svg">
<g opacity="0.6">
<path d="M236.658 206.87C229.24 209.766 225.502 220.039 224.56 224.814C223.826 227.575 227.125 226.562 228.866 225.71L238.871 221.549L249.54 217.18C255.05 213.332 279.11 209.575 290.451 208.178C299.894 208.062 319.826 213.422 328.612 216.117C314.39 205.251 297.319 199.492 290.561 197.97C275.292 194.516 248.264 202.464 236.658 206.87Z" stroke="white" stroke-width="2"/>
<path d="M153.789 206.87C161.208 209.766 164.946 220.039 165.888 224.814C166.622 227.575 163.323 226.562 161.582 225.71L151.576 221.549L140.908 217.18C135.398 213.332 111.338 209.575 99.9969 208.178C90.554 208.062 70.6217 213.422 61.8359 216.117C76.0581 205.251 93.1292 199.492 99.887 197.97C115.155 194.516 142.184 202.464 153.789 206.87Z" stroke="white" stroke-width="2"/>
<path d="M195.095 506C157.967 506 135.905 480.288 120.3 467.432C104.448 454.597 84.6349 423.225 77.4291 400.421M195.095 24C109.399 27.6583 52.4801 88.5853 35.2828 171.004C32.0595 185.974 29.886 229.884 46.9787 285.761" stroke="white" stroke-width="2"/>
<path d="M195.093 506C232.221 506 254.282 480.288 269.887 467.432C285.739 454.597 305.553 423.225 312.758 400.421M195.093 24C280.789 27.6583 337.707 88.5853 354.905 171.004C358.128 185.974 360.301 229.884 343.209 285.761" stroke="white" stroke-width="2"/>
<path d="M335.891 353.488C336.042 359.329 339.216 369.153 350.697 361.712C351.444 361.128 353.04 358.535 353.449 352.84C354.089 350.449 355.858 345.024 357.808 342.446C358.948 340.873 361.538 336.712 362.777 332.657C365.393 324.903 370.847 308.176 371.734 303.299C373.353 293.842 374.379 275.636 370.616 270.136C366.86 264.358 357.402 256.423 349.609 270.911L348.111 274.099M358.922 273.909C358.856 272.519 359.219 269.972 361.198 270.901C362.88 272.371 366.373 276.307 366.889 280.297C367.9 285.272 368.823 298.687 364.43 312.548M343.137 295.375C343.71 295.423 344.937 295.976 345.262 297.802C344.908 299.277 344.381 302.471 345.106 303.446C346.026 304.178 347.63 306.193 346.692 308.4C346.506 309.451 345.772 312.192 344.323 314.752C344.399 319.552 344.069 329.588 342.142 331.33C341.685 332.739 341.473 335.114 344.279 333.339L346.032 332.231C346.011 329.238 347.403 323.451 353.144 324.241C354.942 323.409 358.935 320.979 360.523 317.913C361.423 315.583 362.954 309.303 361.88 302.827C361.348 299.436 358.619 292.798 351.962 293.378C350.182 293.583 346.404 292.748 345.54 287.768" stroke="white" stroke-width="2" stroke-linecap="round"/>
<path d="M54.3024 353.488C54.1508 359.329 50.9773 369.153 39.4956 361.712C38.7486 361.128 37.1525 358.535 36.7443 352.84C36.1039 350.449 34.3355 345.024 32.3848 342.446C31.245 340.873 28.6554 336.712 27.4156 332.657C24.7997 324.903 19.3461 308.176 18.4594 303.299C16.8404 293.842 15.8144 275.636 19.5774 270.136C23.3327 264.358 32.7915 256.423 40.5844 270.911L42.0821 274.099M31.2711 273.909C31.337 272.519 30.9741 269.972 28.9953 270.901C27.3133 272.371 23.8202 276.307 23.3042 280.297C22.2934 285.272 21.3701 298.687 25.7629 312.548M47.056 295.375C46.4831 295.423 45.2559 295.976 44.9306 297.802C45.2847 299.277 45.8116 302.471 45.0869 303.446C44.1675 304.178 42.5632 306.193 43.5013 308.4C43.687 309.451 44.4206 312.193 45.8696 314.752C45.7937 319.552 46.1236 329.588 48.0511 331.33C48.5078 332.739 48.7197 335.114 45.9142 333.339L44.1609 332.231C44.1824 329.238 42.7902 323.451 37.0489 324.241C35.251 323.409 31.258 320.979 29.6697 317.913C28.77 315.583 27.2389 309.303 28.3125 302.827C28.8451 299.436 31.5743 292.798 38.2305 293.378C40.0112 293.583 43.7885 292.748 44.6529 287.768" stroke="white" stroke-width="2" stroke-linecap="round"/>
</g>
<rect x="78" y="138.873" width="20.4889" height="48.8928" rx="7" stroke="#BDBDBD" stroke-opacity="0.3" stroke-width="2"/>
<rect x="108.488" y="123.509" width="20.4889" height="64.489" rx="7" stroke="#BDBDBD" stroke-opacity="0.3" stroke-width="2"/>
<rect x="138.977" y="116.303" width="20.4889" height="70.9592" rx="7" stroke="#BDBDBD" stroke-opacity="0.3" stroke-width="2"/>
<rect x="169.465" y="109.998" width="20.4889" height="77.2643" rx="7" stroke="#FF00B8" stroke-opacity="0.6" stroke-width="2"/>
<rect x="199.953" y="109.998" width="20.4889" height="77.2643" rx="7" stroke="white" stroke-opacity="0.6" stroke-width="2"/>
<rect x="230.441" y="116.303" width="20.4889" height="70.9592" rx="7" stroke="white" stroke-opacity="0.6" stroke-width="2"/>
<rect x="260.93" y="123.509" width="20.4889" height="64.489" rx="7" stroke="white" stroke-opacity="0.6" stroke-width="2"/>
<rect x="291.418" y="138.781" width="20.4889" height="48.8928" rx="7" stroke="white" stroke-opacity="0.6" stroke-width="2"/>
</svg>
