<svg width="390" height="528" viewBox="0 0 390 528" fill="none" xmlns="http://www.w3.org/2000/svg">
<mask id="mask0_3450_9494" style="mask-type:alpha" maskUnits="userSpaceOnUse" x="0" y="0" width="390" height="528">
<rect width="390" height="527.647" fill="white"/>
</mask>
<g mask="url(#mask0_3450_9494)">
<path d="M238.926 213.282C231.142 216.321 227.22 227.1 226.232 232.11C225.462 235.007 228.923 233.944 230.75 233.05L241.248 228.685L252.443 224.1C258.224 220.063 283.469 216.121 295.369 214.655C305.277 214.533 326.191 220.157 335.41 222.985C320.487 211.584 302.575 205.541 295.484 203.944C279.464 200.32 251.104 208.66 238.926 213.282Z" stroke="white" stroke-opacity="0.3" stroke-width="2"/>
<path d="M151.976 213.282C159.76 216.321 163.682 227.1 164.671 232.11C165.44 235.007 161.979 233.944 160.152 233.05L149.654 228.685L138.46 224.1C132.678 220.063 107.433 216.121 95.5334 214.655C85.6253 214.533 64.7111 220.157 55.4926 222.985C70.4153 211.584 88.3274 205.541 95.4181 203.944C111.439 200.32 139.799 208.66 151.976 213.282Z" stroke="white" stroke-opacity="0.3" stroke-width="2"/>
<path d="M165.333 335.002C162.693 341.163 160.669 354.363 173.693 357.883" stroke="white" stroke-opacity="0.3" stroke-width="2" stroke-linecap="round"/>
<path d="M174.574 350.623C177.288 350.109 183.726 350.139 187.775 354.363C190.121 355.609 196.135 357.355 201.415 354.363C203.248 353.116 208.807 350.623 216.375 350.623" stroke="white" stroke-opacity="0.3" stroke-width="2" stroke-linecap="round"/>
<path d="M225.835 335.662C228.402 341.015 230.455 352.69 218.135 356.562" stroke="white" stroke-opacity="0.3" stroke-width="2" stroke-linecap="round"/>
<path d="M195.487 503.354C156.492 503.354 133.32 477.357 116.931 464.359C100.281 451.381 65.0894 419.66 57.5212 396.604M195.487 25.2354C105.481 28.9342 45.6992 90.5374 27.6369 173.87C24.2514 189.007 21.9686 233.404 39.9211 289.901" stroke="white" stroke-opacity="0.3" stroke-width="2"/>
<path d="M195.318 503.354C234.313 503.354 257.484 477.357 273.874 464.359C290.524 451.381 325.715 419.66 333.283 396.604M195.318 25.2354C285.324 28.9342 345.105 90.5374 363.168 173.87C366.553 189.007 368.836 233.404 350.884 289.901" stroke="white" stroke-opacity="0.3" stroke-width="2"/>
<path d="M339.898 371.912C340.057 378.042 343.387 388.349 355.434 380.542C356.218 379.928 357.893 377.208 358.321 371.232C358.993 368.724 360.848 363.032 362.895 360.327C364.091 358.676 366.808 354.31 368.109 350.055C370.854 341.919 376.576 324.369 377.507 319.251C379.205 309.328 380.282 290.225 376.333 284.454C372.393 278.391 362.468 270.066 354.292 285.268L352.72 288.613" stroke="white" stroke-opacity="0.3" stroke-width="2" stroke-linecap="round"/>
<path d="M364.062 288.413C363.993 286.955 364.374 284.282 366.45 285.257C368.215 286.799 371.88 290.929 372.422 295.116C373.482 300.336 374.451 314.411 369.842 328.956" stroke="white" stroke-opacity="0.3" stroke-width="2" stroke-linecap="round"/>
<path d="M347.499 310.936C348.101 310.987 349.388 311.567 349.729 313.483C349.358 315.031 348.805 318.382 349.566 319.405C350.53 320.173 352.214 322.288 351.229 324.603C351.034 325.705 350.265 328.582 348.744 331.268C348.824 336.305 348.478 346.835 346.455 348.663C345.976 350.141 345.754 352.633 348.697 350.771L350.537 349.608C350.515 346.468 351.975 340.395 358 341.225C359.886 340.352 364.076 337.801 365.742 334.585C366.686 332.14 368.293 325.551 367.166 318.756C366.607 315.197 363.744 308.233 356.76 308.841C354.891 309.056 350.928 308.18 350.021 302.955" stroke="white" stroke-opacity="0.3" stroke-width="2" stroke-linecap="round"/>
<path d="M50.7388 371.912C50.5798 378.042 47.25 388.349 35.2027 380.542C34.4189 379.928 32.7442 377.208 32.3158 371.232C31.6439 368.724 29.7883 363.032 27.7416 360.327C26.5456 358.676 23.8285 354.31 22.5276 350.055C19.7828 341.919 14.0606 324.369 13.1302 319.251C11.4314 309.328 10.3549 290.225 14.3033 284.454C18.2435 278.391 28.1683 270.066 36.3451 285.268L37.9166 288.613" stroke="white" stroke-opacity="0.3" stroke-width="2" stroke-linecap="round"/>
<path d="M26.5724 288.413C26.6416 286.955 26.2609 284.282 24.1846 285.257C22.4197 286.799 18.7545 290.929 18.2131 295.116C17.1525 300.336 16.1837 314.411 20.7929 328.955" stroke="white" stroke-opacity="0.3" stroke-width="2" stroke-linecap="round"/>
<path d="M43.1353 310.936C42.5342 310.987 41.2466 311.567 40.9053 313.483C41.2767 315.031 41.8296 318.382 41.0692 319.405C40.1045 320.173 38.4212 322.288 39.4055 324.603C39.6003 325.706 40.3701 328.582 41.8905 331.268C41.8108 336.305 42.157 346.835 44.1795 348.663C44.6586 350.141 44.8809 352.633 41.9373 350.771L40.0976 349.608C40.1202 346.468 38.6594 340.395 32.6352 341.225C30.7487 340.352 26.5591 337.802 24.8926 334.585C23.9485 332.14 22.342 325.551 23.4685 318.756C24.0273 315.197 26.891 308.233 33.8751 308.841C35.7435 309.056 39.7069 308.18 40.6139 302.955" stroke="white" stroke-opacity="0.3" stroke-width="2" stroke-linecap="round"/>
</g>
</svg>
