<svg width="390" height="528" viewBox="0 0 390 528" fill="none" xmlns="http://www.w3.org/2000/svg">
<mask id="mask0_3450_11030" style="mask-type:alpha" maskUnits="userSpaceOnUse" x="0" y="0" width="390" height="528">
<rect x="0.5" y="0.5" width="389" height="526.647" fill="white" stroke="black"/>
</mask>
<g mask="url(#mask0_3450_11030)">
<path fill-rule="evenodd" clip-rule="evenodd" d="M307.255 71.4518C306.974 72.0195 307.206 72.7076 307.774 72.9887C330.551 84.2657 375.162 129.716 368.696 220.939C368.029 225.403 364.989 235.995 358.23 242.895L358.1 243.028L358.018 243.196C356.727 245.854 354.651 254.294 355.68 268.016L355.684 268.07L355.693 268.123C357.044 276.06 358.39 289.764 358.012 304.991C357.634 320.228 355.533 336.902 350.046 350.83L350.022 350.89L350.005 350.953C347.691 359.571 337.768 384.36 316.714 413.728L316.674 413.784L316.641 413.844C311.761 422.724 303.099 437.107 296.755 449.837C293.52 456.328 290.888 461.609 289.668 463.937C286.119 470.707 277.88 480.878 262.339 491.396C258.109 493.664 250.004 497.018 240.646 498.968C231.24 500.927 220.705 501.438 211.597 498.135C180.759 486.712 113.475 446.423 83.8225 374.131C83.5904 373.542 82.9244 373.252 82.335 373.484C81.7456 373.717 81.4559 374.383 81.6881 374.972C111.655 451.062 179.574 488.72 210.801 500.286L210.808 500.289C220.486 503.801 231.507 503.215 241.114 501.213C250.733 499.21 259.074 495.758 263.477 493.388L263.528 493.361L263.576 493.328C279.385 482.639 287.932 472.189 291.7 465.002C292.962 462.594 295.634 457.231 298.901 450.676C305.213 438.008 313.745 423.883 318.618 415.009C339.725 385.553 349.777 360.59 352.204 351.611C357.813 337.342 359.925 320.392 360.306 305.048C360.686 289.706 359.337 275.881 357.964 267.791C356.983 254.623 358.944 246.719 360.007 244.358C367.165 236.95 370.287 225.88 370.972 221.231L370.978 221.188L370.981 221.145C377.525 129.042 332.474 82.6579 308.792 70.9327C308.224 70.6516 307.536 70.884 307.255 71.4518Z" fill="white" fill-opacity="0.3"/>
<path fill-rule="evenodd" clip-rule="evenodd" d="M303.396 276.521C302.764 276.564 302.287 277.111 302.33 277.743C303.087 288.861 307.204 317.665 317.639 344.28C318.748 347.29 319 351.745 316.322 355.452C313.656 359.143 307.847 362.42 296.113 362.554C295.12 362.538 293.478 362.427 291.808 362.145C290.094 361.856 288.507 361.412 287.535 360.807C286.997 360.472 286.29 360.636 285.955 361.174C285.62 361.712 285.784 362.419 286.322 362.754C287.694 363.608 289.656 364.109 291.426 364.407C293.232 364.712 294.999 364.832 296.092 364.849L296.108 364.849L296.123 364.849C308.222 364.713 314.91 361.326 318.182 356.795C321.441 352.283 321.076 346.963 319.787 343.474L319.783 343.464L319.779 343.453C309.447 317.107 305.365 288.538 304.619 277.587C304.576 276.955 304.028 276.478 303.396 276.521Z" fill="white" fill-opacity="0.3"/>
<path fill-rule="evenodd" clip-rule="evenodd" d="M250.312 345.709C249.749 345.419 249.057 345.641 248.767 346.204C247.579 348.514 246.983 352.239 248.951 355.994C250.921 359.752 255.338 363.316 263.716 365.588C264.327 365.754 264.957 365.393 265.123 364.781C265.289 364.17 264.928 363.54 264.316 363.374C256.293 361.198 252.55 357.919 250.983 354.929C249.414 351.935 249.905 349.007 250.807 347.253C251.097 346.69 250.875 345.998 250.312 345.709Z" fill="white" fill-opacity="0.3"/>
<path fill-rule="evenodd" clip-rule="evenodd" d="M342.447 215.686C335.46 216.318 329.197 219.741 324.24 223.69C319.253 227.661 315.496 232.234 313.543 235.27L315.472 236.511C317.298 233.673 320.89 229.29 325.669 225.484C330.452 221.675 336.333 218.515 342.751 217.963L342.858 217.953L342.961 217.925C345.794 217.134 350.414 216.049 355.033 215.376C357.343 215.039 359.633 214.807 361.689 214.763C363.605 214.722 365.254 214.845 366.507 215.162C367.315 216.082 368.276 217.599 368.712 219.36C369.141 221.094 369.06 223.037 367.837 224.943C364.388 224.937 359.224 225.015 354.21 225.267C348.94 225.533 343.693 225.997 340.824 226.804L340.766 226.82L340.71 226.843C337.372 228.175 329.601 231.638 325.407 234.817C323.778 235.576 319.857 237.127 316.407 237.651L316.241 237.676L316.088 237.748C315.907 237.834 315.707 237.91 315.521 237.961C315.559 237.832 315.614 237.677 315.692 237.491L313.576 236.604C313.272 237.33 313.091 238.032 313.174 238.663C313.219 239.001 313.342 239.338 313.577 239.627C313.812 239.916 314.107 240.094 314.397 240.194C314.934 240.38 315.494 240.316 315.892 240.231C316.254 240.153 316.607 240.028 316.912 239.894C320.708 239.289 324.863 237.613 326.496 236.84L326.607 236.788L326.704 236.713C330.574 233.743 338.111 230.354 341.503 228.996C344.099 228.28 349.054 227.824 354.326 227.559C359.591 227.293 365.033 227.223 368.431 227.239L369.011 227.242L369.357 226.777C371.366 224.075 371.535 221.221 370.939 218.809C370.352 216.439 369.026 214.469 367.96 213.351L367.748 213.129L367.453 213.042C365.836 212.567 363.804 212.423 361.639 212.469C359.459 212.516 357.069 212.76 354.702 213.106C350.025 213.788 345.363 214.877 342.447 215.686Z" fill="white" fill-opacity="0.3"/>
<path fill-rule="evenodd" clip-rule="evenodd" d="M255.777 219.55C259.939 221.4 262.866 225.149 264.832 229.228C266.795 233.3 267.732 237.566 267.991 240.215L267.995 240.257L268.002 240.298C268.061 240.643 268.034 240.802 268.013 240.861C267.967 240.881 267.807 240.932 267.432 240.899C266.466 240.813 265.099 240.254 264.091 239.707L264.061 239.691L251.901 233.982L251.896 233.979L239.061 228.034C237.259 226.706 234.053 225.352 230.189 224.032C226.204 222.67 221.368 221.296 216.309 219.997C206.188 217.398 195.105 215.082 187.985 213.743L187.929 213.732L187.872 213.727C181.75 213.2 172.137 214.012 162.694 215.215C156.608 215.991 150.546 216.935 145.456 217.809C163.049 209.288 181.473 205.319 189.176 204.363C198.872 203.15 211.96 205.385 224.488 208.741C236.977 212.088 248.758 216.506 255.777 219.55ZM267.998 240.891C267.999 240.891 268.003 240.887 268.008 240.876C268 240.885 267.998 240.89 267.998 240.891ZM188.893 202.086C199.054 200.816 212.504 203.155 225.082 206.525C237.695 209.905 249.585 214.364 256.694 217.447L256.704 217.451C261.559 219.608 264.808 223.894 266.898 228.232C268.983 232.557 269.984 237.068 270.27 239.953C270.429 240.929 270.296 241.91 269.548 242.574C268.853 243.19 267.93 243.247 267.228 243.184C265.798 243.057 264.113 242.326 263.026 241.739L250.931 236.061L250.926 236.059L237.876 230.013L237.777 229.938C236.325 228.836 233.402 227.554 229.448 226.203C225.541 224.868 220.77 223.511 215.739 222.219C205.705 219.643 194.705 217.342 187.618 216.008C181.765 215.514 172.404 216.291 162.984 217.491C153.566 218.691 144.201 220.299 138.46 221.413L137.677 219.288C157.387 208.164 180.002 203.19 188.893 202.086Z" fill="white" fill-opacity="0.3"/>
<path fill-rule="evenodd" clip-rule="evenodd" d="M24.2748 284.618C27.3893 281.279 32.8064 277.223 38.9823 276.003C42.0958 275.388 45.4164 275.492 48.7105 276.791C52.004 278.091 55.1941 280.555 58.0978 284.536L58.1206 284.568L60.2743 287.991C60.6098 288.524 60.4462 289.234 59.9089 289.576C59.3715 289.918 58.6639 289.762 58.3284 289.229L56.216 285.872C53.5254 282.192 50.6674 280.039 47.8468 278.927C45.019 277.811 42.1519 277.71 39.4013 278.253C33.8554 279.349 28.8441 283.059 25.9353 286.181L25.9258 286.191L25.9161 286.201C24.6177 287.53 23.5977 289.69 22.867 292.485C22.1424 295.258 21.7326 298.535 21.5691 301.975C21.2422 308.855 21.9066 316.241 22.8941 321.25C23.4304 323.765 25.5422 329.449 28.0238 335.646C30.4897 341.804 33.2691 348.345 35.0752 352.486L35.084 352.506L35.0921 352.527C36.7022 356.651 40.3193 360.906 41.943 362.521C43.5098 364.01 44.8997 366.274 45.9873 368.412C47.0884 370.576 47.9341 372.721 48.3812 374.052L48.4301 374.198L48.4387 374.352C48.604 377.303 49.2366 379.376 49.9195 380.751C50.5935 382.107 51.2855 382.728 51.5854 382.906C59.9325 386.547 65.0779 385.613 68.166 383.382C71.3393 381.09 72.7107 377.173 72.953 374.195C73.0045 373.563 73.558 373.087 74.1894 373.13C74.8209 373.174 75.291 373.722 75.2396 374.354C74.9647 377.731 73.4123 382.406 69.4949 385.236C65.4987 388.123 59.4013 388.843 50.5941 384.987L50.5523 384.969L50.512 384.947C49.6793 384.499 48.6847 383.446 47.8626 381.791C47.0383 380.132 46.3511 377.801 46.1574 374.664C45.7303 373.418 44.9477 371.452 43.94 369.471C42.8818 367.391 41.629 365.403 40.3447 364.186L40.335 364.177L40.3256 364.167C38.6174 362.471 34.7457 357.956 32.962 353.404C31.1489 349.247 28.3652 342.695 25.8927 336.521C23.4346 330.382 21.2313 324.489 20.6481 321.744L20.6464 321.736L20.6448 321.728C19.6212 316.54 18.9416 308.965 19.2776 301.894C19.4457 298.356 19.8694 294.908 20.6479 291.93C21.4189 288.98 22.5687 286.369 24.2748 284.618Z" fill="white" fill-opacity="0.3"/>
<path fill-rule="evenodd" clip-rule="evenodd" d="M41.3649 286.995C41.6313 287.414 41.7183 288.167 41.6457 288.818C41.5754 289.449 42.0288 290.011 42.6584 290.073C43.288 290.136 43.8554 289.676 43.9256 289.046C44.0218 288.184 43.9781 286.805 43.3042 285.747C42.9426 285.179 42.388 284.691 41.6031 284.481C40.84 284.276 39.9882 284.368 39.077 284.697L38.9562 284.74L38.8477 284.809C37.4615 285.69 35.3467 287.276 33.4407 289.214C31.5755 291.111 29.7698 293.484 29.191 295.969C27.3389 301.67 25.2774 316.532 31.4148 331.629C31.6524 332.213 32.3211 332.489 32.9084 332.244C33.4956 332 33.7791 331.328 33.5415 330.743C27.6254 316.191 29.6672 301.855 31.3869 296.609L31.404 296.557L31.4161 296.503C31.835 294.646 33.2739 292.636 35.067 290.813C36.7811 289.07 38.6891 287.627 39.9487 286.814C40.5004 286.632 40.8202 286.653 40.9846 286.697C41.1384 286.738 41.2564 286.825 41.3649 286.995Z" fill="white" fill-opacity="0.3"/>
<path fill-rule="evenodd" clip-rule="evenodd" d="M62.8768 302.231C62.268 302.063 61.6325 302.421 61.4572 303.032C60.7873 305.367 59.2226 306.772 57.4654 307.601C55.6779 308.444 53.7411 308.661 52.5405 308.601L52.5291 308.6L52.5177 308.6C41.6729 308.274 36.8153 316.159 35.7425 320.211C33.6927 327.643 35.8093 334.684 37.1619 337.352L37.1981 337.424L37.244 337.489C38.5414 339.343 40.8047 340.87 42.964 342.011C45.1547 343.169 47.3962 344.011 48.8117 344.438L49.0453 344.509L49.2885 344.477C53.3889 343.947 55.6414 345.135 56.8873 346.606C58.1912 348.146 58.5666 350.201 58.4882 351.623L58.4444 352.418L61.7988 353.848C62.9117 354.322 63.8604 354.567 64.6578 354.549C65.5063 354.53 66.2578 354.201 66.712 353.502C67.1163 352.88 67.1489 352.163 67.0951 351.623C67.0389 351.058 66.8707 350.503 66.6827 350.052L66.5449 349.721L66.2419 349.531C65.9054 349.319 65.4625 348.67 65.0736 347.346C64.7057 346.094 64.4553 344.485 64.2998 342.72C63.9893 339.196 64.0714 335.231 64.2441 332.661L64.2731 332.23L64.0112 331.89C62.0391 329.332 61.1165 326.552 60.9144 325.568L60.8787 325.393L60.7915 325.239C60.415 324.571 60.5281 323.898 61.0343 323.148C61.5594 322.37 62.4044 321.702 63.0251 321.34L63.142 321.272L63.2402 321.179C63.7834 320.664 64.0275 319.966 64.1426 319.354C64.2611 318.723 64.2702 318.036 64.2286 317.385C64.1563 316.255 63.921 315.095 63.6957 314.252C64.1811 313.114 65.3597 312.681 65.9518 312.626C66.5833 312.568 67.0542 312.01 67.0037 311.379C66.9531 310.748 66.4002 310.284 65.7687 310.342C64.652 310.445 62.1696 311.267 61.393 313.915L61.2976 314.24L61.3931 314.563C61.6105 315.298 61.8695 316.469 61.9391 317.559C61.974 318.104 61.9581 318.583 61.8881 318.956C61.8359 319.234 61.7662 319.386 61.7179 319.463C60.9143 319.96 59.8641 320.804 59.1375 321.88C58.365 323.025 57.8725 324.596 58.7037 326.223C59.0057 327.535 59.986 330.315 61.9282 332.959C61.7693 335.607 61.7075 339.463 62.0145 342.948C62.1761 344.782 62.4436 346.559 62.8718 348.017C63.2352 349.254 63.7772 350.491 64.6666 351.231C64.74 351.452 64.7923 351.676 64.8122 351.877C64.8321 352.077 64.8141 352.188 64.8015 352.238C64.7699 352.245 64.7168 352.253 64.6331 352.255C64.3075 352.263 63.7069 352.157 62.7194 351.736L60.7865 350.912C60.7267 349.157 60.1749 346.918 58.6453 345.112C56.843 342.983 53.843 341.641 49.2714 342.171C47.9687 341.762 45.9866 341.002 44.0548 339.98C42.0079 338.898 40.1661 337.6 39.1743 336.223C38.0016 333.856 36.112 327.466 37.9551 320.792L37.9586 320.779C38.8484 317.409 42.9799 310.615 52.4108 310.893C53.9219 310.966 56.2412 310.703 58.424 309.674C60.6426 308.627 62.7672 306.759 63.6618 303.641C63.8371 303.03 63.4856 302.399 62.8768 302.231ZM64.8413 352.222C64.8405 352.222 64.8348 352.224 64.8265 352.23C64.8379 352.226 64.842 352.223 64.8413 352.222Z" fill="white" fill-opacity="0.3"/>
</g>
</svg>
