<svg width="390" height="530" viewBox="0 0 390 530" fill="none" xmlns="http://www.w3.org/2000/svg">
<g opacity="0.6">
<path d="M139.754 452.912C147.908 466.312 199.957 492.979 213.425 498.236C224.832 502.689 257.067 504.861 273.516 500.273C288.119 496.2 293.115 494.07 300.36 481.625C307.606 469.181 326.535 432.659 329.697 423.069C339.936 392.012 352.493 320.734 352.493 308.951C352.493 284.683 347.728 285.11 345.328 270.597C350.478 252.268 351.989 237.164 350.478 223.757C347.961 211.878 344.523 210.011 345.328 196.943C347.221 166.218 339.079 154.933 332.183 135" stroke="white" stroke-width="2" stroke-linecap="round"/>
<path d="M241.127 208.105C249.076 210.848 252.798 220.936 253.665 225.638C254.371 228.353 250.828 227.404 248.968 226.591L238.256 222.64L226.832 218.493C220.984 214.78 195.024 211.451 182.775 210.25C172.543 210.285 150.765 215.897 141.155 218.698C156.92 207.739 175.61 201.779 182.985 200.169C199.646 196.515 228.689 203.937 241.127 208.105Z" stroke="white" stroke-width="2"/>
<path d="M322.039 215.45C315.9 216.527 312.736 223.522 310.626 227.739C309.271 230.137 311.919 229.912 313.411 229.5L319.177 229.521L328.068 227.783C333.14 225.412 339.066 230.655 347.537 231.814C350.666 229.953 353.351 225.152 348.367 222.076C338.574 215.575 331.606 213.881 322.039 215.45Z" stroke="white" stroke-width="2"/>
<path d="M75.9069 334.418C75.4665 339.889 70.9277 349.212 56.2958 342.735C55.348 342.22 53.3789 339.861 53.0848 334.551C52.351 332.342 50.2755 327.341 47.8443 325.012C46.4266 323.588 43.2299 319.805 41.7853 316.064C38.7038 308.921 32.3033 293.503 31.3524 288.978C29.6392 280.2 29.0621 263.212 34.188 257.909C39.3155 252.346 51.9549 244.526 61.493 257.75L63.3093 260.669M49.2479 260.946C49.3916 259.644 49.0254 257.276 46.4116 258.229C44.1615 259.674 39.452 263.503 38.6144 267.258C37.0919 271.954 35.3318 284.541 40.4713 297.323M68.8962 280.362C68.1486 280.431 66.5286 281.001 66.0293 282.722C66.4286 284.087 66.9813 287.052 65.9976 287.995C64.7707 288.718 62.5991 290.671 63.728 292.696C63.9259 293.671 64.7665 296.205 66.5456 298.538C66.2469 303.032 66.2585 312.406 68.6943 313.954C69.2299 315.253 69.4068 317.465 65.8298 315.924L63.5942 314.96C63.7468 312.16 62.176 306.805 54.6717 307.786C52.3666 307.084 47.2717 304.978 45.3324 302.177C44.2585 300.035 42.5275 294.225 44.1943 288.122C45.0285 284.927 48.8565 278.604 57.4944 278.866C59.803 278.983 64.7535 278.042 66.0856 273.347" stroke="white" stroke-width="2" stroke-linecap="round"/>
</g>
<rect x="138.274" y="295.381" width="16" height="118" rx="7" transform="rotate(-70.7661 138.274 295.381)" stroke="#FF00B8" stroke-opacity="0.6" stroke-width="2"/>
<rect x="121.274" y="326.385" width="16" height="118" rx="7" transform="rotate(-70.7661 121.274 326.385)" stroke="white" stroke-opacity="0.6" stroke-width="2"/>
<rect x="122.274" y="364.38" width="16" height="98" rx="7" transform="rotate(-70.7661 122.274 364.38)" stroke="white" stroke-opacity="0.6" stroke-width="2"/>
<rect x="105.274" y="396.38" width="16" height="98" rx="7" transform="rotate(-70.7661 105.274 396.38)" stroke="white" stroke-opacity="0.6" stroke-width="2"/>
</svg>
