<svg width="26" height="24" viewBox="0 0 26 24" fill="none" xmlns="http://www.w3.org/2000/svg">
<path d="M12.6027 3.86598L12.9999 4.38537L13.397 3.86598C14.0174 3.05471 14.8225 2.3954 15.7492 1.94099C16.6759 1.48656 17.6982 1.24976 18.7352 1.24976C20.507 1.24976 22.2044 1.94018 23.4544 3.16613C24.7041 4.39176 25.4043 6.05198 25.4043 7.78101C25.4043 11.16 23.4101 14.7145 19.2885 18.3514C17.4211 19.9979 15.3877 21.4541 13.2196 22.6974C13.1558 22.7327 13.0828 22.7511 13.0082 22.7498L13.0082 22.7497L12.9949 22.7498C12.9175 22.7505 12.8417 22.7313 12.7753 22.6947L12.7706 22.6921C12.4782 22.5283 9.43755 20.8254 6.46145 18.1398C3.43355 15.4074 0.595459 11.7676 0.595459 7.78101C0.595459 6.41256 1.03441 5.07782 1.85159 3.96585C2.66888 2.85373 3.82344 2.02044 5.15287 1.58582C6.48239 1.15117 7.91796 1.1378 9.25571 1.54765C10.5934 1.95747 11.764 2.76918 12.6027 3.86598Z" fill="#FF2F31" stroke="url(#paint0_linear_3528_9805)"/>
<defs>
<linearGradient id="paint0_linear_3528_9805" x1="12.9999" y1="0.749756" x2="12.9999" y2="23.2499" gradientUnits="userSpaceOnUse">
<stop stop-color="#D62121"/>
<stop offset="1" stop-color="#EE4747"/>
</linearGradient>
</defs>
</svg>
