<svg width="391" height="531" viewBox="0 0 391 531" fill="none" xmlns="http://www.w3.org/2000/svg">
<g opacity="0.6">
<path d="M238.309 301.981C229.47 315.679 173.055 342.938 158.457 348.312C146.093 352.864 111.154 355.084 93.3251 350.394C77.4971 346.231 72.0823 344.054 64.2286 331.332C56.3749 318.611 35.858 281.277 32.431 271.474C21.3331 239.727 7.72304 166.863 7.72304 154.819C7.72304 130.011 12.8873 130.448 15.4888 115.612C9.90622 96.8757 8.26884 81.4359 9.90623 67.7308C12.6352 55.5871 16.3615 53.6788 15.4888 40.3208C14.3131 22.3226 16.3727 11.3499 20.0394 1" stroke="white" stroke-width="2" stroke-linecap="round"/>
<path d="M119.846 353.95C124.695 357.117 136.14 365.75 139.244 374.95C144.741 402.617 159.236 457.451 138.274 475.45" stroke="white" stroke-width="2" stroke-linecap="round"/>
<path d="M344.893 231.45C341.821 238.45 335.872 255.75 336.648 268.95C334.385 333.45 336.648 411.95 390 471.45" stroke="white" stroke-width="2" stroke-linecap="round"/>
<path d="M128.425 51.73C119.809 54.5334 115.776 64.8463 114.835 69.6523C114.07 72.4277 117.91 71.4583 119.926 70.6267L131.537 66.5878L143.919 62.3488C150.258 58.5531 178.396 55.15 191.672 53.9229C202.762 53.9587 226.368 59.6948 236.784 62.5584C219.696 51.3562 199.438 45.2637 191.445 43.6178C173.386 39.8825 141.907 47.4696 128.425 51.73Z" stroke="white" stroke-width="2"/>
<path d="M40.7273 59.2378C47.3819 60.3384 50.8106 67.4889 53.0981 71.8004C54.5661 74.2511 51.6969 74.0216 50.0789 73.6005L43.83 73.622L34.1929 71.8448C28.695 69.4211 22.2725 74.7803 13.0908 75.9651C9.6984 74.0627 6.78915 69.1551 12.1903 66.0107C22.8048 59.3653 30.3575 57.6335 40.7273 59.2378Z" stroke="white" stroke-width="2"/>
<path d="M307.511 180.852C307.988 186.444 312.908 195.974 328.767 189.353C329.794 188.827 331.929 186.416 332.248 180.988C333.043 178.729 335.293 173.618 337.928 171.236C339.464 169.781 342.929 165.914 344.495 162.089C347.835 154.787 354.772 139.027 355.803 134.401C357.66 125.428 358.286 108.063 352.73 102.642C347.172 96.9548 333.472 88.9605 323.134 102.479L321.165 105.463M336.406 105.746C336.251 104.415 336.647 101.994 339.481 102.968C341.919 104.446 347.024 108.36 347.932 112.198C349.582 116.999 351.49 129.866 345.919 142.932M315.11 125.593C315.92 125.664 317.676 126.246 318.217 128.006C317.784 129.401 317.185 132.432 318.251 133.397C319.581 134.136 321.935 136.132 320.711 138.201C320.497 139.198 319.586 141.789 317.658 144.174C317.981 148.767 317.969 158.35 315.329 159.933C314.748 161.26 314.556 163.522 318.433 161.946L320.856 160.961C320.691 158.099 322.394 152.625 330.528 153.628C333.026 152.909 338.548 150.757 340.65 147.894C341.814 145.704 343.691 139.765 341.884 133.526C340.98 130.261 336.831 123.796 327.468 124.064C324.966 124.184 319.6 123.222 318.156 118.423" stroke="white" stroke-width="2" stroke-linecap="round"/>
</g>
</svg>
