<svg width="391" height="531" viewBox="0 0 391 531" fill="none" xmlns="http://www.w3.org/2000/svg">
<g opacity="0.6">
<path d="M152.691 301.981C161.53 315.679 217.945 342.938 232.543 348.312C244.907 352.864 279.846 355.084 297.675 350.394C313.503 346.231 318.918 344.054 326.771 331.332C334.625 318.611 355.142 281.277 358.569 271.474C369.667 239.727 383.277 166.863 383.277 154.819C383.277 130.011 378.113 130.448 375.511 115.612C381.094 96.8757 382.731 81.4359 381.094 67.7308C378.365 55.5871 374.639 53.6788 375.511 40.3208C376.687 22.3226 374.627 11.3499 370.961 1" stroke="white" stroke-width="2" stroke-linecap="round"/>
<path d="M271.154 353.95C266.305 357.117 254.86 365.75 251.756 374.95C246.259 402.617 231.764 457.451 252.726 475.45" stroke="white" stroke-width="2" stroke-linecap="round"/>
<path d="M46.1066 231.45C49.1786 238.45 55.1283 255.75 54.3519 268.95C56.6153 333.45 54.3519 411.95 1 471.45" stroke="white" stroke-width="2" stroke-linecap="round"/>
<path d="M262.575 51.73C271.191 54.5334 275.224 64.8463 276.165 69.6523C276.93 72.4277 273.09 71.4583 271.074 70.6267L259.463 66.5878L247.081 62.3488C240.742 58.5531 212.604 55.15 199.328 53.9229C188.238 53.9587 164.632 59.6948 154.216 62.5584C171.304 51.3562 191.562 45.2637 199.555 43.6178C217.614 39.8825 249.093 47.4696 262.575 51.73Z" stroke="white" stroke-width="2"/>
<path d="M350.273 59.2378C343.618 60.3384 340.189 67.4889 337.902 71.8004C336.434 74.2511 339.303 74.0216 340.921 73.6005L347.17 73.622L356.807 71.8448C362.305 69.4211 368.728 74.7803 377.909 75.9651C381.302 74.0627 384.211 69.1551 378.81 66.0107C368.195 59.3653 360.642 57.6335 350.273 59.2378Z" stroke="white" stroke-width="2"/>
<path d="M83.4891 180.852C83.0118 186.444 78.0922 195.974 62.2329 189.353C61.2056 188.827 59.0713 186.416 58.7525 180.988C57.9571 178.729 55.7075 173.618 53.0724 171.236C51.5356 169.781 48.0708 165.914 46.505 162.089C43.1651 154.787 36.2275 139.027 35.1969 134.401C33.34 125.428 32.7145 108.063 38.2704 102.642C43.828 96.9548 57.5278 88.9605 67.866 102.479L69.8347 105.463M54.5937 105.746C54.7494 104.415 54.3526 101.994 51.5194 102.968C49.0806 104.446 43.9759 108.36 43.0681 112.198C41.4179 116.999 39.5102 129.866 45.0808 142.932M75.8902 125.593C75.08 125.664 73.3241 126.246 72.7829 128.006C73.2157 129.401 73.8148 132.432 72.7485 133.397C71.4187 134.136 69.0649 136.132 70.2885 138.201C70.503 139.198 71.4141 141.789 73.3424 144.174C73.0187 148.767 73.0313 158.35 75.6715 159.933C76.2519 161.26 76.4437 163.522 72.5667 161.946L70.1435 160.961C70.3089 158.099 68.6063 152.625 60.4725 153.628C57.974 152.909 52.4516 150.757 50.3497 147.894C49.1857 145.704 47.3095 139.765 49.1161 133.526C50.0203 130.261 54.1694 123.796 63.5319 124.064C66.0343 124.184 71.4 123.222 72.8439 118.423" stroke="white" stroke-width="2" stroke-linecap="round"/>
</g>
</svg>
