<svg width="390" height="530" viewBox="0 0 390 530" fill="none" xmlns="http://www.w3.org/2000/svg">
<g opacity="0.6">
<path d="M250.246 452.912C242.092 466.312 190.043 492.979 176.575 498.236C165.168 502.689 132.933 504.861 116.484 500.273C101.881 496.2 96.8854 494.07 89.6396 481.625C82.3937 469.181 63.4647 432.659 60.303 423.069C50.0641 392.012 37.5074 320.734 37.5074 308.951C37.5074 284.683 42.272 285.11 44.6722 270.597C39.5216 252.268 38.011 237.164 39.5216 223.757C42.0394 211.878 45.4772 210.011 44.6722 196.943C42.7792 166.218 50.9214 154.933 57.8173 135" stroke="white" stroke-width="2" stroke-linecap="round"/>
<path d="M148.873 208.105C140.924 210.848 137.202 220.936 136.335 225.638C135.629 228.353 139.172 227.404 141.032 226.591L151.744 222.64L163.168 218.493C169.016 214.78 194.976 211.451 207.225 210.25C217.457 210.285 239.235 215.897 248.845 218.698C233.08 207.739 214.39 201.779 207.015 200.169C190.354 196.515 161.311 203.937 148.873 208.105Z" stroke="white" stroke-width="2"/>
<path d="M67.9609 215.45C74.1004 216.527 77.2638 223.522 79.3742 227.739C80.7285 230.137 78.0815 229.912 76.5887 229.5L70.8234 229.521L61.9322 227.783C56.8598 225.412 50.9344 230.655 42.4634 231.814C39.3336 229.953 36.6495 225.152 41.6326 222.076C51.4256 215.575 58.3937 213.881 67.9609 215.45Z" stroke="white" stroke-width="2"/>
<path d="M314.093 334.418C314.534 339.889 319.072 349.212 333.704 342.735C334.652 342.22 336.621 339.861 336.915 334.551C337.649 332.342 339.725 327.341 342.156 325.012C343.573 323.588 346.77 319.805 348.215 316.064C351.296 308.921 357.697 293.503 358.648 288.978C360.361 280.2 360.938 263.212 355.812 257.909C350.685 252.346 338.045 244.526 328.507 257.75L326.691 260.669M340.752 260.946C340.608 259.644 340.975 257.276 343.588 258.229C345.838 259.674 350.548 263.503 351.386 267.258C352.908 271.954 354.668 284.541 349.529 297.323M321.104 280.362C321.851 280.431 323.471 281 323.971 282.722C323.571 284.087 323.019 287.052 324.002 287.995C325.229 288.718 327.401 290.671 326.272 292.696C326.074 293.671 325.234 296.205 323.454 298.538C323.753 303.032 323.742 312.406 321.306 313.954C320.77 315.253 320.593 317.465 324.17 315.924L326.406 314.96C326.253 312.16 327.824 306.805 335.328 307.786C337.633 307.083 342.728 304.978 344.668 302.177C345.741 300.035 347.473 294.225 345.806 288.122C344.972 284.927 341.144 278.604 332.506 278.866C330.197 278.982 325.247 278.042 323.914 273.347" stroke="white" stroke-width="2" stroke-linecap="round"/>
</g>
<rect x="-1.3127" y="-0.526126" width="16" height="44" rx="7" transform="matrix(-0.393289 -0.919415 -0.919415 0.393289 205.687 327.023)" stroke="#BDBDBD" stroke-opacity="0.3" stroke-width="2"/>
<rect x="-1.3127" y="-0.526126" width="16" height="44" rx="7" transform="matrix(-0.393289 -0.919415 -0.919415 0.393289 212.687 358.474)" stroke="#BDBDBD" stroke-opacity="0.3" stroke-width="2"/>
<rect x="-1.3127" y="-0.526126" width="16" height="44" rx="7" transform="matrix(-0.393289 -0.919415 -0.919415 0.393289 219.687 390.474)" stroke="#BDBDBD" stroke-opacity="0.3" stroke-width="2"/>
<rect x="-1.3127" y="-0.526126" width="16" height="44" rx="7" transform="matrix(-0.393289 -0.919415 -0.919415 0.393289 233.687 422.474)" stroke="#BDBDBD" stroke-opacity="0.3" stroke-width="2"/>
<rect x="-1.3127" y="-0.526126" width="16" height="44" rx="7" transform="matrix(-0.393289 -0.919415 -0.919415 0.393289 226.687 454.474)" stroke="#FF00B8" stroke-opacity="0.6" stroke-width="2"/>
</svg>
