<svg width="390" height="528" viewBox="0 0 390 528" fill="none" xmlns="http://www.w3.org/2000/svg">
<mask id="mask0_3462_11482" style="mask-type:alpha" maskUnits="userSpaceOnUse" x="0" y="0" width="390" height="528">
<rect width="390" height="527.647" transform="matrix(-1 0 0 1 390 0)" fill="white"/>
</mask>
<g mask="url(#mask0_3462_11482)">
<path fill-rule="evenodd" clip-rule="evenodd" d="M82.7454 71.4518C83.0264 72.0195 82.7941 72.7076 82.2263 72.9887C59.4488 84.2657 14.8384 129.716 21.3041 220.939C21.971 225.403 25.0114 235.995 31.7697 242.895L31.9004 243.028L31.982 243.196C33.2732 245.854 35.3489 254.294 34.3199 268.016L34.3159 268.07L34.3068 268.123C32.9556 276.06 31.6103 289.764 31.9879 304.991C32.3657 320.228 34.4669 336.902 39.9542 350.83L39.978 350.89L39.9948 350.953C42.3088 359.571 52.2321 384.36 73.2862 413.728L73.3261 413.784L73.3592 413.844C78.2389 422.724 86.9014 437.107 93.2453 449.837C96.4799 456.328 99.1118 461.609 100.332 463.937C103.881 470.707 112.12 480.878 127.661 491.396C131.891 493.664 139.996 497.018 149.354 498.968C158.76 500.927 169.295 501.438 178.403 498.135C209.241 486.712 276.525 446.423 306.177 374.131C306.41 373.542 307.076 373.252 307.665 373.484C308.254 373.717 308.544 374.383 308.312 374.972C278.345 451.062 210.426 488.72 179.199 500.286L179.192 500.289C169.514 503.801 158.493 503.215 148.886 501.213C139.267 499.21 130.926 495.758 126.523 493.388L126.472 493.361L126.424 493.328C110.615 482.639 102.068 472.189 98.3001 465.002C97.0377 462.594 94.3657 457.231 91.0992 450.676C84.7871 438.008 76.2546 423.883 71.3817 415.009C50.2745 385.553 40.2228 360.59 37.7961 351.611C32.1873 337.342 30.0749 320.392 29.6945 305.048C29.314 289.706 30.6634 275.881 32.0362 267.791C33.0168 254.623 31.0564 246.719 29.9932 244.358C22.8346 236.95 19.7131 225.88 19.0282 221.231L19.0219 221.188L19.0189 221.145C12.4753 129.042 57.5256 82.6579 81.2085 70.9327C81.7762 70.6516 82.4643 70.884 82.7454 71.4518Z" fill="white" fill-opacity="0.3"/>
<path fill-rule="evenodd" clip-rule="evenodd" d="M86.6035 276.521C87.2356 276.564 87.713 277.111 87.67 277.743C86.9127 288.861 82.7964 317.665 72.3609 344.28C71.252 347.29 70.9998 351.745 73.6775 355.452C76.3438 359.143 82.1534 362.42 93.8873 362.554C94.8797 362.538 96.5225 362.427 98.1923 362.145C99.906 361.856 101.493 361.412 102.465 360.807C103.003 360.472 103.71 360.636 104.045 361.174C104.38 361.712 104.216 362.419 103.678 362.754C102.306 363.608 100.344 364.109 98.5739 364.407C96.7684 364.712 95.0006 364.832 93.9075 364.849L93.8922 364.849L93.877 364.849C81.7778 364.713 75.0903 361.326 71.8178 356.795C68.5587 352.283 68.9239 346.963 70.2128 343.474L70.2167 343.464L70.2209 343.453C80.553 317.107 84.6352 288.538 85.3812 277.587C85.4242 276.955 85.9715 276.478 86.6035 276.521Z" fill="white" fill-opacity="0.3"/>
<path fill-rule="evenodd" clip-rule="evenodd" d="M139.688 345.709C140.251 345.419 140.943 345.641 141.233 346.204C142.421 348.514 143.017 352.239 141.049 355.994C139.079 359.752 134.662 363.316 126.284 365.588C125.673 365.754 125.043 365.393 124.877 364.781C124.711 364.17 125.072 363.54 125.684 363.374C133.707 361.198 137.45 357.919 139.017 354.929C140.586 351.935 140.095 349.007 139.193 347.253C138.903 346.69 139.125 345.998 139.688 345.709Z" fill="white" fill-opacity="0.3"/>
<path fill-rule="evenodd" clip-rule="evenodd" d="M47.5533 215.686C54.54 216.318 60.8028 219.741 65.7604 223.69C70.7473 227.661 74.5044 232.234 76.4571 235.27L74.5276 236.511C72.7019 233.673 69.1103 229.29 64.3313 225.484C59.5483 221.675 53.6666 218.515 47.2488 217.963L47.142 217.953L47.0388 217.925C44.2064 217.134 39.5864 216.049 34.9668 215.376C32.6574 215.039 30.3671 214.807 28.3112 214.763C26.3952 214.722 24.7462 214.845 23.4927 215.162C22.6852 216.082 21.7239 217.599 21.2882 219.36C20.8594 221.094 20.9402 223.037 22.1626 224.943C25.6125 224.937 30.7762 225.015 35.7897 225.267C41.0596 225.533 46.3066 225.997 49.1756 226.804L49.234 226.82L49.2905 226.843C52.6281 228.175 60.3993 231.638 64.5929 234.817C66.222 235.576 70.143 237.127 73.5925 237.651L73.7595 237.676L73.9121 237.748C74.0934 237.834 74.293 237.91 74.4787 237.961C74.4409 237.832 74.386 237.677 74.308 237.491L76.4238 236.604C76.7285 237.33 76.9086 238.032 76.8255 238.663C76.7811 239.001 76.6582 239.338 76.4234 239.627C76.1884 239.916 75.8928 240.094 75.603 240.194C75.0655 240.38 74.5059 240.316 74.1085 240.231C73.7462 240.153 73.393 240.028 73.0884 239.894C69.2917 239.289 65.1368 237.613 63.5038 236.84L63.3933 236.788L63.2963 236.713C59.4261 233.743 51.8887 230.354 48.4972 228.996C45.9006 228.28 40.9461 227.824 35.6743 227.559C30.4089 227.293 24.9675 227.223 21.5691 227.239L20.9892 227.242L20.6431 226.777C18.6337 224.075 18.4647 221.221 19.0612 218.809C19.6477 216.439 20.9742 214.469 22.0403 213.351L22.2523 213.129L22.5469 213.042C24.1636 212.567 26.1965 212.423 28.3607 212.469C30.5413 212.516 32.9311 212.76 35.2979 213.106C39.9755 213.788 44.6372 214.877 47.5533 215.686Z" fill="white" fill-opacity="0.3"/>
<path fill-rule="evenodd" clip-rule="evenodd" d="M134.223 219.55C130.061 221.4 127.134 225.149 125.168 229.228C123.205 233.3 122.268 237.566 122.009 240.215L122.005 240.257L121.998 240.298C121.939 240.643 121.966 240.802 121.987 240.861C122.033 240.881 122.193 240.932 122.568 240.899C123.534 240.813 124.901 240.254 125.909 239.707L125.939 239.691L138.099 233.982L138.104 233.979L150.939 228.034C152.741 226.706 155.947 225.352 159.811 224.032C163.796 222.67 168.632 221.296 173.691 219.997C183.812 217.398 194.895 215.082 202.015 213.743L202.071 213.732L202.128 213.727C208.25 213.2 217.863 214.012 227.306 215.215C233.392 215.991 239.454 216.935 244.544 217.809C226.951 209.288 208.527 205.319 200.824 204.363C191.128 203.15 178.04 205.385 165.512 208.741C153.023 212.088 141.242 216.506 134.223 219.55ZM122.002 240.891C122.001 240.891 121.997 240.887 121.992 240.876C122 240.885 122.002 240.89 122.002 240.891ZM201.107 202.086C190.946 200.816 177.496 203.155 164.918 206.525C152.305 209.905 140.415 214.364 133.306 217.447L133.296 217.451C128.441 219.608 125.192 223.894 123.102 228.232C121.017 232.557 120.016 237.068 119.73 239.953C119.571 240.929 119.704 241.91 120.452 242.574C121.147 243.19 122.07 243.247 122.772 243.184C124.202 243.057 125.887 242.326 126.974 241.739L139.069 236.061L139.074 236.059L152.124 230.013L152.223 229.938C153.675 228.836 156.598 227.554 160.552 226.203C164.459 224.868 169.23 223.511 174.261 222.219C184.295 219.643 195.295 217.342 202.382 216.008C208.235 215.514 217.596 216.291 227.016 217.491C236.434 218.691 245.799 220.299 251.54 221.413L252.323 219.288C232.613 208.164 209.998 203.19 201.107 202.086Z" fill="white" fill-opacity="0.3"/>
<path fill-rule="evenodd" clip-rule="evenodd" d="M365.725 284.618C362.611 281.279 357.194 277.223 351.018 276.003C347.904 275.388 344.584 275.492 341.289 276.791C337.996 278.091 334.806 280.555 331.902 284.536L331.879 284.568L329.726 287.991C329.39 288.524 329.554 289.234 330.091 289.576C330.628 289.918 331.336 289.762 331.672 289.229L333.784 285.872C336.475 282.192 339.333 280.039 342.153 278.927C344.981 277.811 347.848 277.71 350.599 278.253C356.145 279.349 361.156 283.059 364.065 286.181L364.074 286.191L364.084 286.201C365.382 287.53 366.402 289.69 367.133 292.485C367.858 295.258 368.267 298.535 368.431 301.975C368.758 308.855 368.093 316.241 367.106 321.25C366.57 323.765 364.458 329.449 361.976 335.646C359.51 341.804 356.731 348.345 354.925 352.486L354.916 352.506L354.908 352.527C353.298 356.651 349.681 360.906 348.057 362.521C346.49 364.01 345.1 366.274 344.013 368.412C342.912 370.576 342.066 372.721 341.619 374.052L341.57 374.198L341.561 374.352C341.396 377.303 340.763 379.376 340.08 380.751C339.407 382.107 338.715 382.728 338.415 382.906C330.067 386.547 324.922 385.613 321.834 383.382C318.661 381.09 317.289 377.173 317.047 374.195C316.996 373.563 316.442 373.087 315.811 373.13C315.179 373.174 314.709 373.722 314.76 374.354C315.035 377.731 316.588 382.406 320.505 385.236C324.501 388.123 330.599 388.843 339.406 384.987L339.448 384.969L339.488 384.947C340.321 384.499 341.315 383.446 342.137 381.791C342.962 380.132 343.649 377.801 343.843 374.664C344.27 373.418 345.052 371.452 346.06 369.471C347.118 367.391 348.371 365.403 349.655 364.186L349.665 364.177L349.674 364.167C351.383 362.471 355.254 357.956 357.038 353.404C358.851 349.247 361.635 342.695 364.107 336.521C366.565 330.382 368.769 324.489 369.352 321.744L369.354 321.736L369.355 321.728C370.379 316.54 371.058 308.965 370.722 301.894C370.554 298.356 370.131 294.908 369.352 291.93C368.581 288.98 367.431 286.369 365.725 284.618Z" fill="white" fill-opacity="0.3"/>
<path fill-rule="evenodd" clip-rule="evenodd" d="M348.635 286.995C348.369 287.414 348.282 288.167 348.354 288.818C348.425 289.449 347.971 290.011 347.342 290.073C346.712 290.136 346.145 289.676 346.074 289.046C345.978 288.184 346.022 286.805 346.696 285.747C347.057 285.179 347.612 284.691 348.397 284.481C349.16 284.276 350.012 284.368 350.923 284.697L351.044 284.74L351.152 284.809C352.538 285.69 354.653 287.276 356.559 289.214C358.425 291.111 360.23 293.484 360.809 295.969C362.661 301.67 364.723 316.532 358.585 331.629C358.348 332.213 357.679 332.489 357.092 332.244C356.504 332 356.221 331.328 356.459 330.743C362.375 316.191 360.333 301.855 358.613 296.609L358.596 296.557L358.584 296.503C358.165 294.646 356.726 292.636 354.933 290.813C353.219 289.07 351.311 287.627 350.051 286.814C349.5 286.632 349.18 286.653 349.015 286.697C348.862 286.738 348.744 286.825 348.635 286.995Z" fill="white" fill-opacity="0.3"/>
<path fill-rule="evenodd" clip-rule="evenodd" d="M327.123 302.231C327.732 302.063 328.368 302.421 328.543 303.032C329.213 305.367 330.777 306.772 332.535 307.601C334.322 308.444 336.259 308.661 337.459 308.601L337.471 308.6L337.482 308.6C348.327 308.274 353.185 316.159 354.257 320.211C356.307 327.643 354.191 334.684 352.838 337.352L352.802 337.424L352.756 337.489C351.459 339.343 349.195 340.87 347.036 342.011C344.845 343.169 342.604 344.011 341.188 344.438L340.955 344.509L340.711 344.477C336.611 343.947 334.359 345.135 333.113 346.606C331.809 348.146 331.433 350.201 331.512 351.623L331.556 352.418L328.201 353.848C327.088 354.322 326.14 354.567 325.342 354.549C324.494 354.53 323.742 354.201 323.288 353.502C322.884 352.88 322.851 352.163 322.905 351.623C322.961 351.058 323.129 350.503 323.317 350.052L323.455 349.721L323.758 349.531C324.095 349.319 324.537 348.67 324.926 347.346C325.294 346.094 325.545 344.485 325.7 342.72C326.011 339.196 325.929 335.231 325.756 332.661L325.727 332.23L325.989 331.89C327.961 329.332 328.884 326.552 329.086 325.568L329.121 325.393L329.209 325.239C329.585 324.571 329.472 323.898 328.966 323.148C328.441 322.37 327.596 321.702 326.975 321.34L326.858 321.272L326.76 321.179C326.217 320.664 325.973 319.966 325.857 319.354C325.739 318.723 325.73 318.036 325.771 317.385C325.844 316.255 326.079 315.095 326.304 314.252C325.819 313.114 324.64 312.681 324.048 312.626C323.417 312.568 322.946 312.01 322.996 311.379C323.047 310.748 323.6 310.284 324.231 310.342C325.348 310.445 327.83 311.267 328.607 313.915L328.702 314.24L328.607 314.563C328.389 315.298 328.131 316.469 328.061 317.559C328.026 318.104 328.042 318.583 328.112 318.956C328.164 319.234 328.234 319.386 328.282 319.463C329.086 319.96 330.136 320.804 330.863 321.88C331.635 323.025 332.127 324.596 331.296 326.223C330.994 327.535 330.014 330.315 328.072 332.959C328.231 335.607 328.293 339.463 327.986 342.948C327.824 344.782 327.556 346.559 327.128 348.017C326.765 349.254 326.223 350.491 325.333 351.231C325.26 351.452 325.208 351.676 325.188 351.877C325.168 352.077 325.186 352.188 325.199 352.238C325.23 352.245 325.283 352.253 325.367 352.255C325.692 352.263 326.293 352.157 327.281 351.736L329.214 350.912C329.273 349.157 329.825 346.918 331.355 345.112C333.157 342.983 336.157 341.641 340.729 342.171C342.031 341.762 344.013 341.002 345.945 339.98C347.992 338.898 349.834 337.6 350.826 336.223C351.998 333.856 353.888 327.466 352.045 320.792L352.041 320.779C351.152 317.409 347.02 310.615 337.589 310.893C336.078 310.966 333.759 310.703 331.576 309.674C329.357 308.627 327.233 306.759 326.338 303.641C326.163 303.03 326.514 302.399 327.123 302.231ZM325.159 352.222C325.159 352.222 325.165 352.224 325.173 352.23C325.162 352.226 325.158 352.223 325.159 352.222Z" fill="white" fill-opacity="0.3"/>
</g>
</svg>
