<svg width="20" height="20" viewBox="0 0 20 20" fill="none" xmlns="http://www.w3.org/2000/svg">
<path fill-rule="evenodd" clip-rule="evenodd" d="M10.263 0.168888C11.2637 -0.252833 12.2508 0.19289 12.8678 0.656158L12.87 0.657757L16.652 3.5101C16.6519 3.51004 16.652 3.51016 16.652 3.5101C17.7605 4.34595 17.7747 5.78694 16.7378 6.65125L16.7354 6.65329L12.6989 10L16.7378 13.3488C17.7747 14.2131 17.7608 15.6539 16.6522 16.4897C16.6521 16.4898 16.6523 16.4897 16.6522 16.4897L12.8678 19.3438C12.2508 19.8071 11.2637 20.2528 10.263 19.8311C9.27121 19.4131 9.02312 18.4589 9.02312 17.74V13.0477L4.60277 16.7127C4.09802 17.1312 3.30704 17.1069 2.83607 16.6583C2.36509 16.2098 2.39248 15.507 2.89723 15.0885L9.02312 10.0094V9.99064L2.89723 4.91154C2.39248 4.49303 2.36509 3.79017 2.83607 3.34165C3.30704 2.89313 4.09802 2.86879 4.60277 3.2873L9.02312 6.9523V2.25995C9.02312 1.54108 9.27121 0.586891 10.263 0.168888ZM11.5231 12.0634L14.9216 14.8812L11.5231 17.4442V12.0634ZM11.5231 7.93655V2.55575L14.9216 5.11882L11.5231 7.93655Z" fill="#D6D1CA"/>
<mask id="mask0_2090_20588" style="mask-type:alpha" maskUnits="userSpaceOnUse" x="2" y="0" width="16" height="20">
<path fill-rule="evenodd" clip-rule="evenodd" d="M10.263 0.168888C11.2637 -0.252833 12.2508 0.19289 12.8678 0.656158L12.87 0.657757L16.652 3.5101C16.6519 3.51004 16.652 3.51016 16.652 3.5101C17.7605 4.34595 17.7747 5.78694 16.7378 6.65125L16.7354 6.65329L12.6989 10L16.7378 13.3488C17.7747 14.2131 17.7608 15.6539 16.6522 16.4897C16.6521 16.4898 16.6523 16.4897 16.6522 16.4897L12.8678 19.3438C12.2508 19.8071 11.2637 20.2528 10.263 19.8311C9.27121 19.4131 9.02312 18.4589 9.02312 17.74V13.0477L4.60277 16.7127C4.09802 17.1312 3.30704 17.1069 2.83607 16.6583C2.36509 16.2098 2.39248 15.507 2.89723 15.0885L9.02312 10.0094V9.99064L2.89723 4.91154C2.39248 4.49303 2.36509 3.79017 2.83607 3.34165C3.30704 2.89313 4.09802 2.86879 4.60277 3.2873L9.02312 6.9523V2.25995C9.02312 1.54108 9.27121 0.586891 10.263 0.168888ZM11.5231 12.0634L14.9216 14.8812L11.5231 17.4442V12.0634ZM11.5231 7.93655V2.55575L14.9216 5.11882L11.5231 7.93655Z" fill="white"/>
</mask>
<g mask="url(#mask0_2090_20588)">
<rect opacity="0.5" x="2.5" y="15" width="15" height="5" fill="#EF3453"/>
</g>
</svg>
