<svg width="216" height="300" viewBox="0 0 216 300" fill="none" xmlns="http://www.w3.org/2000/svg">
<path d="M14.1028 135.478C12.611 131.252 5.52508 125.036 4.40625 135.478" stroke="white" stroke-width="2" stroke-linecap="round"/>
<path d="M6.27148 142.564C9.13072 143.931 14.9984 149.65 15.5951 161.584" stroke="white" stroke-width="2" stroke-linecap="round"/>
<path d="M8.50864 123.917C18.2053 122.624 15.2215 141.445 21.5615 151.142V178.367C22.3075 182.593 21.1818 189.412 15.5946 187.317C9.62749 185.08 16.516 167.924 7.01676 151.142C-4.17131 131.376 2.58234 124.707 8.50864 123.917Z" stroke="white" stroke-width="2" stroke-linecap="round"/>
<path d="M201.898 135.483C203.39 131.256 210.475 125.041 211.594 135.483" stroke="white" stroke-width="2" stroke-linecap="round"/>
<path d="M209.729 142.569C206.871 143.937 201.003 149.655 200.407 161.589" stroke="white" stroke-width="2" stroke-linecap="round"/>
<path d="M207.492 123.922C197.796 122.629 199.456 139.895 194.44 151.147V178.372C193.694 182.599 194.82 189.418 200.407 187.323C206.373 185.085 199.485 167.929 208.984 151.147C220.171 131.381 213.418 124.712 207.492 123.922Z" stroke="white" stroke-width="2" stroke-linecap="round"/>
<path d="M193 173.909C193 208.537 182.694 239.857 166.873 262.496C151.04 285.152 129.777 299 107.873 299C85.9659 299 64.5161 285.149 48.4965 262.491C32.4899 239.852 22 208.533 22 173.909C22 145.102 24.242 118.742 34.5741 97.7278C49.1397 68.1026 79.316 57 105.263 57C131.961 57 167.814 66.9005 182.282 97.7116C191.965 118.331 193 146.054 193 173.909Z" stroke="white" stroke-width="2"/>
<path d="M20.4094 151.881C6.25837 112.611 7.2859 23.8942 69.7251 6.75865C135.471 -11.2843 228.887 6.75867 194.704 153" stroke="white" stroke-width="2" stroke-linecap="round"/>
</svg>
