<svg width="24" height="25" viewBox="0 0 24 25" fill="none" xmlns="http://www.w3.org/2000/svg">
<path d="M23.0119 7.3286C23.4639 7.3286 23.8375 7.65912 23.8966 8.08795L23.9047 8.20717V18.1643C23.9047 20.1944 22.2899 21.8534 20.2552 21.9654L20.0357 21.9715H4.92974L5.78608 22.8145C6.10307 23.1264 6.13188 23.6145 5.87253 23.9584L5.78608 24.057C5.4691 24.3689 4.97307 24.3973 4.62353 24.1421L4.52339 24.057L2.14244 21.7141L2.06697 21.6298C2.06405 21.626 2.06116 21.6223 2.05831 21.6185L2.14244 21.7141C2.09833 21.6707 2.0598 21.6239 2.02685 21.5745C2.01118 21.5509 1.99644 21.5263 1.98292 21.501C1.97716 21.4903 1.97198 21.4801 1.96701 21.4698C1.95183 21.4384 1.93814 21.4051 1.92653 21.3708C1.92384 21.3627 1.92155 21.3556 1.91935 21.3484C1.89444 21.2682 1.88093 21.1821 1.88093 21.0929C1.88093 21.0479 1.88436 21.0037 1.89099 20.9606C1.89314 20.947 1.89558 20.9333 1.89836 20.9196C1.90425 20.8903 1.9116 20.8619 1.92032 20.834C1.92463 20.8204 1.92943 20.8062 1.93461 20.7922C1.94471 20.7649 1.95578 20.7391 1.96804 20.7139C1.97458 20.7003 1.98208 20.6859 1.99002 20.6716C2.00577 20.6434 2.02257 20.6168 2.04071 20.5912C2.04538 20.5845 2.05062 20.5773 2.05599 20.5702C2.08589 20.5313 2.11316 20.5005 2.14244 20.4716L4.52339 18.1288C4.87208 17.7857 5.4374 17.7857 5.78608 18.1288C6.10307 18.4407 6.13188 18.9288 5.87253 19.2727L5.78608 19.3713L4.92855 20.2143H20.0357C21.1288 20.2143 22.0252 19.386 22.1121 18.3324L22.119 18.1643V8.20717C22.119 7.72195 22.5188 7.3286 23.0119 7.3286ZM19.3764 1.058L19.4766 1.14307L21.8575 3.48593C21.8878 3.51574 21.9159 3.54768 21.9416 3.58151L21.8575 3.48593C21.9016 3.52933 21.9402 3.57615 21.9731 3.62551C21.9888 3.64912 22.0035 3.67371 22.017 3.69902C22.0228 3.70971 22.028 3.71994 22.0329 3.73024C22.0481 3.76162 22.0618 3.79496 22.0734 3.82924C22.0761 3.83737 22.0784 3.84448 22.0806 3.85162C22.1055 3.93183 22.119 4.01795 22.119 4.10717C22.119 4.15214 22.1156 4.19633 22.109 4.23948C22.1072 4.25067 22.1052 4.26203 22.103 4.27335C22.0969 4.30511 22.0891 4.33592 22.0796 4.36604C22.0753 4.3797 22.0705 4.39381 22.0653 4.40782C22.0552 4.43511 22.0442 4.46097 22.0319 4.48615C22.0254 4.49974 22.0179 4.51419 22.0099 4.52848C21.9942 4.55661 21.9774 4.58323 21.9592 4.60885C21.9546 4.61558 21.9493 4.62276 21.944 4.62988C21.9157 4.66671 21.8903 4.69566 21.8631 4.72287L21.8575 4.72841L19.4766 7.07127C19.1279 7.41437 18.5625 7.41437 18.2139 7.07127C17.8969 6.75936 17.8681 6.27127 18.1274 5.92732L18.2139 5.82878L19.069 4.98574H3.96426C2.8712 4.98574 1.97475 5.81407 1.88784 6.86761L1.88093 7.03574V16.9929C1.88093 17.4781 1.48118 17.8715 0.988072 17.8715C0.536053 17.8715 0.162488 17.5409 0.103366 17.1121L0.0952148 16.9929V7.03574C0.0952148 5.00562 1.71004 3.34663 3.74471 3.23463L3.96426 3.2286H19.0702L18.2139 2.38556C17.8969 2.07365 17.8681 1.58555 18.1274 1.24161L18.2139 1.14307C18.5309 0.831157 19.0269 0.802802 19.3764 1.058ZM12 7.91431C14.6299 7.91431 16.7619 10.0122 16.7619 12.6C16.7619 15.1879 14.6299 17.2857 12 17.2857C9.37005 17.2857 7.23807 15.1879 7.23807 12.6C7.23807 10.0122 9.37005 7.91431 12 7.91431ZM12 9.67146C10.3563 9.67146 9.02379 10.9826 9.02379 12.6C9.02379 14.2174 10.3563 15.5286 12 15.5286C13.6437 15.5286 14.9762 14.2174 14.9762 12.6C14.9762 10.9826 13.6437 9.67146 12 9.67146Z" fill="#2D2A26"/>
</svg>
