<svg width="28" height="28" viewBox="0 0 28 28" fill="none" xmlns="http://www.w3.org/2000/svg">
<path d="M22.5457 11.0463C22.5457 11.0463 21.9122 18.9038 21.5447 22.2136C21.3697 23.7944 20.3932 24.7208 18.7937 24.7499C15.7499 24.8048 12.7026 24.8083 9.6599 24.7441C8.12106 24.7126 7.1609 23.7746 6.9894 22.2218C6.61956 18.8828 5.98956 11.0463 5.98956 11.0463" stroke="#FF4949" stroke-width="1.5" stroke-linecap="round" stroke-linejoin="round"/>
<path d="M24.1596 7.27968H4.37524" stroke="#FF4949" stroke-width="1.5" stroke-linecap="round" stroke-linejoin="round"/>
<path d="M20.3474 7.27967C19.4315 7.27967 18.6429 6.63217 18.4632 5.735L18.1797 4.31633C18.0047 3.66183 17.412 3.20917 16.7365 3.20917H11.798C11.1225 3.20917 10.5299 3.66183 10.3549 4.31633L10.0714 5.735C9.89169 6.63217 9.10303 7.27967 8.18719 7.27967" stroke="#FF4949" stroke-width="1.5" stroke-linecap="round" stroke-linejoin="round"/>
</svg>
