<svg width="24" height="24" viewBox="0 0 24 24" fill="none" xmlns="http://www.w3.org/2000/svg">
<mask id="mask0_1958_19048" style="mask-type:luminance" maskUnits="userSpaceOnUse" x="3" y="2" width="18" height="20">
<path fill-rule="evenodd" clip-rule="evenodd" d="M3 2.01172H20.0527V21.8652H3V2.01172Z" fill="white"/>
</mask>
<g mask="url(#mask0_1958_19048)">
<path fill-rule="evenodd" clip-rule="evenodd" d="M7.5731 3.51172C5.9161 3.51172 4.5401 4.85372 4.5011 6.50872V17.2037C4.4641 18.9167 5.8141 20.3277 7.5101 20.3657H15.5741C17.2431 20.2967 18.5651 18.9097 18.5531 17.2097V8.33972L13.9181 3.51172H7.5851H7.5731ZM7.5851 21.8657H7.4761C4.9541 21.8087 2.9461 19.7107 3.0011 17.1877V6.49072C3.0591 4.00972 5.1081 2.01172 7.5711 2.01172H7.5881H14.2381C14.4421 2.01172 14.6371 2.09472 14.7791 2.24172L19.8441 7.51872C19.9781 7.65772 20.0531 7.84472 20.0531 8.03772V17.2037C20.0711 19.7127 18.1171 21.7627 15.6041 21.8647L7.5851 21.8657Z" fill="#2D2A26"/>
</g>
<path fill-rule="evenodd" clip-rule="evenodd" d="M19.2976 8.984H16.5426C14.7126 8.979 13.2246 7.487 13.2246 5.659V2.75C13.2246 2.336 13.5606 2 13.9746 2C14.3886 2 14.7246 2.336 14.7246 2.75V5.659C14.7246 6.663 15.5416 7.481 16.5446 7.484H19.2976C19.7116 7.484 20.0476 7.82 20.0476 8.234C20.0476 8.648 19.7116 8.984 19.2976 8.984" fill="#2D2A26"/>
<path fill-rule="evenodd" clip-rule="evenodd" d="M13.7887 16.1074H8.38867C7.97467 16.1074 7.63867 15.7714 7.63867 15.3574C7.63867 14.9434 7.97467 14.6074 8.38867 14.6074H13.7887C14.2027 14.6074 14.5387 14.9434 14.5387 15.3574C14.5387 15.7714 14.2027 16.1074 13.7887 16.1074" fill="#2D2A26"/>
<path fill-rule="evenodd" clip-rule="evenodd" d="M11.7427 12.3555H8.38672C7.97272 12.3555 7.63672 12.0195 7.63672 11.6055C7.63672 11.1915 7.97272 10.8555 8.38672 10.8555H11.7427C12.1567 10.8555 12.4927 11.1915 12.4927 11.6055C12.4927 12.0195 12.1567 12.3555 11.7427 12.3555" fill="#2D2A26"/>
</svg>
