<svg width="48" height="48" viewBox="0 0 48 48" fill="none" xmlns="http://www.w3.org/2000/svg">
<path fill-rule="evenodd" clip-rule="evenodd" d="M8 16C6.89543 16 6 16.8954 6 18V20C6 21.1046 6.89543 22 8 22H40C41.1046 22 42 21.1046 42 20V18C42 16.8954 41.1046 16 40 16H8ZM2 18C2 14.6863 4.68629 12 8 12H40C43.3137 12 46 14.6863 46 18V20C46 23.3137 43.3137 26 40 26H8C4.68629 26 2 23.3137 2 20V18Z" fill="white"/>
<path fill-rule="evenodd" clip-rule="evenodd" d="M6 24C6 22.8954 6.89543 22 8 22H40C41.1046 22 42 22.8954 42 24V38C42 41.3138 39.3138 44 36 44H12C8.68631 44 6 41.3138 6 38V24ZM10 26V38C10 39.1046 10.8954 40 12 40H36C37.1046 40 38 39.1046 38 38V26H10Z" fill="white"/>
<path fill-rule="evenodd" clip-rule="evenodd" d="M24 12C25.1046 12 26 12.8954 26 14V42C26 43.1046 25.1046 44 24 44C22.8954 44 22 43.1046 22 42V14C22 12.8954 22.8954 12 24 12Z" fill="white"/>
<path fill-rule="evenodd" clip-rule="evenodd" d="M14.4545 8C13.1072 8 12 9.10484 12 10.4688C12 11.3165 12.6888 12 13.52 12H21.731C20.9934 9.68044 18.822 8 16.2581 8H14.4545ZM8 10.4688C8 6.91232 10.8815 4 14.4545 4H16.2581C21.6384 4 26 8.36161 26 13.7419C26 14.989 24.989 16 23.742 16H13.52C10.4631 16 8 13.5091 8 10.4688Z" fill="white"/>
<path fill-rule="evenodd" clip-rule="evenodd" d="M22 13.7419C22 8.3616 26.3616 4 31.742 4H33.5454C37.1184 4 40 6.91229 40 10.4688C40 13.5091 37.5368 16 34.48 16H24.258C23.011 16 22 14.989 22 13.7419ZM26.269 12H34.48C35.3112 12 36 11.3165 36 10.4688C36 9.10487 34.8928 8 33.5454 8H31.742C29.178 8 27.0066 9.68044 26.269 12Z" fill="white"/>
</svg>
