<svg width="20" height="20" viewBox="0 0 20 20" fill="none" xmlns="http://www.w3.org/2000/svg">
<path d="M16 10.15V11.425C16 13.7875 14.65 14.8 12.625 14.8H5.875C3.85 14.8 2.5 13.7875 2.5 11.425V7.375C2.5 5.0125 3.85 4 5.875 4H7.9C7.8025 4.285 7.75 4.6 7.75 4.9375V7.86252C7.75 8.59002 7.99 9.20501 8.4175 9.63251C8.845 10.06 9.46 10.3 10.1875 10.3V11.3425C10.1875 11.725 10.6225 11.9575 10.945 11.7475L13.1125 10.3H15.0625C15.4 10.3 15.715 10.2475 16 10.15Z" stroke="#2D2A26" stroke-miterlimit="10" stroke-linecap="round" stroke-linejoin="round"/>
<path d="M17.5 4.9375V7.86252C17.5 8.98002 16.93 9.81996 16 10.15C15.715 10.2475 15.4 10.3 15.0625 10.3H13.1125L10.945 11.7475C10.6225 11.9575 10.1875 11.725 10.1875 11.3425V10.3C9.46 10.3 8.845 10.06 8.4175 9.63251C7.99 9.20501 7.75 8.59002 7.75 7.86252V4.9375C7.75 4.6 7.8025 4.285 7.9 4C8.23 3.07 9.07 2.5 10.1875 2.5H15.0625C16.525 2.5 17.5 3.475 17.5 4.9375Z" stroke="#2D2A26" stroke-miterlimit="10" stroke-linecap="round" stroke-linejoin="round"/>
<path d="M6.5498 17.5H11.9498" stroke="#2D2A26" stroke-miterlimit="10" stroke-linecap="round" stroke-linejoin="round"/>
<path d="M9.25 14.8V17.5" stroke="#2D2A26" stroke-miterlimit="10" stroke-linecap="round" stroke-linejoin="round"/>
<path d="M14.8716 6.4375H14.8784" stroke="#2D2A26" stroke-linecap="round" stroke-linejoin="round"/>
<path d="M12.772 6.4375H12.7788" stroke="#2D2A26" stroke-linecap="round" stroke-linejoin="round"/>
<path d="M10.6714 6.4375H10.6782" stroke="#2D2A26" stroke-linecap="round" stroke-linejoin="round"/>
</svg>
