<svg width="23" height="21" viewBox="0 0 23 21" fill="none" xmlns="http://www.w3.org/2000/svg">
<path d="M17.362 9.71493C14.5292 3.45711 9.77899 3.19607 7.75685 3.68502L3.20703 9.87792C3.48788 13.7895 7.75685 19.494 10.2845 19.494C10.7143 19.3511 11.1188 19.1851 11.4994 18.9992M17.362 9.71493C17.699 10.4594 20.0582 12.8116 22.2488 12.9753M17.362 9.71493C17.2954 10.3206 17.1656 11.0882 16.9343 11.9308" stroke="#2D2A26" stroke-width="1.5" stroke-linecap="round"/>
<path d="M3.20703 9.97282C3.60516 9.1352 9.65668 0.145206 11.1923 1.06616" stroke="#2D2A26" stroke-width="1.5" stroke-linecap="round"/>
<path d="M2.72449 1.06641C0.909764 3.48502 -1.28864 9.45095 4.43551 13.9657" stroke="#2D2A26" stroke-width="1.5" stroke-linecap="round"/>
<circle cx="12.1138" cy="1.37353" r="0.307126" fill="#2D2A26"/>
<path d="M13.44 15.5L13 14L14.5 14.44L16 14L15.56 15.5L16 17L14.5 16.56L13 17L13.44 15.5Z" stroke="#2D2A26" stroke-width="1.5" stroke-linecap="round" stroke-linejoin="round"/>
</svg>
