<svg width="20" height="20" viewBox="0 0 20 20" fill="none" xmlns="http://www.w3.org/2000/svg">
<mask id="mask0_2171_629" style="mask-type:luminance" maskUnits="userSpaceOnUse" x="0" y="0" width="20" height="20">
<path fill-rule="evenodd" clip-rule="evenodd" d="M0 0H19.9999V20H0V0Z" fill="white"/>
</mask>
<g mask="url(#mask0_2171_629)">
<path fill-rule="evenodd" clip-rule="evenodd" d="M5.664 1.5C3.135 1.5 1.5 3.233 1.5 5.916V14.084C1.5 16.767 3.135 18.5 5.664 18.5H14.332C16.864 18.5 18.5 16.767 18.5 14.084V5.916C18.5 3.233 16.864 1.5 14.334 1.5H5.664ZM14.332 20H5.664C2.276 20 0 17.622 0 14.084V5.916C0 2.378 2.276 0 5.664 0H14.334C17.723 0 20 2.378 20 5.916V14.084C20 17.622 17.723 20 14.332 20Z" fill="#2D2A26"/>
</g>
<path fill-rule="evenodd" clip-rule="evenodd" d="M6.83838 8.89844C6.22837 8.89844 5.73438 9.39244 5.73438 10.0004C5.73438 10.6084 6.22837 11.1024 6.83637 11.1024C7.44338 11.1024 7.93837 10.6084 7.93837 10.0004C7.93837 9.39344 7.44438 8.89944 6.83838 8.89844ZM6.83637 12.6024C5.40138 12.6024 4.23438 11.4344 4.23438 10.0004C4.23438 8.56544 5.40138 7.39844 6.83637 7.39844C8.27338 7.39944 9.43837 8.56644 9.43837 10.0004C9.43837 11.4344 8.27137 12.6024 6.83637 12.6024Z" fill="#2D2A26"/>
<path fill-rule="evenodd" clip-rule="evenodd" d="M15.0094 12.603C14.5954 12.603 14.2594 12.267 14.2594 11.853V10.75H8.69141C8.27741 10.75 7.94141 10.415 7.94141 10C7.94141 9.586 8.27741 9.25 8.69141 9.25H15.0094C15.4234 9.25 15.7594 9.586 15.7594 10V11.853C15.7594 12.267 15.4234 12.603 15.0094 12.603Z" fill="#2D2A26"/>
<path fill-rule="evenodd" clip-rule="evenodd" d="M12.1816 12.603C11.7676 12.603 11.4316 12.267 11.4316 11.853V10C11.4316 9.586 11.7676 9.25 12.1816 9.25C12.5956 9.25 12.9316 9.586 12.9316 10V11.853C12.9316 12.267 12.5956 12.603 12.1816 12.603Z" fill="#2D2A26"/>
</svg>
