<svg width="24" height="24" viewBox="0 0 24 24" fill="none" xmlns="http://www.w3.org/2000/svg">
<path fill-rule="evenodd" clip-rule="evenodd" d="M11.9941 17.4257C11.5801 17.4257 11.2441 17.0897 11.2441 16.6757V14.1387C11.2441 13.7247 11.5801 13.3887 11.9941 13.3887C12.4081 13.3887 12.7441 13.7247 12.7441 14.1387V16.6757C12.7441 17.0897 12.4081 17.4257 11.9941 17.4257Z" fill="#2D2A26"/>
<mask id="mask0_1874_13544" style="mask-type:luminance" maskUnits="userSpaceOnUse" x="2" y="4" width="20" height="11">
<path fill-rule="evenodd" clip-rule="evenodd" d="M2 4.58008H21.9898V14.8911H2V4.58008Z" fill="white"/>
</mask>
<g mask="url(#mask0_1874_13544)">
<path fill-rule="evenodd" clip-rule="evenodd" d="M3.5 11.3931C5.876 12.6841 8.872 13.3911 11.99 13.3911C15.114 13.3911 18.113 12.6841 20.49 11.3931V8.39108C20.49 7.11608 19.459 6.08008 18.19 6.08008H5.81C4.536 6.08008 3.5 7.11208 3.5 8.38108V11.3931ZM11.99 14.8911C8.445 14.8911 5.028 14.0331 2.371 12.4771C2.141 12.3431 2 12.0971 2 11.8301V8.38108C2 6.28508 3.709 4.58008 5.81 4.58008H18.19C20.286 4.58008 21.99 6.28908 21.99 8.39108V11.8301C21.99 12.0971 21.848 12.3431 21.619 12.4771C18.962 14.0331 15.542 14.8911 11.99 14.8911Z" fill="#2D2A26"/>
</g>
<mask id="mask1_1874_13544" style="mask-type:luminance" maskUnits="userSpaceOnUse" x="7" y="2" width="10" height="5">
<path fill-rule="evenodd" clip-rule="evenodd" d="M7.74414 2H16.2441V6.0759H7.74414V2Z" fill="white"/>
</mask>
<g mask="url(#mask1_1874_13544)">
<path fill-rule="evenodd" clip-rule="evenodd" d="M15.4941 6.076C15.0801 6.076 14.7441 5.74 14.7441 5.326V4.96C14.7441 4.155 14.0891 3.5 13.2841 3.5H10.7041C9.89914 3.5 9.24414 4.155 9.24414 4.96V5.326C9.24414 5.74 8.90814 6.076 8.49414 6.076C8.08014 6.076 7.74414 5.74 7.74414 5.326V4.96C7.74414 3.328 9.07214 2 10.7041 2H13.2841C14.9161 2 16.2441 3.328 16.2441 4.96V5.326C16.2441 5.74 15.9081 6.076 15.4941 6.076Z" fill="#2D2A26"/>
</g>
<path fill-rule="evenodd" clip-rule="evenodd" d="M17.7946 21.74H6.19457C4.11957 21.74 2.37257 20.119 2.21557 18.049L2.02557 15.54C1.99457 15.127 2.30457 14.766 2.71757 14.735C3.13257 14.72 3.49057 15.013 3.52257 15.427L3.71157 17.935C3.80957 19.227 4.89957 20.24 6.19457 20.24H17.7946C19.0896 20.24 20.1806 19.227 20.2776 17.935L20.4676 15.427C20.4996 15.013 20.8666 14.719 21.2726 14.735C21.6856 14.766 21.9946 15.127 21.9636 15.54L21.7736 18.049C21.6166 20.119 19.8696 21.74 17.7946 21.74Z" fill="#2D2A26"/>
</svg>
