<svg width="37" height="6" viewBox="0 0 37 6" fill="none" xmlns="http://www.w3.org/2000/svg">
<path d="M5.03966 2.625C5.03966 0.792273 4.43029 0 3.03862 0C2.36337 0 1.77047 0.410454 1.41638 1.30773L0.708188 0.133636H0V5.11636H1.41638V3.91364C1.41638 1.40318 1.98457 0.229091 2.68453 0.229091C3.49153 0.229091 3.62329 0.992727 3.62329 2.625V5.11636H5.03966V2.625Z" fill="white"/>
<path d="M5.91216 2.625C5.91216 4.45773 6.52153 5.25 7.91321 5.25C8.58845 5.25 9.18136 4.83955 9.53545 3.94227L10.2436 5.11636H10.9518V0.133636H9.53545V1.33636C9.53545 3.84682 8.96725 5.02091 8.2673 5.02091C7.46029 5.02091 7.32854 4.25727 7.32854 2.625V0.133636H5.91216V2.625Z" fill="white"/>
<path d="M11.8672 2.625C11.8672 4.45773 12.4766 5.25 13.8683 5.25C14.5435 5.25 15.1364 4.83955 15.4905 3.94227L16.1987 5.11636H16.9069V0.133636H15.4905V1.33636C15.4905 3.84682 14.9223 5.02091 14.2224 5.02091C13.4154 5.02091 13.2836 4.25727 13.2836 2.625V0.133636H11.8672V2.625Z" fill="white"/>
<path d="M19.1481 4.88727L21.1656 0.372273V0.133636H17.7894V0.362727H19.5763L17.5506 4.88727V5.11636H21.4209V4.88727H19.1481Z" fill="white"/>
<path d="M31.3085 2.625C31.3085 0.792273 30.7897 0 29.5133 0C28.8628 0 28.2864 0.486818 27.9817 1.54636C27.7264 0.477273 27.3558 0 26.3018 0C25.7253 0 25.2066 0.381818 24.8854 1.21227L24.1772 0.133636H23.469V5.11636H24.8854V3.91364C24.8854 1.40318 25.3465 0.229091 25.9147 0.229091C26.6229 0.229091 26.6806 0.992727 26.6806 2.625V5.11636H28.097V3.91364C28.097 1.40318 28.5581 0.229091 29.1263 0.229091C29.8345 0.229091 29.8921 0.992727 29.8921 2.625V5.11636H31.3085V2.625Z" fill="white"/>
<path d="M33.8184 2.25273H36.75C36.6182 0.687273 35.6054 0 34.3784 0C33.0691 0 31.9903 0.792273 31.9903 2.625C31.9903 4.45773 33.0608 5.25 34.3784 5.25C35.2925 5.25 36.083 4.86818 36.4865 4.03773L36.363 3.95182C36.0912 4.67727 35.5724 5.02091 34.9878 5.02091C34.1149 5.02091 33.4067 4.25727 33.4067 2.625C33.4067 0.992727 33.8431 0.229091 34.3784 0.229091C34.8478 0.229091 35.2348 0.801818 35.3254 2.02364H33.8184V2.25273Z" fill="white"/>
</svg>
