<svg width="32" height="32" viewBox="0 0 32 32" fill="none" xmlns="http://www.w3.org/2000/svg">
<path d="M12.1602 4C12.1602 1.79086 13.951 0 16.1602 0V0C18.3693 0 20.1602 1.79086 20.1602 4V28C20.1602 30.2091 18.3693 32 16.1602 32V32C13.951 32 12.1602 30.2091 12.1602 28V4Z" fill="#D6D1CA"/>
<path d="M0 16.1602C0 13.951 1.79086 12.1602 4 12.1602H28C30.2091 12.1602 32 13.951 32 16.1602V16.1602C32 18.3693 30.2091 20.1602 28 20.1602H4C1.79086 20.1602 0 18.3693 0 16.1602V16.1602Z" fill="#D6D1CA"/>
</svg>
