<svg width="390" height="530" viewBox="0 0 390 530" fill="none" xmlns="http://www.w3.org/2000/svg">
<g opacity="0.4">
<path d="M239.262 206.87C231.843 209.766 228.105 220.04 227.163 224.814C226.43 227.575 229.728 226.562 231.469 225.71L241.475 221.55L252.144 217.18C257.653 213.332 281.713 209.576 293.055 208.178C302.497 208.062 322.43 213.423 331.215 216.118C316.993 205.252 299.922 199.492 293.164 197.97C277.896 194.516 250.868 202.465 239.262 206.87Z" stroke="white" stroke-width="2"/>
<path d="M156.391 206.87C163.81 209.766 167.548 220.04 168.49 224.814C169.223 227.575 165.925 226.562 164.184 225.71L154.178 221.55L143.509 217.18C138 213.332 113.94 209.576 102.598 208.178C93.1555 208.062 73.2233 213.423 64.4375 216.118C78.6596 205.252 95.7308 199.492 102.489 197.97C117.757 194.516 144.785 202.465 156.391 206.87Z" stroke="white" stroke-width="2"/>
<path d="M161.313 347.308C158.116 354.769 155.664 370.757 171.439 375.02" stroke="white" stroke-width="2" stroke-linecap="round"/>
<path d="M172.5 366.227C175.786 365.605 183.585 365.641 188.488 370.757C191.33 372.267 198.614 374.381 205.009 370.757C207.23 369.247 213.962 366.227 223.129 366.227" stroke="white" stroke-width="2" stroke-linecap="round"/>
<path d="M234.588 348.106C237.697 354.591 240.184 368.731 225.262 373.421" stroke="white" stroke-width="2" stroke-linecap="round"/>
<path d="M197.696 506C160.568 506 138.507 480.288 122.902 467.432C107.05 454.597 87.2364 423.225 80.0307 400.421M197.696 24C112 27.6583 55.0817 88.5853 37.8844 171.004C34.6611 185.974 32.4876 229.884 49.5803 285.761" stroke="white" stroke-width="2"/>
<path d="M197.694 506C234.822 506 256.884 480.288 272.489 467.432C288.341 454.597 308.154 423.225 315.36 400.421M197.694 24C283.39 27.6583 340.309 88.5853 357.506 171.004C360.73 185.974 362.903 229.884 345.81 285.761" stroke="white" stroke-width="2"/>
<path d="M335.492 353.487C335.644 359.329 338.817 369.152 350.299 361.712C351.046 361.127 352.642 358.535 353.05 352.839C353.691 350.449 355.459 345.024 357.41 342.446C358.55 340.872 361.139 336.712 362.379 332.656C364.995 324.903 370.448 308.176 371.335 303.298C372.954 293.841 373.98 275.635 370.217 270.136C366.462 264.358 357.003 256.423 349.21 270.911L347.712 274.099M358.523 273.909C358.458 272.519 358.82 269.972 360.799 270.901C362.481 272.37 365.974 276.307 366.49 280.297C367.501 285.272 368.424 298.686 364.032 312.548M342.739 295.374C343.311 295.423 344.539 295.976 344.864 297.802C344.51 299.277 343.983 302.47 344.708 303.446C345.627 304.178 347.231 306.193 346.293 308.399C346.108 309.45 345.374 312.192 343.925 314.752C344.001 319.552 343.671 329.588 341.743 331.33C341.287 332.739 341.075 335.113 343.88 333.339L345.634 332.23C345.612 329.238 347.004 323.45 352.746 324.241C354.544 323.409 358.537 320.978 360.125 317.913C361.025 315.582 362.556 309.303 361.482 302.827C360.949 299.435 358.22 292.798 351.564 293.378C349.783 293.583 346.006 292.748 345.142 287.768" stroke="white" stroke-width="2" stroke-linecap="round"/>
<path d="M59.9039 353.487C59.7524 359.329 56.5789 369.152 45.0972 361.712C44.3502 361.127 42.7541 358.535 42.3459 352.839C41.7055 350.449 39.937 345.024 37.9864 342.446C36.8466 340.872 34.257 336.712 33.0172 332.656C30.4012 324.903 24.9477 308.176 24.061 303.298C22.4419 293.841 21.416 275.635 25.179 270.136C28.9343 264.358 38.393 256.423 46.1859 270.911L47.6836 274.099M36.8726 273.909C36.9386 272.519 36.5757 269.972 34.5969 270.901C32.9148 272.37 29.4218 276.307 28.9058 280.297C27.895 285.272 26.9717 298.686 31.3645 312.548M52.6575 295.374C52.0846 295.423 50.8575 295.976 50.5322 297.802C50.8862 299.277 51.4131 302.47 50.6884 303.446C49.769 304.178 48.1648 306.193 49.1028 308.399C49.2885 309.45 50.0222 312.192 51.4712 314.752C51.3952 319.552 51.7252 329.588 53.6527 331.33C54.1093 332.739 54.3212 335.113 51.5158 333.339L49.7624 332.23C49.784 329.238 48.3917 323.451 42.6504 324.241C40.8525 323.409 36.8596 320.978 35.2713 317.913C34.3716 315.582 32.8405 309.303 33.9141 302.827C34.4467 299.436 37.1759 292.798 43.8321 293.378C45.6127 293.583 49.3901 292.748 50.2545 287.768" stroke="white" stroke-width="2" stroke-linecap="round"/>
</g>
<rect x="71" y="128.875" width="20.4889" height="48.8928" rx="7" stroke="#FF00B8" stroke-opacity="0.6" stroke-width="2"/>
<rect x="103.488" y="113.511" width="20.4889" height="64.489" rx="7" stroke="white" stroke-opacity="0.6" stroke-width="2"/>
<rect x="135.977" y="106.305" width="20.4889" height="70.9592" rx="7" stroke="white" stroke-opacity="0.6" stroke-width="2"/>
<rect x="168.465" y="100" width="20.4889" height="77.2643" rx="7" stroke="white" stroke-opacity="0.6" stroke-width="2"/>
<rect x="200.953" y="100" width="20.4889" height="77.2643" rx="7" stroke="white" stroke-opacity="0.6" stroke-width="2"/>
<rect x="233.441" y="106.305" width="20.4889" height="70.9592" rx="7" stroke="white" stroke-opacity="0.6" stroke-width="2"/>
<rect x="265.93" y="113.511" width="20.4889" height="64.489" rx="7" stroke="white" stroke-opacity="0.6" stroke-width="2"/>
<rect x="298.418" y="128.783" width="20.4889" height="48.8928" rx="7" stroke="white" stroke-opacity="0.6" stroke-width="2"/>
</svg>
