<svg width="15" height="16" viewBox="0 0 15 16" fill="none" xmlns="http://www.w3.org/2000/svg">
<path fill-rule="evenodd" clip-rule="evenodd" d="M10.8229 0.845681L10.8236 1.42664C12.96 1.59396 14.3713 3.04868 14.3736 5.27956L14.382 11.8095C14.3851 14.2418 12.8559 15.7384 10.4048 15.7423L4.41749 15.75C1.98169 15.7531 0.433373 14.2209 0.43031 11.7817L0.421887 5.32836C0.418824 3.08276 1.7803 1.63191 3.9167 1.43594L3.91593 0.854976C3.91517 0.514147 4.16786 0.25775 4.50478 0.25775C4.84171 0.256976 5.0944 0.512598 5.09516 0.853427L5.09593 1.39566L9.64439 1.38946L9.64363 0.84723C9.64286 0.506401 9.89555 0.250779 10.2325 0.250004C10.5617 0.249229 10.8221 0.504851 10.8229 0.845681ZM1.60282 5.56543L13.196 5.54994V5.27883C13.1631 3.61341 12.3269 2.73965 10.8261 2.60951L10.8269 3.20597C10.8269 3.53905 10.5673 3.80319 10.238 3.80319C9.90109 3.80397 9.64763 3.5406 9.64763 3.20751L9.64686 2.58008L5.0984 2.58628L5.09917 3.21294C5.09917 3.54679 4.84724 3.81016 4.51032 3.81016C4.17339 3.81094 3.91994 3.54834 3.91994 3.21449L3.91917 2.61803C2.42599 2.76753 1.59976 3.6444 1.60206 5.32453L1.60282 5.56543ZM9.91619 9.08427V9.09279C9.92385 9.44911 10.2148 9.71945 10.5678 9.71171C10.9124 9.70318 11.1873 9.40806 11.1797 9.05174C11.1636 8.71091 10.8871 8.43282 10.5433 8.4336C10.1911 8.44134 9.91543 8.72795 9.91619 9.08427ZM10.5486 12.564C10.1963 12.5562 9.91224 12.2626 9.91148 11.9063C9.90382 11.55 10.1864 11.2549 10.5386 11.2463H10.5463C10.9062 11.2463 11.1979 11.5399 11.1979 11.904C11.1987 12.2681 10.9077 12.5632 10.5486 12.564ZM6.76017 9.09663C6.77549 9.45295 7.06723 9.73104 7.41947 9.71555C7.76405 9.69928 8.03895 9.40493 8.02363 9.0486C8.01521 8.70003 7.73189 8.42892 7.38731 8.42969C7.03507 8.44518 6.75941 8.74031 6.76017 9.09663ZM7.42239 12.5302C7.07015 12.5457 6.77917 12.2676 6.76309 11.9113C6.76309 11.555 7.03799 11.2607 7.39023 11.2444C7.73481 11.2436 8.0189 11.5147 8.02655 11.8625C8.04263 12.2196 7.76697 12.514 7.42239 12.5302ZM3.6061 9.12593C3.62141 9.48225 3.91316 9.76111 4.2654 9.74484C4.60998 9.72935 4.88487 9.43422 4.86879 9.0779C4.86114 8.72933 4.57782 8.45821 4.23247 8.45899C3.88023 8.47448 3.60533 8.76961 3.6061 9.12593ZM4.26734 12.5359C3.9151 12.5521 3.62412 12.2733 3.60804 11.9169C3.60728 11.5606 3.88294 11.2655 4.23518 11.25C4.57976 11.2492 4.86385 11.5203 4.8715 11.8689C4.88758 12.2252 4.61269 12.5204 4.26734 12.5359Z" fill="#2D2A26"/>
</svg>
