<svg width="32" height="32" viewBox="0 0 32 32" fill="none" xmlns="http://www.w3.org/2000/svg">
<path d="M11.1852 3.04762C13.3251 -1.01587 18.6749 -1.01587 20.8148 3.04762L31.2469 22.8571C33.3868 26.9206 30.7119 32 26.4321 32H5.56794C1.28812 32 -1.38676 26.9206 0.753146 22.8571L11.1852 3.04762Z" fill="white"/>
<path fill-rule="evenodd" clip-rule="evenodd" d="M28.037 24.8889L17.6049 5.07937C16.8916 3.72487 15.1084 3.72487 14.3951 5.07936L3.96301 24.8889C3.24971 26.2434 4.14134 27.9365 5.56794 27.9365H26.4321C27.8587 27.9365 28.7503 26.2434 28.037 24.8889ZM20.8148 3.04762C18.6749 -1.01587 13.3251 -1.01587 11.1852 3.04762L0.753146 22.8571C-1.38676 26.9206 1.28812 32 5.56794 32H26.4321C30.7119 32 33.3868 26.9206 31.2469 22.8571L20.8148 3.04762Z" fill="#FF4E4E"/>
<path d="M14.8321 14.4101L14.7627 12.292H16.8197L16.7502 14.4101L16.4583 20.0329H15.124L14.8321 14.4101ZM15.7912 24.0863C15.4298 24.0863 15.1287 23.9491 14.8877 23.6748C14.6468 23.3904 14.5264 23.0399 14.5264 22.6234C14.5264 22.2069 14.6468 21.8615 14.8877 21.5872C15.1287 21.3028 15.4298 21.1606 15.7912 21.1606C16.1526 21.1606 16.4537 21.3028 16.6946 21.5872C16.9448 21.8615 17.0699 22.2069 17.0699 22.6234C17.0699 23.0399 16.9448 23.3904 16.6946 23.6748C16.4537 23.9491 16.1526 24.0863 15.7912 24.0863Z" fill="#FF4E4E"/>
</svg>
