<svg width="289" height="402" viewBox="0 0 289 402" fill="none" xmlns="http://www.w3.org/2000/svg">
<path d="M18.5664 181.293C16.5664 175.626 7.06641 167.293 5.56641 181.293" stroke="white" stroke-width="2" stroke-linecap="round"/>
<path d="M8.06641 190.793C11.8997 192.626 19.7664 200.293 20.5664 216.293" stroke="white" stroke-width="2" stroke-linecap="round"/>
<path d="M11.0667 165.793C24.0668 164.06 20.0665 189.293 28.5666 202.293V238.793C29.5666 244.46 28.0574 253.602 20.5668 250.793C12.5668 247.793 21.802 224.793 9.06658 202.293C-5.9331 175.793 3.12142 166.852 11.0667 165.793Z" stroke="white" stroke-width="2" stroke-linecap="round"/>
<path d="M28.0663 203.208C9.23021 150.579 10.5979 31.6824 93.7096 8.71765C181.223 -15.4633 305.567 8.71768 260.067 204.708" stroke="white" stroke-width="2" stroke-linecap="round"/>
<path d="M259.066 232.155C259.066 278.771 245.227 320.943 223.967 351.437C202.695 381.949 174.089 400.655 144.567 400.655C115.041 400.655 86.1845 381.946 64.6626 351.433C43.1537 320.938 29.0664 278.766 29.0664 232.155C29.0664 193.426 32.0708 157.921 45.9642 129.595C65.5733 89.6158 106.189 74.6545 141.066 74.6545C176.915 74.6545 225.172 87.9771 244.661 129.579C257.684 157.378 259.066 194.722 259.066 232.155Z" stroke="white" stroke-width="2"/>
<path d="M277.84 165.8C264.841 164.067 267.066 187.215 260.342 202.3V238.8C259.342 244.467 260.851 253.609 268.341 250.8C276.341 247.8 267.106 224.8 279.84 202.3C294.839 175.8 285.785 166.859 277.84 165.8Z" stroke="white" stroke-width="2" stroke-linecap="round"/>
<path d="M280.841 190.8C277.008 192.633 269.142 200.3 268.342 216.3" stroke="white" stroke-width="2" stroke-linecap="round"/>
<path d="M270.341 181.3C272.341 175.633 281.84 167.3 283.34 181.3" stroke="white" stroke-width="2" stroke-linecap="round"/>
</svg>
