<svg width="337" height="419" viewBox="0 0 337 419" fill="none" xmlns="http://www.w3.org/2000/svg">
<path d="M206.74 164.939C199.954 167.587 196.535 176.985 195.673 181.353C195.002 183.878 198.02 182.951 199.612 182.172L208.765 178.366L218.524 174.369C223.564 170.85 245.572 167.413 255.947 166.135C264.584 166.029 282.817 170.932 290.854 173.397C277.844 163.458 262.229 158.189 256.047 156.797C242.08 153.638 217.356 160.908 206.74 164.939Z" stroke="white" stroke-width="2"/>
<path d="M130.939 164.939C137.726 167.587 141.145 176.985 142.007 181.353C142.678 183.878 139.66 182.951 138.068 182.172L128.915 178.366L119.156 174.369C114.116 170.85 92.1074 167.413 81.7331 166.135C73.0953 166.029 54.8625 170.932 46.8258 173.397C59.8353 163.458 75.451 158.189 81.6327 156.797C95.5993 153.638 120.323 160.908 130.939 164.939Z" stroke="white" stroke-width="2"/>
<path d="M142.584 271.053C140.283 276.424 138.518 287.932 149.873 291" stroke="white" stroke-width="2" stroke-linecap="round"/>
<path d="M150.641 284.671C153.006 284.223 158.619 284.249 162.149 287.932C164.194 289.018 169.437 290.54 174.04 287.932C175.638 286.845 180.485 284.671 187.082 284.671" stroke="white" stroke-width="2" stroke-linecap="round"/>
<path d="M195.33 271.628C197.568 276.295 199.358 286.474 188.617 289.849" stroke="white" stroke-width="2" stroke-linecap="round"/>
<path d="M168.871 417.822C134.875 417.822 114.675 395.157 100.387 383.825C85.8714 372.511 55.1914 344.858 48.5935 324.757M168.871 1C90.4043 4.22468 38.2871 57.93 22.5405 130.579C19.5891 143.775 17.599 182.48 33.2498 231.735" stroke="white" stroke-width="2"/>
<path d="M168.726 417.822C202.722 417.822 222.923 395.157 237.211 383.825C251.726 372.511 282.406 344.858 289.004 324.757M168.726 1C247.193 4.22468 299.311 57.93 315.057 130.579C318.009 143.775 319.999 182.48 304.348 231.735" stroke="white" stroke-width="2"/>
<path d="M294.772 303.231C294.911 308.575 297.814 317.56 308.316 310.754C309 310.22 310.46 307.848 310.833 302.638C311.419 300.452 313.037 295.489 314.821 293.131C315.864 291.692 318.232 287.886 319.366 284.176C321.759 277.083 326.748 261.783 327.559 257.321C329.04 248.67 329.979 232.016 326.536 226.986C323.101 221.7 314.449 214.442 307.32 227.695L305.95 230.611" stroke="white" stroke-width="2" stroke-linecap="round"/>
<path d="M315.839 230.437C315.779 229.166 316.111 226.836 317.921 227.686C319.46 229.03 322.655 232.631 323.127 236.281C324.051 240.831 324.896 253.102 320.878 265.782" stroke="white" stroke-width="2" stroke-linecap="round"/>
<path d="M301.401 250.072C301.925 250.117 303.047 250.623 303.345 252.293C303.021 253.642 302.539 256.563 303.202 257.456C304.043 258.125 305.51 259.969 304.652 261.987C304.482 262.948 303.811 265.456 302.486 267.798C302.555 272.189 302.253 281.369 300.49 282.962C300.073 284.251 299.879 286.423 302.445 284.8L304.049 283.786C304.029 281.049 305.303 275.755 310.554 276.478C312.199 275.717 315.852 273.494 317.304 270.689C318.128 268.558 319.528 262.813 318.546 256.89C318.059 253.787 315.562 247.716 309.474 248.246C307.845 248.434 304.389 247.67 303.599 243.114" stroke="white" stroke-width="2" stroke-linecap="round"/>
<path d="M42.6772 303.231C42.5386 308.575 39.6356 317.56 29.1328 310.754C28.4495 310.22 26.9895 307.848 26.6161 302.638C26.0303 300.452 24.4126 295.489 22.6283 293.131C21.5857 291.692 19.2169 287.886 18.0827 284.176C15.6898 277.083 10.7013 261.783 9.89013 257.321C8.40914 248.67 7.47067 232.016 10.9128 226.986C14.3479 221.7 23.0003 214.442 30.1288 227.695L31.4988 230.611" stroke="white" stroke-width="2" stroke-linecap="round"/>
<path d="M21.61 230.437C21.6703 229.166 21.3384 226.836 19.5283 227.686C17.9896 229.03 14.7944 232.63 14.3224 236.281C13.3978 240.831 12.5532 253.102 16.5715 265.782" stroke="white" stroke-width="2" stroke-linecap="round"/>
<path d="M36.0486 250.072C35.5246 250.117 34.4021 250.623 34.1045 252.293C34.4284 253.642 34.9103 256.563 34.2474 257.456C33.4064 258.125 31.9389 259.969 32.797 261.987C32.9669 262.948 33.638 265.456 34.9634 267.798C34.894 272.189 35.1958 281.369 36.959 282.962C37.3767 284.251 37.5705 286.423 35.0043 284.8L33.4004 283.786C33.4201 281.049 32.1466 275.755 26.8947 276.478C25.2501 275.717 21.5976 273.494 20.1447 270.689C19.3217 268.558 17.9212 262.813 18.9033 256.89C19.3904 253.787 21.8869 247.716 27.9757 248.246C29.6045 248.434 33.0598 247.67 33.8505 243.114" stroke="white" stroke-width="2" stroke-linecap="round"/>
</svg>
