<svg width="86" height="11" viewBox="0 0 86 11" fill="none" xmlns="http://www.w3.org/2000/svg">
<path d="M11.7935 5.5C11.7935 1.66 10.3675 0 7.11079 0C5.53061 0 4.14314 0.86 3.31451 2.74L1.65726 0.28H0V10.72H3.31451V8.2C3.31451 2.94 4.64417 0.48 6.28216 0.48C8.17066 0.48 8.47899 2.08 8.47899 5.5V10.72H11.7935V5.5Z" fill="#2D2A26"/>
<path d="M13.8353 5.5C13.8353 9.34 15.2613 11 18.518 11C20.0982 11 21.4856 10.14 22.3143 8.26L23.9715 10.72H25.6288V0.28H22.3143V2.8C22.3143 8.06 20.9846 10.52 19.3466 10.52C17.4581 10.52 17.1498 8.92 17.1498 5.5V0.28H13.8353V5.5Z" fill="#2D2A26"/>
<path d="M27.7709 5.5C27.7709 9.34 29.197 11 32.4537 11C34.0338 11 35.4213 10.14 36.2499 8.26L37.9072 10.72H39.5644V0.28H36.2499V2.8C36.2499 8.06 34.9203 10.52 33.2823 10.52C31.3938 10.52 31.0855 8.92 31.0855 5.5V0.28H27.7709V5.5Z" fill="#2D2A26"/>
<path d="M44.8092 10.24L49.5304 0.78V0.28H41.6295V0.76H45.8112L41.0707 10.24V10.72H50.1278V10.24H44.8092Z" fill="#2D2A26"/>
<path d="M73.2662 5.5C73.2662 1.66 72.0521 0 69.0652 0C67.5428 0 66.1939 1.02 65.4809 3.24C64.8835 1 64.0164 0 61.5497 0C60.2008 0 58.9868 0.8 58.2352 2.54L56.578 0.28H54.9207V10.72H58.2352V8.2C58.2352 2.94 59.3144 0.48 60.644 0.48C62.3013 0.48 62.4362 2.08 62.4362 5.5V10.72H65.7507V8.2C65.7507 2.94 66.8298 0.48 68.1595 0.48C69.8168 0.48 69.9517 2.08 69.9517 5.5V10.72H73.2662V5.5Z" fill="#75777A"/>
<path d="M79.1397 4.72H86C85.6917 1.44 83.3214 0 80.4501 0C77.3861 0 74.8617 1.66 74.8617 5.5C74.8617 9.34 77.3669 11 80.4501 11C82.5891 11 84.4391 10.2 85.3833 8.46L85.0943 8.28C84.4584 9.8 83.2443 10.52 81.8761 10.52C79.8335 10.52 78.1762 8.92 78.1762 5.5C78.1762 2.08 79.1975 0.48 80.4501 0.48C81.5485 0.48 82.4542 1.68 82.6662 4.24H79.1397V4.72Z" fill="#75777A"/>
</svg>
