<svg width="12" height="20" viewBox="0 0 12 20" fill="none" xmlns="http://www.w3.org/2000/svg">
<path d="M5.59441 16.0839C6.6758 16.0839 7.55245 16.9606 7.55245 18.042C7.55245 19.1234 6.6758 20 5.59441 20C4.51301 20 3.63637 19.1234 3.63637 18.042C3.63637 16.9606 4.51301 16.0839 5.59441 16.0839ZM5.59441 0C8.68411 0 11.1888 2.5047 11.1888 5.59441C11.1888 8.20079 9.40644 10.3909 6.99407 11.0123L6.99301 12.5874C6.99301 13.3598 6.36683 13.986 5.59441 13.986C4.82198 13.986 4.1958 13.3598 4.1958 12.5874V9.79021C4.1958 9.01778 4.82198 8.39161 5.59441 8.39161C7.13926 8.39161 8.39161 7.13926 8.39161 5.59441C8.39161 4.04955 7.13926 2.7972 5.59441 2.7972C4.04955 2.7972 2.7972 4.04955 2.7972 5.59441C2.7972 6.36683 2.17103 6.99301 1.3986 6.99301C0.626175 6.99301 0 6.36683 0 5.59441C0 2.5047 2.5047 0 5.59441 0Z" fill="white"/>
</svg>
