<svg width="24" height="24" viewBox="0 0 24 24" fill="none" xmlns="http://www.w3.org/2000/svg">
<path d="M18.0334 2H5.96661C4.90317 2 4 2.80304 4 3.84129V20.547C4.00313 21.8648 5.72227 22.4831 6.69963 21.5581L11.2992 17.2529C11.6677 16.8928 12.3323 16.8928 12.7008 17.2529L17.3004 21.5581C18.2781 22.4835 19.9971 21.8642 20 20.547V3.84129C20 2.80304 19.0968 2 18.0334 2V2Z" fill="#2D2A26"/>
<path d="M8.05249 7.94968C8.11345 7.75091 8.22645 7.57388 8.37874 7.43855C8.53103 7.30322 8.71654 7.21499 8.91435 7.1838L10.3827 6.96181L11.0424 5.57436C11.1399 5.39961 11.2797 5.25461 11.4477 5.15383C11.6157 5.05304 11.8062 5 12 5C12.1938 5 12.3843 5.05304 12.5523 5.15383C12.7203 5.25461 12.8601 5.39961 12.9576 5.57436L13.6173 6.96181L15.0857 7.1838C15.2835 7.21499 15.469 7.30322 15.6213 7.43855C15.7735 7.57388 15.8865 7.75091 15.9475 7.94968C16.009 8.14547 16.0166 8.35531 15.9696 8.55541C15.9226 8.75552 15.8228 8.93788 15.6815 9.08184L14.6068 10.1696L14.8622 11.7013C14.8971 11.9061 14.8757 12.117 14.8003 12.3095C14.725 12.502 14.5989 12.6683 14.4366 12.7891C14.2561 12.9229 14.0409 12.9964 13.8195 13C13.6448 12.9993 13.473 12.9535 13.3194 12.8668L12 12.1453L10.6806 12.8668C10.5054 12.9643 10.3075 13.0084 10.1095 12.9943C9.91138 12.9801 9.7211 12.9082 9.56029 12.7867C9.39949 12.6652 9.27462 12.4991 9.19992 12.3072C9.12523 12.1153 9.1037 11.9054 9.13779 11.7013L9.39316 10.1696L8.3185 9.08184C8.17721 8.93788 8.07741 8.75552 8.03039 8.55541C7.98338 8.35531 7.99103 8.14547 8.05249 7.94968ZM10.1273 9.37043L9.06331 8.28266L10.5423 8.06067C10.7124 8.03299 10.8737 7.96309 11.0126 7.85685C11.1515 7.75062 11.2639 7.61116 11.3403 7.45019L12 6.06274L12.6597 7.46129C12.7383 7.61951 12.8515 7.7562 12.9901 7.86033C13.1288 7.96445 13.2889 8.03308 13.4577 8.06067L14.9367 8.28266L13.8727 9.37043C13.7466 9.49534 13.6523 9.65109 13.5984 9.82358C13.5445 9.99607 13.5327 10.1799 13.5641 10.3583L13.8195 11.89L12.4894 11.1575C12.3375 11.078 12.17 11.0363 12 11.0354C11.8285 11.0347 11.6599 11.0806 11.5106 11.1686L10.1805 11.89L10.4359 10.3472C10.4664 10.1705 10.4541 9.98858 10.4003 9.81802C10.3464 9.64747 10.2526 9.49362 10.1273 9.37043Z" fill="white" fill-opacity="0.6"/>
</svg>
