<svg width="16" height="16" viewBox="0 0 16 16" fill="none" xmlns="http://www.w3.org/2000/svg">
<path d="M14.6668 6.49992C14.3935 6.49992 14.1668 6.27325 14.1668 5.99992V4.66658C14.1668 2.94659 13.0535 1.83325 11.3335 1.83325H4.66683C2.94683 1.83325 1.8335 2.94659 1.8335 4.66658V5.99992C1.8335 6.27325 1.60683 6.49992 1.3335 6.49992C1.06016 6.49992 0.833496 6.27325 0.833496 5.99992V4.66658C0.833496 2.37325 2.3735 0.833252 4.66683 0.833252H11.3335C13.6268 0.833252 15.1668 2.37325 15.1668 4.66658V5.99992C15.1668 6.27325 14.9402 6.49992 14.6668 6.49992Z" fill="white"/>
<path d="M11.3335 15.1667H4.66683C2.3735 15.1667 0.833496 13.6267 0.833496 11.3333V10C0.833496 9.72667 1.06016 9.5 1.3335 9.5C1.60683 9.5 1.8335 9.72667 1.8335 10V11.3333C1.8335 13.0533 2.94683 14.1667 4.66683 14.1667H11.3335C13.0535 14.1667 14.1668 13.0533 14.1668 11.3333V10C14.1668 9.72667 14.3935 9.5 14.6668 9.5C14.9402 9.5 15.1668 9.72667 15.1668 10V11.3333C15.1668 13.6267 13.6268 15.1667 11.3335 15.1667Z" fill="white"/>
<path d="M14.6668 8.5H1.3335C1.06016 8.5 0.833496 8.27333 0.833496 8C0.833496 7.72667 1.06016 7.5 1.3335 7.5H14.6668C14.9402 7.5 15.1668 7.72667 15.1668 8C15.1668 8.27333 14.9402 8.5 14.6668 8.5Z" fill="white"/>
<path opacity="0.4" d="M10.9998 5.99992H4.99984C4.81317 5.99992 4.6665 5.85325 4.6665 5.66659V4.33325C4.6665 3.78659 5.11317 3.33325 5.6665 3.33325H10.3332C10.8865 3.33325 11.3332 3.78659 11.3332 4.33325V5.66659C11.3332 5.85325 11.1865 5.99992 10.9998 5.99992Z" fill="white"/>
<path opacity="0.4" d="M10.9998 10H4.99984C4.81317 10 4.6665 10.1467 4.6665 10.3333V11.6667C4.6665 12.2133 5.11317 12.6667 5.6665 12.6667H10.3332C10.8865 12.6667 11.3332 12.2133 11.3332 11.6667V10.3333C11.3332 10.1467 11.1865 10 10.9998 10Z" fill="white"/>
</svg>
