<svg width="4" height="16" viewBox="0 0 4 16" fill="none" xmlns="http://www.w3.org/2000/svg">
<path d="M0.0390625 7.99778C0.0390625 8.94012 0.805927 9.70699 1.74827 9.70699C2.69061 9.70699 3.45748 8.94012 3.45748 7.99778C3.45748 7.05544 2.69061 6.28857 1.74827 6.28857C0.805927 6.28857 0.0390625 7.05544 0.0390625 7.99778Z" fill="#B4AEA7"/>
<path d="M0 14.2903C0 15.2326 0.766864 15.9995 1.70921 15.9995C2.65155 15.9995 3.41841 15.2326 3.41841 14.2903C3.41841 13.3479 2.65155 12.5811 1.70921 12.5811C0.766864 12.5811 0 13.3479 0 14.2903Z" fill="#B4AEA7"/>
<path d="M0 1.70921C0 2.65155 0.766864 3.41841 1.70921 3.41841C2.65155 3.41841 3.41841 2.65155 3.41841 1.70921C3.41841 0.766864 2.65155 0 1.70921 0C0.766864 0 0 0.766864 0 1.70921Z" fill="#B4AEA7"/>
</svg>
