<svg width="17" height="12" viewBox="0 0 17 12" fill="none" xmlns="http://www.w3.org/2000/svg">
<path d="M8.18294 12C8.13984 11.9998 8.09721 11.9907 8.05749 11.9732C8.01777 11.9557 7.98173 11.9302 7.95144 11.8982L5.85647 9.69185C5.82453 9.65908 5.79936 9.61983 5.7825 9.5765C5.76564 9.53318 5.75745 9.48671 5.75843 9.43996C5.75941 9.3932 5.76954 9.34715 5.78821 9.30464C5.80687 9.26214 5.83366 9.22407 5.86694 9.19279C6.51392 8.62094 7.33393 8.30715 8.18137 8.30715C9.0288 8.30715 9.84881 8.62094 10.4958 9.19279C10.5285 9.22435 10.5547 9.26258 10.5727 9.30513C10.5907 9.34767 10.6002 9.39362 10.6005 9.44013C10.6013 9.48687 10.593 9.53329 10.5761 9.57656C10.5591 9.61984 10.534 9.65906 10.5021 9.69185L8.4071 11.8982C8.34805 11.9615 8.26754 11.9981 8.18294 12ZM11.8575 8.12792C11.7742 8.12801 11.6939 8.09472 11.6334 8.03489C10.689 7.13972 9.45959 6.64384 8.18451 6.64384C6.90942 6.64384 5.67999 7.13972 4.73565 8.03489C4.67508 8.09472 4.59485 8.12801 4.51149 8.12792C4.46867 8.12818 4.42622 8.11951 4.38665 8.10241C4.34708 8.08531 4.31117 8.06012 4.28104 8.02832L3.07224 6.75113C3.04035 6.71833 3.01502 6.67923 2.99773 6.63611C2.98044 6.59299 2.97154 6.54671 2.97154 6.49995C2.97154 6.4532 2.98044 6.40692 2.99773 6.36379C3.01502 6.32067 3.04035 6.28158 3.07224 6.24878C4.45972 4.89993 6.2846 4.15009 8.17979 4.15009C10.075 4.15009 11.8999 4.89993 13.2873 6.24878C13.3199 6.28116 13.346 6.32001 13.3639 6.36305C13.3819 6.40608 13.3915 6.45245 13.3921 6.49941C13.3924 6.5936 13.357 6.68409 13.2936 6.75113L12.0869 8.02832C12.0567 8.06002 12.0208 8.08514 11.9813 8.10224C11.9417 8.11933 11.8993 8.12806 11.8565 8.12792H11.8575ZM14.6386 5.18938C14.5548 5.18957 14.4743 5.15538 14.4144 5.09416C12.7322 3.42293 10.4996 2.49098 8.17822 2.49098C5.85688 2.49098 3.62429 3.42293 1.942 5.09416C1.88143 5.15659 1.79978 5.19159 1.7147 5.19159C1.62962 5.19159 1.54796 5.15659 1.48739 5.09416L0.281734 3.81368C0.250316 3.78094 0.225389 3.74205 0.20838 3.69923C0.191372 3.65641 0.182617 3.61051 0.182617 3.56415C0.182617 3.51779 0.191372 3.47189 0.20838 3.42907C0.225389 3.38625 0.250316 3.34736 0.281734 3.31462C2.40713 1.18747 5.23662 0 8.17979 0C11.123 0 13.9525 1.18747 16.0779 3.31462C16.1102 3.34698 16.136 3.38567 16.154 3.42849C16.172 3.47131 16.1817 3.51741 16.1826 3.56415C16.183 3.61067 16.1745 3.65681 16.1576 3.69985C16.1407 3.74289 16.1157 3.78196 16.0841 3.81477L14.8722 5.08978C14.8417 5.12203 14.8053 5.14748 14.7652 5.1646C14.725 5.18172 14.682 5.19015 14.6386 5.18938Z" fill="white"/>
</svg>
