<svg width="24" height="24" viewBox="0 0 24 24" fill="none" xmlns="http://www.w3.org/2000/svg">
<path d="M11.9411 22.9999C11.8686 22.9999 11.7953 22.9825 11.7293 22.9477L1.19578 17.4481C1.04454 17.3692 0.949219 17.2125 0.949219 17.042V6.7303C0.949219 6.57173 1.03171 6.42416 1.16645 6.34075C1.30119 6.25734 1.47076 6.25001 1.61192 6.32058L12.1455 11.591C12.3004 11.6689 12.3984 11.8275 12.3984 12.0007V22.5416C12.3984 22.702 12.315 22.8505 12.1775 22.9339C12.106 22.9779 12.0235 22.9999 11.9411 22.9999ZM1.86582 16.7643L11.4828 21.7854V12.284L1.86582 7.47183V16.7643Z" fill="#D6D1CA" stroke="#D6D1CA" stroke-width="0.2"/>
<path d="M11.9563 22.9986C11.8739 22.9986 11.7914 22.9766 11.7189 22.9326C11.5824 22.8492 11.498 22.7007 11.498 22.5403V11.9995C11.498 11.8262 11.5961 11.6677 11.751 11.5897L22.2846 6.31931C22.4248 6.24782 22.5953 6.25515 22.73 6.33948C22.8657 6.42289 22.9482 6.57046 22.9482 6.72903V17.0408C22.9482 17.2112 22.8529 17.368 22.7016 17.4468L12.1681 22.9464C12.1021 22.9812 12.0288 22.9986 11.9563 22.9986ZM12.4146 12.2827V21.7841L22.0316 16.763V7.47056L12.4146 12.2827ZM22.4899 17.0408H22.499H22.4899Z" fill="#D6D1CA" stroke="#D6D1CA" stroke-width="0.2"/>
<path d="M1.40847 7.18657C1.23982 7.18657 1.07849 7.094 0.997834 6.93359C0.884176 6.70719 0.976753 6.43221 1.20315 6.31855L11.7514 1.04812C11.8806 0.98396 12.0327 0.98396 12.1611 1.04812L22.6946 6.31855C22.921 6.43221 23.0127 6.70719 22.8999 6.93359C22.7863 7.15999 22.5122 7.25073 22.2849 7.13891L11.9567 1.97022L1.61379 7.13799C1.54779 7.17099 1.47813 7.18657 1.40847 7.18657Z" fill="#D6D1CA" stroke="#D6D1CA" stroke-width="0.2"/>
<path d="M17.4491 14.7492C17.1961 14.7492 16.9908 14.5439 16.9908 14.2909V9.53286L6.71024 4.38892C6.48384 4.27618 6.39218 4.00028 6.50583 3.77388C6.61949 3.54748 6.89447 3.45674 7.12087 3.56856L17.6544 8.839C17.8093 8.91782 17.9074 9.0764 17.9074 9.24963V14.2909C17.9074 14.5439 17.7021 14.7492 17.4491 14.7492Z" fill="#D6D1CA" stroke="#D6D1CA" stroke-width="0.2"/>
</svg>
