<svg width="24" height="24" viewBox="0 0 24 24" fill="none" xmlns="http://www.w3.org/2000/svg">
<path d="M12 1.5L1.5 7V17L12 22.5L22 17.2381V6.23809L12 1.5Z" fill="#C68590"/>
<path d="M11.9918 22.9999C11.9194 22.9999 11.8461 22.9825 11.7801 22.9477L1.24656 17.4481C1.09533 17.3692 1 17.2125 1 17.042V6.7303C1 6.57173 1.08249 6.42416 1.21723 6.34075C1.35197 6.25734 1.52154 6.25001 1.6627 6.32058L12.1962 11.591C12.3511 11.6689 12.4492 11.8275 12.4492 12.0007V22.5416C12.4492 22.702 12.3658 22.8505 12.2283 22.9339C12.1568 22.9779 12.0743 22.9999 11.9918 22.9999ZM1.9166 16.7643L11.5335 21.7854V12.284L1.9166 7.47183V16.7643Z" fill="white" stroke="white" stroke-width="0.2"/>
<path d="M12.0071 22.9986C11.9246 22.9986 11.8421 22.9766 11.7697 22.9326C11.6332 22.8492 11.5488 22.7007 11.5488 22.5403V11.9995C11.5488 11.8262 11.6469 11.6677 11.8018 11.5897L22.3353 6.31931C22.4756 6.24782 22.6461 6.25515 22.7808 6.33948C22.9165 6.42289 22.999 6.57046 22.999 6.72903V17.0408C22.999 17.2112 22.9036 17.368 22.7524 17.4468L12.2189 22.9464C12.1529 22.9812 12.0795 22.9986 12.0071 22.9986V22.9986ZM12.4654 12.2827V21.7841L22.0824 16.763V7.47056L12.4654 12.2827ZM22.5407 17.0408H22.5498H22.5407Z" fill="white" stroke="white" stroke-width="0.2"/>
<path d="M1.45925 7.18657C1.2906 7.18657 1.12928 7.094 1.04862 6.93359C0.934958 6.70719 1.02753 6.43221 1.25393 6.31855L11.8021 1.04812C11.9314 0.98396 12.0835 0.98396 12.2119 1.04812L22.7454 6.31855C22.9718 6.43221 23.0634 6.70719 22.9507 6.93359C22.837 7.15999 22.563 7.25073 22.3357 7.13891L12.0075 1.97022L1.66457 7.13799C1.59857 7.17099 1.52891 7.18657 1.45925 7.18657V7.18657Z" fill="white" stroke="white" stroke-width="0.2"/>
<path d="M17.4999 14.7492C17.2469 14.7492 17.0416 14.5439 17.0416 14.2909V9.53286L6.76102 4.38892C6.53462 4.27618 6.44296 4.00028 6.55662 3.77388C6.67027 3.54748 6.94525 3.45674 7.17165 3.56856L17.7052 8.839C17.8601 8.91782 17.9582 9.0764 17.9582 9.24963V14.2909C17.9582 14.5439 17.7529 14.7492 17.4999 14.7492V14.7492Z" fill="white" stroke="white" stroke-width="0.2"/>
</svg>
