<svg width="18" height="20" viewBox="0 0 18 20" fill="none" xmlns="http://www.w3.org/2000/svg">
<path fill-rule="evenodd" clip-rule="evenodd" d="M13.4109 0.768617L13.4119 1.51824C16.1665 1.73413 17.9862 3.61119 17.9891 6.48975L18 14.9155C18.0039 18.054 16.0322 19.985 12.8718 19.99L5.15188 20C2.01119 20.004 0.0148166 18.027 0.0108673 14.8795L6.64975e-06 6.55272C-0.00394266 3.65517 1.75153 1.78311 4.50617 1.53024L4.50518 0.780611C4.5042 0.340832 4.83001 0.00999726 5.26444 0.00999726C5.69886 0.00899776 6.02468 0.338833 6.02567 0.778612L6.02666 1.47826L11.8914 1.47027L11.8904 0.770616C11.8894 0.330837 12.2152 0.00100177 12.6497 2.26549e-06C13.0742 -0.000997234 13.4099 0.328838 13.4109 0.768617ZM1.52052 6.86183L16.4687 6.84184V6.49202C16.4262 4.3431 15.348 3.21566 13.4129 3.04774L13.4139 3.81736C13.4139 4.24714 13.0792 4.58797 12.6546 4.58797C12.2202 4.58897 11.8934 4.24914 11.8934 3.81936L11.8924 3.00976L6.02767 3.01776L6.02866 3.82635C6.02866 4.25714 5.70383 4.59697 5.2694 4.59697C4.83498 4.59797 4.50817 4.25914 4.50817 3.82835L4.50718 3.05874C2.5819 3.25164 1.51657 4.38308 1.51953 6.55099L1.52052 6.86183ZM12.2383 11.404V11.415C12.2481 11.8748 12.6233 12.2236 13.0785 12.2136C13.5228 12.2026 13.8772 11.8218 13.8674 11.3621C13.8466 10.9223 13.4902 10.5635 13.0469 10.5645C12.5927 10.5744 12.2373 10.9443 12.2383 11.404ZM13.0541 15.8916C12.5999 15.8816 12.2336 15.5027 12.2326 15.043C12.2227 14.5832 12.5871 14.2024 13.0412 14.1914H13.0511C13.5152 14.1914 13.8913 14.5702 13.8913 15.04C13.8923 15.5097 13.5171 15.8906 13.0541 15.8916ZM8.17187 11.4211C8.19162 11.8809 8.56779 12.2397 9.02196 12.2197C9.46626 12.1987 9.82071 11.8189 9.80096 11.3591C9.7901 10.9094 9.42479 10.5595 8.98049 10.5605C8.52632 10.5805 8.17088 10.9613 8.17187 11.4211ZM9.02586 15.8467C8.57169 15.8667 8.19651 15.5078 8.17577 15.0481C8.17577 14.5883 8.53023 14.2085 8.9844 14.1875C9.42869 14.1865 9.79499 14.5363 9.80487 14.9851C9.8256 15.4459 9.47016 15.8257 9.02586 15.8467ZM4.10351 11.4563C4.12326 11.916 4.49943 12.2759 4.9536 12.2549C5.3979 12.2349 5.75235 11.8541 5.73161 11.3943C5.72174 10.9445 5.35643 10.5947 4.91115 10.5957C4.45697 10.6157 4.10252 10.9965 4.10351 11.4563ZM4.95751 15.8525C4.50334 15.8735 4.12815 15.5137 4.10742 15.0539C4.10643 14.5942 4.46187 14.2133 4.91604 14.1934C5.36034 14.1924 5.72663 14.5422 5.73651 14.992C5.75724 15.4517 5.40279 15.8325 4.95751 15.8525Z" fill="#C68590"/>
</svg>
