<svg width="21" height="20" viewBox="0 0 21 20" fill="none" xmlns="http://www.w3.org/2000/svg">
<path fill-rule="evenodd" clip-rule="evenodd" d="M18.0206 17.0699C14.9644 20.1263 10.439 20.7867 6.73564 19.074C6.18893 18.8539 5.7407 18.676 5.31459 18.676C4.12771 18.683 2.65038 19.8339 1.88258 19.067C1.11477 18.2991 2.26648 16.8206 2.26648 15.6266C2.26648 15.2004 2.09563 14.7602 1.87554 14.2124C0.162049 10.5096 0.823328 5.98269 3.87948 2.92721C7.78082 -0.975568 14.1192 -0.975568 18.0206 2.9262C21.929 6.83501 21.9219 13.1681 18.0206 17.0699Z" fill="#C68590"/>
<path fill-rule="evenodd" clip-rule="evenodd" d="M14.89 10.4121H14.899Z" fill="white"/>
<path d="M14.89 10.4121H14.899" stroke="white" stroke-width="2" stroke-linecap="round" stroke-linejoin="round"/>
<path fill-rule="evenodd" clip-rule="evenodd" d="M10.8783 10.4121H10.8873Z" fill="white"/>
<path d="M10.8783 10.4121H10.8873" stroke="white" stroke-width="2" stroke-linecap="round" stroke-linejoin="round"/>
<path fill-rule="evenodd" clip-rule="evenodd" d="M6.8705 10.4121H6.8795Z" fill="white"/>
<path d="M6.8705 10.4121H6.8795" stroke="white" stroke-width="2" stroke-linecap="round" stroke-linejoin="round"/>
</svg>
