<svg width="22" height="22" viewBox="0 0 22 22" fill="none" xmlns="http://www.w3.org/2000/svg">
<path fill-rule="evenodd" clip-rule="evenodd" d="M18.0206 18.0699C14.9644 21.1263 10.439 21.7867 6.73564 20.074C6.18893 19.8539 5.7407 19.676 5.31459 19.676C4.12771 19.683 2.65038 20.8339 1.88258 20.067C1.11477 19.2991 2.26648 17.8206 2.26648 16.6266C2.26648 16.2004 2.09563 15.7602 1.87554 15.2124C0.162049 11.5096 0.823328 6.98269 3.87948 3.92721C7.78082 0.0244319 14.1192 0.0244322 18.0206 3.9262C21.929 7.83501 21.9219 14.1681 18.0206 18.0699Z" stroke="#D6D1CA" stroke-width="1.2" stroke-linecap="round" stroke-linejoin="round"/>
<path d="M14.89 11.4121H14.899" stroke="#D6D1CA" stroke-width="2" stroke-linecap="round" stroke-linejoin="round"/>
<path d="M10.8783 11.4121H10.8873" stroke="#D6D1CA" stroke-width="2" stroke-linecap="round" stroke-linejoin="round"/>
<path d="M6.8705 11.4121H6.8795" stroke="#D6D1CA" stroke-width="2" stroke-linecap="round" stroke-linejoin="round"/>
</svg>
