<svg width="21" height="18" viewBox="0 0 21 18" fill="none" xmlns="http://www.w3.org/2000/svg">
<path d="M19.7881 2.27172C19.0362 1.24374 17.974 0.508586 16.7723 0.184369C15.5705 -0.139849 14.2989 -0.0343119 13.1618 0.484025C12.144 0.941075 11.2362 1.71166 10.5 2.73427C9.7638 1.70916 8.85604 0.938575 7.83824 0.484025C6.70107 -0.0343119 5.42947 -0.139849 4.22773 0.184369C3.02598 0.508586 1.96384 1.24374 1.21195 2.27172C0.419039 3.35284 0 4.70399 0 6.17865C0 8.30089 1.21627 10.6291 3.61469 13.1014C5.56908 15.1151 7.8786 16.7643 9.08094 17.5679C9.50458 17.8501 9.99702 18 10.5 18C11.003 18 11.4954 17.8501 11.9191 17.5679C13.1204 16.7643 15.4309 15.1151 17.3853 13.1014C19.7837 10.6301 21 8.30089 21 6.17865C21 4.70399 20.581 3.35284 19.7881 2.27172Z" fill="#C68590"/>
</svg>
