<svg width="22" height="20" viewBox="0 0 22 20" fill="none" xmlns="http://www.w3.org/2000/svg">
<path d="M11.4492 19C10.9462 19.0005 10.4536 18.8505 10.0302 18.568C8.82878 17.7645 6.5183 16.1155 4.56391 14.102C2.16549 11.629 0.949219 9.29998 0.949219 7.17798C0.949219 5.70348 1.36826 4.35248 2.16116 3.27147C2.91306 2.2436 3.9752 1.50853 5.17695 1.18435C6.37869 0.860166 7.65029 0.965692 8.78746 1.48397C9.80526 1.94097 10.713 2.71147 11.4492 3.73398C12.1854 2.70897 13.0932 1.93847 14.111 1.48397C15.2481 0.965692 16.5197 0.860166 17.7215 1.18435C18.9232 1.50853 19.9854 2.2436 20.7373 3.27147C21.5302 4.35248 21.9492 5.70348 21.9492 7.17798C21.9492 9.29998 20.7329 11.628 18.3345 14.1C16.3801 16.1135 14.0706 17.7625 12.8683 18.566C12.445 18.8492 11.9524 18.9999 11.4492 19ZM6.55531 2.25297C6.17522 2.25262 5.79677 2.30474 5.42986 2.40797C4.50895 2.67103 3.69623 3.24076 3.11601 4.02998C2.48457 4.89098 2.15059 5.97998 2.15059 7.17998C2.15059 8.95598 3.24672 10.986 5.4092 13.214C7.28334 15.147 9.51645 16.739 10.6794 17.514C10.909 17.6666 11.1758 17.7477 11.4483 17.7477C11.7207 17.7477 11.9875 17.6666 12.2171 17.514C13.3801 16.737 15.6113 15.145 17.4873 13.214C19.6498 10.986 20.7459 8.95598 20.7459 7.17998C20.7459 5.97998 20.4119 4.89298 19.7805 4.02998C19.2003 3.24076 18.3876 2.67103 17.4667 2.40797C15.8246 1.94397 13.5175 2.42897 11.9653 5.18198C11.9124 5.27606 11.8368 5.35409 11.7459 5.40832C11.655 5.46254 11.5521 5.49107 11.4473 5.49107C11.3425 5.49107 11.2396 5.46254 11.1487 5.40832C11.0578 5.35409 10.9822 5.27606 10.9293 5.18198C9.70963 3.01497 8.02002 2.25297 6.55531 2.25297Z" fill="#D6D1CA" stroke="white" stroke-width="0.1"/>
</svg>
