<svg width="20" height="21" viewBox="0 0 20 21" fill="none" xmlns="http://www.w3.org/2000/svg">
<path fill-rule="evenodd" clip-rule="evenodd" d="M6.99008 19.71V16.4899C6.99006 15.6709 7.65777 15.0054 8.48506 14.9999H11.5154C12.3467 14.9999 13.0205 15.667 13.0205 16.4899V19.72C13.0203 20.4154 13.581 20.9837 14.2832 21H16.3034C18.3174 21 19.95 19.3837 19.95 17.3899V8.22973C19.9392 7.44537 19.5673 6.70882 18.9399 6.22968L12.0306 0.719566C10.8202 -0.239855 9.09951 -0.239855 7.88909 0.719566L1.01013 6.23968C0.380372 6.71687 0.00775602 7.45465 0 8.23973V17.3899C0 19.3837 1.63262 21 3.64656 21H5.66681C6.38647 21 6.96987 20.4224 6.96987 19.71" fill="#C68590"/>
</svg>
