<svg width="20" height="21" viewBox="0 0 20 21" fill="none" xmlns="http://www.w3.org/2000/svg">
<mask id="path-1-inside-1_493_7962" fill="white">
<path fill-rule="evenodd" clip-rule="evenodd" d="M6.99008 19.71V16.4899C6.99006 15.6709 7.65777 15.0054 8.48506 14.9999H11.5154C12.3467 14.9999 13.0205 15.667 13.0205 16.4899V19.72C13.0203 20.4154 13.581 20.9837 14.2832 21H16.3034C18.3174 21 19.95 19.3837 19.95 17.3899V8.22973C19.9392 7.44537 19.5673 6.70882 18.9399 6.22968L12.0306 0.719566C10.8202 -0.239855 9.09951 -0.239855 7.88909 0.719566L1.01013 6.23968C0.380372 6.71687 0.00775602 7.45465 0 8.23973V17.3899C0 19.3837 1.63262 21 3.64656 21H5.66681C6.38647 21 6.96987 20.4224 6.96987 19.71"/>
</mask>
<path d="M5.49008 19.71C5.49008 20.5384 6.16165 21.21 6.99008 21.21C7.8185 21.21 8.49008 20.5384 8.49008 19.71H5.49008ZM6.99008 16.4899H8.49008V16.4899L6.99008 16.4899ZM8.48506 14.9999V13.4998L8.4751 13.4999L8.48506 14.9999ZM13.0205 19.72L14.5205 19.7204V19.72H13.0205ZM14.2832 21L14.2484 22.4996C14.26 22.4999 14.2716 22.5 14.2832 22.5V21ZM16.3034 21V19.5V21ZM19.95 8.22973H21.45C21.45 8.22287 21.45 8.21602 21.4499 8.20916L19.95 8.22973ZM18.9399 6.22968L18.0046 7.40242C18.0128 7.40896 18.0211 7.41542 18.0294 7.42179L18.9399 6.22968ZM12.0306 0.719566L12.9659 -0.453173L12.9624 -0.455951L12.0306 0.719566ZM7.88909 0.719566L6.95732 -0.455972L6.95029 -0.45033L7.88909 0.719566ZM1.01013 6.23968L1.91604 7.43523C1.92712 7.42683 1.93808 7.41828 1.94893 7.40958L1.01013 6.23968ZM0 8.23973L-1.49993 8.22491C-1.49998 8.22985 -1.5 8.23479 -1.5 8.23973H0ZM8.49008 19.71V16.4899H5.49008V19.71H8.49008ZM8.49008 16.4899C8.49008 16.4897 8.49007 16.491 8.48961 16.4932C8.48916 16.4954 8.4885 16.4974 8.48776 16.4992C8.48637 16.5024 8.48539 16.5031 8.48623 16.5022C8.48707 16.5014 8.48805 16.5008 8.4886 16.5006C8.48877 16.5005 8.48904 16.5004 8.48959 16.5003C8.49006 16.5002 8.49173 16.4999 8.49503 16.4998L8.4751 13.4999C6.83739 13.5108 5.49004 14.8323 5.49008 16.4899L8.49008 16.4899ZM8.48506 16.4999H11.5154V13.4999H8.48506V16.4999ZM11.5154 16.4999C11.5188 16.4999 11.5205 16.5002 11.5209 16.5003C11.5215 16.5004 11.5218 16.5005 11.5219 16.5006C11.5225 16.5008 11.5235 16.5014 11.5244 16.5023C11.5253 16.5031 11.5243 16.5025 11.5229 16.4992C11.5221 16.4975 11.5215 16.4954 11.521 16.4932C11.5205 16.491 11.5205 16.4897 11.5205 16.4899H14.5205C14.5205 14.8244 13.1609 13.4999 11.5154 13.4999V16.4999ZM11.5205 16.4899V19.72H14.5205V16.4899H11.5205ZM11.5205 19.7196C11.5201 21.2437 12.7451 22.4647 14.2484 22.4996L14.318 19.5004C14.4168 19.5027 14.5206 19.587 14.5205 19.7204L11.5205 19.7196ZM14.2832 22.5H16.3034V19.5H14.2832V22.5ZM16.3034 22.5C19.1316 22.5 21.45 20.2263 21.45 17.3899H18.45C18.45 18.5411 17.5032 19.5 16.3034 19.5V22.5ZM21.45 17.3899V8.22973H18.45V17.3899H21.45ZM21.4499 8.20916C21.4327 6.96112 20.8408 5.79402 19.8503 5.03757L18.0294 7.42179C18.2937 7.62362 18.4457 7.92961 18.4501 8.25029L21.4499 8.20916ZM19.8751 5.05695L12.9659 -0.453168L11.0954 1.8923L18.0046 7.40242L19.8751 5.05695ZM12.9624 -0.455951C11.2061 -1.84802 8.7136 -1.84802 6.95734 -0.455951L8.82084 1.89508C9.48543 1.36831 10.4343 1.36831 11.0989 1.89508L12.9624 -0.455951ZM6.95029 -0.45033L0.0713277 5.06979L1.94893 7.40958L8.82789 1.88946L6.95029 -0.45033ZM0.104217 5.04414C-0.892841 5.79965 -1.48755 6.97206 -1.49993 8.22491L1.49993 8.25455C1.50306 7.93724 1.65358 7.6341 1.91604 7.43523L0.104217 5.04414ZM-1.5 8.23973V17.3899H1.5V8.23973H-1.5ZM-1.5 17.3899C-1.5 20.2263 0.818446 22.5 3.64656 22.5V19.5C2.44679 19.5 1.5 18.5411 1.5 17.3899H-1.5ZM3.64656 22.5H5.66681V19.5H3.64656V22.5ZM5.66681 22.5C7.20065 22.5 8.46987 21.265 8.46987 19.71H5.46987C5.46987 19.5798 5.5723 19.5 5.66681 19.5V22.5Z" fill="#D6D1CA" mask="url(#path-1-inside-1_493_7962)"/>
</svg>
