<svg width="22" height="22" viewBox="0 0 22 22" fill="none" xmlns="http://www.w3.org/2000/svg">
<path d="M11.0007 20.1666C16.0633 20.1666 20.1673 16.0626 20.1673 11C20.1673 5.93737 16.0633 1.83331 11.0007 1.83331C5.93804 1.83331 1.83398 5.93737 1.83398 11C1.83398 16.0626 5.93804 20.1666 11.0007 20.1666Z" fill="#2D2A26"/>
<path fill-rule="evenodd" clip-rule="evenodd" d="M11.1097 5.50206C11.642 5.24733 12.1621 5.5163 12.4768 5.77854L14.3633 7.35371C14.3638 7.3541 14.3643 7.35448 14.3647 7.35487C14.9472 7.83822 14.9759 8.69483 14.4052 9.20843L12.4463 11.0046L14.4052 12.8008C14.9759 13.3144 14.9472 14.171 14.3648 14.6543C14.3643 14.6547 14.3638 14.6551 14.3633 14.6555L12.4773 16.2303L12.4758 16.2315C12.1612 16.4927 11.6459 16.7531 11.1185 16.5062C10.5897 16.2587 10.46 15.6943 10.46 15.2809V12.8259L8.33963 14.7701C8.05978 15.0267 7.62488 15.0078 7.36827 14.728C7.11167 14.4481 7.13051 14.0132 7.41037 13.7566L10.4117 11.0046L7.41037 8.25259C7.13052 7.99598 7.11167 7.56109 7.36827 7.28123C7.62488 7.00137 8.05977 6.98252 8.33963 7.23913L10.46 9.18334V6.72835C10.46 6.32231 10.5828 5.75419 11.1097 5.50206ZM11.835 12.3096L13.3566 13.7048L11.835 14.9753V12.3096ZM11.835 9.69958V7.03394L13.3566 8.3044L11.835 9.69958Z" fill="white"/>
</svg>
