<svg width="22" height="22" viewBox="0 0 22 22" fill="none" xmlns="http://www.w3.org/2000/svg">
<path fill-rule="evenodd" clip-rule="evenodd" d="M15.9873 5.7167C16.024 5.7808 16.0882 5.82658 16.1707 5.82658C18.3707 5.82658 20.1673 7.62125 20.1673 9.81881V15.2578C20.1673 17.4553 18.3707 19.25 16.1707 19.25H5.83065C3.62148 19.25 1.83398 17.4553 1.83398 15.2578V9.81881C1.83398 7.62125 3.62148 5.82658 5.83065 5.82658C5.90398 5.82658 5.97732 5.78996 6.00482 5.7167L6.05982 5.60683C6.09142 5.5403 6.12386 5.47197 6.15679 5.40261C6.39129 4.90867 6.65073 4.36222 6.81148 4.04107C7.23315 3.21698 7.94815 2.75916 8.83732 2.75H13.1548C14.044 2.75916 14.7682 3.21698 15.1898 4.04107C15.3342 4.32949 15.5541 4.79408 15.7661 5.24187C15.8099 5.33428 15.8533 5.42598 15.8957 5.51526L15.9873 5.7167ZM15.3182 9.2328C15.3182 9.69062 15.6848 10.0569 16.1432 10.0569C16.6015 10.0569 16.9773 9.69062 16.9773 9.2328C16.9773 8.77497 16.6015 8.39956 16.1432 8.39956C15.6848 8.39956 15.3182 8.77497 15.3182 9.2328ZM9.41482 10.6521C9.84565 10.2217 10.4048 9.99279 11.0007 9.99279C11.5965 9.99279 12.1557 10.2217 12.5773 10.6429C12.999 11.0641 13.2282 11.6226 13.2282 12.2178C13.219 13.4448 12.229 14.4428 11.0007 14.4428C10.4048 14.4428 9.84565 14.2139 9.42398 13.7927C9.00232 13.3715 8.77315 12.813 8.77315 12.2178V12.2087C8.76398 11.6318 8.99315 11.0733 9.41482 10.6521ZM13.5398 14.7633C12.889 15.4134 11.9907 15.8163 11.0007 15.8163C10.0382 15.8163 9.13982 15.4409 8.45232 14.7633C7.77398 14.0766 7.39815 13.1792 7.39815 12.2178C7.38898 11.2655 7.76482 10.3682 8.44315 9.68147C9.13065 8.99473 10.0382 8.61931 11.0007 8.61931C11.9632 8.61931 12.8707 8.99473 13.549 9.67231C14.2273 10.359 14.6032 11.2655 14.6032 12.2178C14.594 13.2159 14.1906 14.1132 13.5398 14.7633Z" fill="#2D2A26"/>
</svg>
