<svg width="22" height="22" viewBox="0 0 22 22" fill="none" xmlns="http://www.w3.org/2000/svg">
<path fill-rule="evenodd" clip-rule="evenodd" d="M12.3298 4.47353H15.144C18.5265 4.47353 20.1765 6.27936 20.1673 9.9827V14.4469C20.1673 17.9852 17.9856 20.1669 14.4381 20.1669H7.55398C4.02482 20.1669 1.83398 17.9852 1.83398 14.4377V7.55353C1.83398 3.75853 3.52065 1.83353 6.84815 1.83353H8.29648C9.1499 1.82436 9.94648 2.21853 10.469 2.8877L11.2757 3.9602C11.5323 4.28103 11.9173 4.47353 12.3298 4.47353ZM6.75648 14.016H15.2448C15.6207 14.016 15.9232 13.7044 15.9232 13.3285C15.9232 12.9435 15.6207 12.641 15.2448 12.641H6.75648C6.37148 12.641 6.06898 12.9435 6.06898 13.3285C6.06898 13.7044 6.37148 14.016 6.75648 14.016Z" fill="#2D2A26"/>
</svg>
