<svg width="22" height="22" viewBox="0 0 22 22" fill="none" xmlns="http://www.w3.org/2000/svg">
<path d="M14.886 1.83331H7.11268C4.58268 1.83331 3.66602 2.74998 3.66602 5.32581V16.6741C3.66602 19.25 4.58268 20.1666 7.11268 20.1666H14.8768C17.416 20.1666 18.3327 19.25 18.3327 16.6741V5.32581C18.3327 2.74998 17.416 1.83331 14.886 1.83331Z" fill="#2D2A26"/>
<path d="M12.8327 5.72919H9.16602C8.79018 5.72919 8.47852 5.41752 8.47852 5.04169C8.47852 4.66585 8.79018 4.35419 9.16602 4.35419H12.8327C13.2085 4.35419 13.5202 4.66585 13.5202 5.04169C13.5202 5.41752 13.2085 5.72919 12.8327 5.72919Z" fill="white"/>
<path d="M11.0007 17.6917C11.8866 17.6917 12.6048 16.9735 12.6048 16.0875C12.6048 15.2015 11.8866 14.4833 11.0007 14.4833C10.1147 14.4833 9.39648 15.2015 9.39648 16.0875C9.39648 16.9735 10.1147 17.6917 11.0007 17.6917Z" fill="white"/>
</svg>
