<svg width="22" height="22" viewBox="0 0 22 22" fill="none" xmlns="http://www.w3.org/2000/svg">
<path fill-rule="evenodd" clip-rule="evenodd" d="M17.1488 8.06328C17.1488 9.21455 17.4531 9.89313 18.1227 10.6751C18.6302 11.2512 18.7923 11.9907 18.7923 12.793C18.7923 13.5944 18.529 14.3551 18.0015 14.9728C17.311 15.7132 16.3371 16.1859 15.3431 16.268C13.9028 16.3908 12.4615 16.4942 11.0011 16.4942C9.5398 16.4942 8.09944 16.4324 6.65909 16.268C5.66424 16.1859 4.69033 15.7132 4.00068 14.9728C3.47319 14.3551 3.20898 13.5944 3.20898 12.793C3.20898 11.9907 3.37206 11.2512 3.8786 10.6751C4.56917 9.89313 4.85341 9.21455 4.85341 8.06328V7.67276C4.85341 6.13096 5.23787 5.12279 6.02956 4.13585C7.20663 2.69653 9.09339 1.83331 10.9601 1.83331H11.0421C12.9489 1.83331 14.8967 2.73808 16.0537 4.23926C16.8044 5.20588 17.1488 6.17158 17.1488 7.67276V8.06328ZM8.31819 18.3891C8.31819 17.9275 8.74182 17.716 9.13357 17.6256C9.59182 17.5286 12.3842 17.5286 12.8424 17.6256C13.2342 17.716 13.6578 17.9275 13.6578 18.3891C13.635 18.8285 13.3772 19.2181 13.021 19.4656C12.5591 19.8256 12.017 20.0537 11.4503 20.1358C11.1369 20.1765 10.829 20.1774 10.5265 20.1358C9.95897 20.0537 9.4169 19.8256 8.95591 19.4646C8.59879 19.2181 8.34096 18.8285 8.31819 18.3891Z" fill="#2D2A26"/>
</svg>
