<svg width="390" height="384" viewBox="0 0 390 384" fill="none" xmlns="http://www.w3.org/2000/svg">
<mask id="mask0_260_67648" style="mask-type:alpha" maskUnits="userSpaceOnUse" x="0" y="0" width="390" height="384">
<rect width="390" height="384" fill="#D9D9D9"/>
</mask>
<g mask="url(#mask0_260_67648)">
<path opacity="0.1" d="M279.289 88.7988L439.671 184.262V345.672L279.289 249.345V88.7988Z" fill="#E0E0E0"/>
<path opacity="0.3" d="M279.289 89.3275L439.671 -7L600.053 89.3275V90.048L439.671 186.376L279.289 90.048V89.3275Z" fill="#E0E0E0"/>
<path opacity="0.2" d="M147.203 180.463L-13.1744 275.826V437.068L147.203 340.841V180.463Z" fill="#E0E0E0"/>
<path opacity="0.3" d="M-173 180.895L-12.6179 84.5679L147.764 180.895V181.616L-12.6179 277.943L-173 181.616V180.895Z" fill="#E0E0E0"/>
<path opacity="0.1" d="M212.139 128.951L279.011 168.755V236.056L212.139 195.892V128.951Z" fill="#E0E0E0"/>
<path opacity="0.2" d="M345.648 128.992L278.778 168.754V235.984L345.648 195.862V128.992Z" fill="#E0E0E0"/>
<path opacity="0.3" d="M212.139 129.172L279.011 89.0074L345.883 129.172V129.472L279.011 169.636L212.139 129.472V129.172Z" fill="#E0E0E0"/>
<path opacity="0.3" d="M268.189 386.116L335.062 345.951L401.934 386.116V386.416L335.062 426.58L268.189 386.416V386.116Z" fill="#E0E0E0"/>
</g>
</svg>
