<svg width="24" height="24" viewBox="0 0 24 24" fill="none" xmlns="http://www.w3.org/2000/svg">
<mask id="mask0_1888_13843" style="mask-type:luminance" maskUnits="userSpaceOnUse" x="2" y="2" width="20" height="20">
<path fill-rule="evenodd" clip-rule="evenodd" d="M2 2H21.953V21.9539H2V2Z" fill="white"/>
</mask>
<g mask="url(#mask0_1888_13843)">
<path fill-rule="evenodd" clip-rule="evenodd" d="M7.651 3.5C5.13 3.5 3.5 5.229 3.5 7.904V16.05C3.5 18.726 5.13 20.454 7.651 20.454H16.297C18.822 20.454 20.453 18.726 20.453 16.05V7.904C20.455 6.541 20.039 5.403 19.251 4.614C18.523 3.885 17.504 3.5 16.302 3.5H7.651ZM16.297 21.954H7.651C4.271 21.954 2 19.581 2 16.05V7.904C2 4.373 4.271 2 7.651 2H16.302C17.91 2 19.297 2.537 20.312 3.554C21.373 4.616 21.955 6.161 21.953 7.905V16.05C21.953 19.581 19.68 21.954 16.297 21.954V21.954Z" fill="#2D2A26"/>
</g>
<path fill-rule="evenodd" clip-rule="evenodd" d="M8.85672 7.68945C8.25272 7.68945 7.76172 8.18045 7.76172 8.78545C7.76172 9.38945 8.25272 9.88045 8.85772 9.88045C9.46172 9.88045 9.95372 9.38945 9.95372 8.78645C9.95272 8.18145 9.46072 7.69045 8.85672 7.68945M8.85772 11.3805C7.42572 11.3805 6.26172 10.2165 6.26172 8.78545C6.26172 7.35345 7.42572 6.18945 8.85772 6.18945C10.2887 6.19045 11.4527 7.35445 11.4537 8.78445V8.78545C11.4537 10.2165 10.2897 11.3805 8.85772 11.3805" fill="#2D2A26"/>
<path fill-rule="evenodd" clip-rule="evenodd" d="M3.74893 20.111C3.62493 20.111 3.49893 20.08 3.38293 20.015C3.02093 19.812 2.89393 19.355 3.09593 18.994C3.15593 18.886 4.59093 16.349 6.16993 15.049C7.42193 14.019 8.76993 14.585 9.85593 15.042C10.4949 15.311 11.0989 15.565 11.6789 15.565C12.2109 15.565 12.8779 14.625 13.4679 13.796C14.2869 12.64 15.2169 11.332 16.5789 11.332C18.7489 11.332 20.6219 13.268 21.6289 14.308L21.7449 14.428C22.0329 14.725 22.0259 15.2 21.7289 15.489C21.4339 15.778 20.9589 15.771 20.6689 15.473L20.5509 15.351C19.6989 14.47 18.1129 12.832 16.5789 12.832C15.9909 12.832 15.3009 13.805 14.6899 14.664C13.8519 15.844 12.9849 17.065 11.6789 17.065C10.7959 17.065 9.98693 16.725 9.27393 16.424C8.13993 15.946 7.62593 15.793 7.12293 16.207C5.75893 17.331 4.41693 19.705 4.40393 19.728C4.26693 19.973 4.01193 20.111 3.74893 20.111" fill="#2D2A26"/>
</svg>
