<svg width="24" height="24" viewBox="0 0 24 24" fill="none" xmlns="http://www.w3.org/2000/svg">
<path fill-rule="evenodd" clip-rule="evenodd" d="M4.76969 7.85082C4.76969 4.5651 7.67669 1 12 1C16.3233 1 19.2303 4.5651 19.2303 7.85082C19.2303 8.69376 19.3323 9.28401 19.4716 9.73789C19.6113 10.1932 19.7974 10.5431 20.0119 10.9206C20.0338 10.9592 20.0563 10.9985 20.0793 11.0386C20.2749 11.3805 20.502 11.7775 20.6754 12.2545C20.8753 12.8047 21 13.4431 21 14.2722C21 14.2943 20.9991 14.3164 20.9973 14.3385C20.9265 15.1958 20.6843 15.9481 20.2235 16.575C19.7647 17.1991 19.131 17.642 18.3669 17.9567C16.8738 18.5717 14.7408 18.7511 12 18.7511C9.26041 18.7511 7.12752 18.5746 5.63444 17.9612C4.87006 17.6471 4.23598 17.2045 3.77687 16.5795C3.31584 15.9519 3.07367 15.1981 3.00273 14.3385C3.00091 14.3165 3 14.2943 3 14.2722C3 13.4431 3.12466 12.8047 3.3246 12.2545C3.49796 11.7775 3.7251 11.3805 3.92076 11.0386C3.94369 10.9985 3.9662 10.9592 3.98813 10.9206C4.20259 10.5431 4.38874 10.1932 4.52843 9.73789C4.66767 9.28401 4.76969 8.69376 4.76969 7.85082ZM12 2.53489C8.45151 2.53489 6.22915 5.44525 6.22915 7.85082C6.22915 8.82942 6.10996 9.58147 5.91738 10.2092C5.72525 10.8355 5.46898 11.3065 5.24102 11.7078C5.21847 11.7475 5.1964 11.7862 5.17481 11.8241C4.97295 12.178 4.81267 12.4591 4.68789 12.8025C4.55828 13.1592 4.46279 13.6012 4.45954 14.2385C4.51469 14.8532 4.6807 15.2993 4.93182 15.6411C5.1893 15.9916 5.5788 16.2905 6.16549 16.5315C7.37456 17.0282 9.25375 17.2162 12 17.2162C14.746 17.2162 16.6256 17.0255 17.8347 16.5275C18.4216 16.2858 18.8114 15.9865 19.0689 15.6362C19.32 15.2946 19.4856 14.85 19.5405 14.2385C19.5372 13.6012 19.4417 13.1592 19.3121 12.8025C19.1873 12.4591 19.0271 12.178 18.8252 11.8241C18.8036 11.7862 18.7815 11.7475 18.759 11.7078C18.531 11.3065 18.2747 10.8355 18.0826 10.2092C17.89 9.58147 17.7709 8.82942 17.7709 7.85082C17.7709 5.44525 15.5485 2.53489 12 2.53489Z" fill="#2D2A26"/>
<path fill-rule="evenodd" clip-rule="evenodd" d="M9.09943 20.4924C9.39921 20.2091 9.86059 20.235 10.13 20.5503C11.1772 21.776 12.7424 21.7644 13.7826 20.5496C14.0523 20.2347 14.5138 20.2093 14.8132 20.493C15.1127 20.7766 15.1368 21.2619 14.8671 21.5768C13.2528 23.4619 10.6771 23.4871 9.04436 21.5762C8.775 21.2609 8.79965 20.7757 9.09943 20.4924Z" fill="#2D2A26"/>
</svg>
