<svg width="22" height="22" viewBox="0 0 22 22" fill="none" xmlns="http://www.w3.org/2000/svg">
<g clip-path="url(#clip0_1511_13420)">
<path d="M18.5273 16.97C18.4336 16.6893 18.1711 16.5 17.875 16.5H16.5V10.3125C16.5 7.27985 14.0326 4.8125 11 4.8125C7.96734 4.8125 5.49999 7.27985 5.49999 10.3125V16.5H4.12499C3.82889 16.5 3.56639 16.6893 3.47272 16.97L2.09772 21.095C2.0279 21.3045 2.06313 21.5354 2.19238 21.7147C2.32163 21.8939 2.52908 22 2.74999 22H19.25C19.4709 22 19.6783 21.8939 19.8076 21.7146C19.9368 21.5354 19.9721 21.3044 19.9023 21.0949L18.5273 16.97ZM6.87499 10.3125C6.87499 8.03782 8.72535 6.1875 11 6.1875C13.2746 6.1875 15.125 8.03786 15.125 10.3125V16.5H6.87499V10.3125ZM3.70368 20.625L4.62046 17.875H6.18749H15.8125H17.3795L18.2963 20.625H3.70368Z" fill="#2D2A26"/>
<path d="M11 3.4375C11.3797 3.4375 11.6875 3.12967 11.6875 2.75V0.6875C11.6875 0.307828 11.3797 0 11 0C10.6203 0 10.3125 0.307828 10.3125 0.6875V2.75C10.3125 3.12967 10.6203 3.4375 11 3.4375Z" fill="#2D2A26"/>
<path d="M20.625 9.625H18.5625C18.1828 9.625 17.875 9.93283 17.875 10.3125C17.875 10.6922 18.1828 11 18.5625 11H20.625C21.0047 11 21.3125 10.6922 21.3125 10.3125C21.3125 9.93283 21.0047 9.625 20.625 9.625Z" fill="#2D2A26"/>
<path d="M4.125 10.3125C4.125 9.93283 3.81717 9.625 3.4375 9.625H1.375C0.995328 9.625 0.6875 9.93283 0.6875 10.3125C0.6875 10.6922 0.995328 11 1.375 11H3.4375C3.81717 11 4.125 10.6922 4.125 10.3125Z" fill="#2D2A26"/>
<path d="M16.3476 5.65263C16.5235 5.65263 16.6995 5.58547 16.8337 5.45119L18.292 3.99292C18.5606 3.72437 18.5606 3.28931 18.292 3.02075C18.0235 2.7522 17.5884 2.7522 17.3198 3.02075L15.8616 4.47903C15.593 4.74758 15.593 5.18264 15.8616 5.45119C15.9958 5.58547 16.1717 5.65263 16.3476 5.65263Z" fill="#2D2A26"/>
<path d="M5.16648 5.45119C5.30076 5.58547 5.47667 5.65263 5.65259 5.65263C5.8285 5.65263 6.00442 5.58547 6.13869 5.45119C6.40725 5.18264 6.40725 4.74758 6.13869 4.47903L4.68042 3.02075C4.41187 2.7522 3.97681 2.7522 3.70825 3.02075C3.4397 3.28931 3.4397 3.72437 3.70825 3.99292L5.16648 5.45119Z" fill="#2D2A26"/>
<path d="M8.25 10.3125V15.8125H11V7.5625C9.48118 7.5625 8.25 8.79368 8.25 10.3125Z" fill="#2D2A26"/>
</g>
<defs>
<clipPath id="clip0_1511_13420">
<rect width="22" height="22" fill="white"/>
</clipPath>
</defs>
</svg>
